<?xml version="1.0" standalone="no"?>

<svg height="345pt" width="460pt" version="1.1" xmlns="http://www.w3.org/2000/svg">

<path d="M CordPair(-3.0,3.0),3.0 M CordPair(3.0,-3.0),-3.0" id="m3b5564ec45" style="fill:none;fill-rule:nonzero;fill-opacity:1;stroke:#ffd700;stroke-width:1;stroke-linecap:butt;stroke-linejoin:miter;stroke-miterlimit:4;stroke-dasharray:none;stroke-dashoffset:0;stroke-opacity:1" transform="matrix(1.0,0.0,0.0,1.0,0.0,0.0)" xmlns="http://www.w3.org/2000/svg" xmlns:svg="http://www.w3.org/2000/svg"/>
<path d="M CordPair(-3.0,-3.0),-3.0 M CordPair(3.0,3.0),3.0" id="m3b5564ec45" style="fill:none;fill-rule:nonzero;fill-opacity:1;stroke:#ffd700;stroke-width:1;stroke-linecap:butt;stroke-linejoin:miter;stroke-miterlimit:4;stroke-dasharray:none;stroke-dashoffset:0;stroke-opacity:1" transform="matrix(1.0,0.0,0.0,1.0,0.0,0.0)" xmlns="http://www.w3.org/2000/svg" xmlns:svg="http://www.w3.org/2000/svg"/>
<path d="M CordPair(66.6,54.570437),54.570437 M CordPair(86.6,54.570437),54.570437" id="noID11" style="fill:none;fill-rule:nonzero;fill-opacity:1;stroke:#4b0082;stroke-width:1.5;stroke-linecap:square;stroke-linejoin:miter;stroke-miterlimit:4;stroke-dasharray:none;stroke-dashoffset:0;stroke-opacity:1" transform="matrix(1.0,0.0,0.0,1.0,0.0,0.0)" xmlns="http://www.w3.org/2000/svg" xmlns:svg="http://www.w3.org/2000/svg"/>
<path d="M CordPair(66.6,69.248562),69.248562 M CordPair(86.6,69.248562),69.248562" id="noID11" style="fill:none;fill-rule:nonzero;fill-opacity:1;stroke:#ffd700;stroke-width:1.5;stroke-linecap:square;stroke-linejoin:miter;stroke-miterlimit:4;stroke-dasharray:none;stroke-dashoffset:0;stroke-opacity:1" transform="matrix(1.0,0.0,0.0,1.0,0.0,0.0)" xmlns="http://www.w3.org/2000/svg" xmlns:svg="http://www.w3.org/2000/svg"/>
<path d="M CordPair(66.6,54.570437),54.570437 M CordPair(86.6,54.570437),54.570437" id="noID10" style="fill:none;fill-rule:nonzero;fill-opacity:1;stroke:#4b0082;stroke-width:1.5;stroke-linecap:square;stroke-linejoin:miter;stroke-miterlimit:4;stroke-dasharray:none;stroke-dashoffset:0;stroke-opacity:1" transform="matrix(1.0,0.0,0.0,1.0,0.0,0.0)" xmlns="http://www.w3.org/2000/svg" xmlns:svg="http://www.w3.org/2000/svg"/>
<path d="M CordPair(-3.0,0.0),0.0 M CordPair(3.0,0.0),0.0" id="m30d33c6b66" style="fill:none;fill-rule:nonzero;fill-opacity:1;stroke:#4b0082;stroke-width:1;stroke-linecap:butt;stroke-linejoin:miter;stroke-miterlimit:4;stroke-dasharray:none;stroke-dashoffset:0;stroke-opacity:1" transform="matrix(1.0,0.0,0.0,1.0,0.0,0.0)" xmlns="http://www.w3.org/2000/svg" xmlns:svg="http://www.w3.org/2000/svg"/>
<path d="M CordPair(0.0,3.0),3.0 M CordPair(0.0,-3.0),-3.0" id="m30d33c6b66" style="fill:none;fill-rule:nonzero;fill-opacity:1;stroke:#4b0082;stroke-width:1;stroke-linecap:butt;stroke-linejoin:miter;stroke-miterlimit:4;stroke-dasharray:none;stroke-dashoffset:0;stroke-opacity:1" transform="matrix(1.0,0.0,0.0,1.0,0.0,0.0)" xmlns="http://www.w3.org/2000/svg" xmlns:svg="http://www.w3.org/2000/svg"/>
<path d="M CordPair(57.6,307.584),307.584 M CordPair(97.28,307.218963),307.218963" id="noID4" style="fill:none;fill-rule:nonzero;fill-opacity:1;stroke:#ffd700;stroke-width:1.5;stroke-linecap:square;stroke-linejoin:miter;stroke-miterlimit:4;stroke-dasharray:none;stroke-dashoffset:0;stroke-opacity:1" transform="matrix(1.0,0.0,0.0,1.0,0.0,0.0)" xmlns="http://www.w3.org/2000/svg" xmlns:svg="http://www.w3.org/2000/svg"/>
<path d="M CordPair(97.28,307.218963),307.218963 M CordPair(136.96,306.123852),306.123852" id="noID4" style="fill:none;fill-rule:nonzero;fill-opacity:1;stroke:#ffd700;stroke-width:1.5;stroke-linecap:square;stroke-linejoin:miter;stroke-miterlimit:4;stroke-dasharray:none;stroke-dashoffset:0;stroke-opacity:1" transform="matrix(1.0,0.0,0.0,1.0,0.0,0.0)" xmlns="http://www.w3.org/2000/svg" xmlns:svg="http://www.w3.org/2000/svg"/>
<path d="M CordPair(136.96,306.123852),306.123852 M CordPair(176.64,304.298667),304.298667" id="noID4" style="fill:none;fill-rule:nonzero;fill-opacity:1;stroke:#ffd700;stroke-width:1.5;stroke-linecap:square;stroke-linejoin:miter;stroke-miterlimit:4;stroke-dasharray:none;stroke-dashoffset:0;stroke-opacity:1" transform="matrix(1.0,0.0,0.0,1.0,0.0,0.0)" xmlns="http://www.w3.org/2000/svg" xmlns:svg="http://www.w3.org/2000/svg"/>
<path d="M CordPair(176.64,304.298667),304.298667 M CordPair(216.32,301.743407),301.743407" id="noID4" style="fill:none;fill-rule:nonzero;fill-opacity:1;stroke:#ffd700;stroke-width:1.5;stroke-linecap:square;stroke-linejoin:miter;stroke-miterlimit:4;stroke-dasharray:none;stroke-dashoffset:0;stroke-opacity:1" transform="matrix(1.0,0.0,0.0,1.0,0.0,0.0)" xmlns="http://www.w3.org/2000/svg" xmlns:svg="http://www.w3.org/2000/svg"/>
<path d="M CordPair(216.32,301.743407),301.743407 M CordPair(256.0,298.458074),298.458074" id="noID4" style="fill:none;fill-rule:nonzero;fill-opacity:1;stroke:#ffd700;stroke-width:1.5;stroke-linecap:square;stroke-linejoin:miter;stroke-miterlimit:4;stroke-dasharray:none;stroke-dashoffset:0;stroke-opacity:1" transform="matrix(1.0,0.0,0.0,1.0,0.0,0.0)" xmlns="http://www.w3.org/2000/svg" xmlns:svg="http://www.w3.org/2000/svg"/>
<path d="M CordPair(256.0,298.458074),298.458074 M CordPair(295.68,294.442667),294.442667" id="noID4" style="fill:none;fill-rule:nonzero;fill-opacity:1;stroke:#ffd700;stroke-width:1.5;stroke-linecap:square;stroke-linejoin:miter;stroke-miterlimit:4;stroke-dasharray:none;stroke-dashoffset:0;stroke-opacity:1" transform="matrix(1.0,0.0,0.0,1.0,0.0,0.0)" xmlns="http://www.w3.org/2000/svg" xmlns:svg="http://www.w3.org/2000/svg"/>
<path d="M CordPair(295.68,294.442667),294.442667 M CordPair(335.36,289.697185),289.697185" id="noID4" style="fill:none;fill-rule:nonzero;fill-opacity:1;stroke:#ffd700;stroke-width:1.5;stroke-linecap:square;stroke-linejoin:miter;stroke-miterlimit:4;stroke-dasharray:none;stroke-dashoffset:0;stroke-opacity:1" transform="matrix(1.0,0.0,0.0,1.0,0.0,0.0)" xmlns="http://www.w3.org/2000/svg" xmlns:svg="http://www.w3.org/2000/svg"/>
<path d="M CordPair(335.36,289.697185),289.697185 M CordPair(375.04,284.22163),284.22163" id="noID4" style="fill:none;fill-rule:nonzero;fill-opacity:1;stroke:#ffd700;stroke-width:1.5;stroke-linecap:square;stroke-linejoin:miter;stroke-miterlimit:4;stroke-dasharray:none;stroke-dashoffset:0;stroke-opacity:1" transform="matrix(1.0,0.0,0.0,1.0,0.0,0.0)" xmlns="http://www.w3.org/2000/svg" xmlns:svg="http://www.w3.org/2000/svg"/>
<path d="M CordPair(375.04,284.22163),284.22163 M CordPair(414.72,278.016),278.016" id="noID4" style="fill:none;fill-rule:nonzero;fill-opacity:1;stroke:#ffd700;stroke-width:1.5;stroke-linecap:square;stroke-linejoin:miter;stroke-miterlimit:4;stroke-dasharray:none;stroke-dashoffset:0;stroke-opacity:1" transform="matrix(1.0,0.0,0.0,1.0,0.0,0.0)" xmlns="http://www.w3.org/2000/svg" xmlns:svg="http://www.w3.org/2000/svg"/>
<path d="M CordPair(57.6,307.584),307.584 M CordPair(97.28,307.218963),307.218963" id="noID3" style="fill:none;fill-rule:nonzero;fill-opacity:1;stroke:#4b0082;stroke-width:1.5;stroke-linecap:square;stroke-linejoin:miter;stroke-miterlimit:4;stroke-dasharray:none;stroke-dashoffset:0;stroke-opacity:1" transform="matrix(1.0,0.0,0.0,1.0,0.0,0.0)" xmlns="http://www.w3.org/2000/svg" xmlns:svg="http://www.w3.org/2000/svg"/>
<path d="M CordPair(97.28,307.218963),307.218963 M CordPair(136.96,304.663704),304.663704" id="noID3" style="fill:none;fill-rule:nonzero;fill-opacity:1;stroke:#4b0082;stroke-width:1.5;stroke-linecap:square;stroke-linejoin:miter;stroke-miterlimit:4;stroke-dasharray:none;stroke-dashoffset:0;stroke-opacity:1" transform="matrix(1.0,0.0,0.0,1.0,0.0,0.0)" xmlns="http://www.w3.org/2000/svg" xmlns:svg="http://www.w3.org/2000/svg"/>
<path d="M CordPair(136.96,304.663704),304.663704 M CordPair(176.64,297.728),297.728" id="noID3" style="fill:none;fill-rule:nonzero;fill-opacity:1;stroke:#4b0082;stroke-width:1.5;stroke-linecap:square;stroke-linejoin:miter;stroke-miterlimit:4;stroke-dasharray:none;stroke-dashoffset:0;stroke-opacity:1" transform="matrix(1.0,0.0,0.0,1.0,0.0,0.0)" xmlns="http://www.w3.org/2000/svg" xmlns:svg="http://www.w3.org/2000/svg"/>
<path d="M CordPair(176.64,297.728),297.728 M CordPair(216.32,284.22163),284.22163" id="noID3" style="fill:none;fill-rule:nonzero;fill-opacity:1;stroke:#4b0082;stroke-width:1.5;stroke-linecap:square;stroke-linejoin:miter;stroke-miterlimit:4;stroke-dasharray:none;stroke-dashoffset:0;stroke-opacity:1" transform="matrix(1.0,0.0,0.0,1.0,0.0,0.0)" xmlns="http://www.w3.org/2000/svg" xmlns:svg="http://www.w3.org/2000/svg"/>
<path d="M CordPair(216.32,284.22163),284.22163 M CordPair(256.0,261.95437),261.95437" id="noID3" style="fill:none;fill-rule:nonzero;fill-opacity:1;stroke:#4b0082;stroke-width:1.5;stroke-linecap:square;stroke-linejoin:miter;stroke-miterlimit:4;stroke-dasharray:none;stroke-dashoffset:0;stroke-opacity:1" transform="matrix(1.0,0.0,0.0,1.0,0.0,0.0)" xmlns="http://www.w3.org/2000/svg" xmlns:svg="http://www.w3.org/2000/svg"/>
<path d="M CordPair(256.0,261.95437),261.95437 M CordPair(295.68,228.736),228.736" id="noID3" style="fill:none;fill-rule:nonzero;fill-opacity:1;stroke:#4b0082;stroke-width:1.5;stroke-linecap:square;stroke-linejoin:miter;stroke-miterlimit:4;stroke-dasharray:none;stroke-dashoffset:0;stroke-opacity:1" transform="matrix(1.0,0.0,0.0,1.0,0.0,0.0)" xmlns="http://www.w3.org/2000/svg" xmlns:svg="http://www.w3.org/2000/svg"/>
<path d="M CordPair(295.68,228.736),228.736 M CordPair(335.36,182.376296),182.376296" id="noID3" style="fill:none;fill-rule:nonzero;fill-opacity:1;stroke:#4b0082;stroke-width:1.5;stroke-linecap:square;stroke-linejoin:miter;stroke-miterlimit:4;stroke-dasharray:none;stroke-dashoffset:0;stroke-opacity:1" transform="matrix(1.0,0.0,0.0,1.0,0.0,0.0)" xmlns="http://www.w3.org/2000/svg" xmlns:svg="http://www.w3.org/2000/svg"/>
<path d="M CordPair(335.36,182.376296),182.376296 M CordPair(375.04,120.685037),120.685037" id="noID3" style="fill:none;fill-rule:nonzero;fill-opacity:1;stroke:#4b0082;stroke-width:1.5;stroke-linecap:square;stroke-linejoin:miter;stroke-miterlimit:4;stroke-dasharray:none;stroke-dashoffset:0;stroke-opacity:1" transform="matrix(1.0,0.0,0.0,1.0,0.0,0.0)" xmlns="http://www.w3.org/2000/svg" xmlns:svg="http://www.w3.org/2000/svg"/>
<path d="M CordPair(375.04,120.685037),120.685037 M CordPair(414.72,41.472),41.472" id="noID3" style="fill:none;fill-rule:nonzero;fill-opacity:1;stroke:#4b0082;stroke-width:1.5;stroke-linecap:square;stroke-linejoin:miter;stroke-miterlimit:4;stroke-dasharray:none;stroke-dashoffset:0;stroke-opacity:1" transform="matrix(1.0,0.0,0.0,1.0,0.0,0.0)" xmlns="http://www.w3.org/2000/svg" xmlns:svg="http://www.w3.org/2000/svg"/>
<path d="M CordPair(54.599998474121094,307.5840148925781),307.5840148925781 M CordPair(60.599998474121094,307.5840148925781),307.5840148925781" id="m30d33c6b66-use-66" style="fill:none;fill-rule:nonzero;fill-opacity:1;stroke:#4b0082;stroke-width:1;stroke-linecap:butt;stroke-linejoin:miter;stroke-miterlimit:4;stroke-dasharray:none;stroke-dashoffset:0;stroke-opacity:1" transform="matrix(1.0,0.0,0.0,1.0,0.0,0.0)" xmlns="http://www.w3.org/2000/svg" xmlns:svg="http://www.w3.org/2000/svg"/>
<path d="M CordPair(57.599998474121094,310.5840148925781),310.5840148925781 M CordPair(57.599998474121094,304.5840148925781),304.5840148925781" id="m30d33c6b66-use-66" style="fill:none;fill-rule:nonzero;fill-opacity:1;stroke:#4b0082;stroke-width:1;stroke-linecap:butt;stroke-linejoin:miter;stroke-miterlimit:4;stroke-dasharray:none;stroke-dashoffset:0;stroke-opacity:1" transform="matrix(1.0,0.0,0.0,1.0,0.0,0.0)" xmlns="http://www.w3.org/2000/svg" xmlns:svg="http://www.w3.org/2000/svg"/>
<path d="M CordPair(94.27999877929688,307.2189636230469),307.2189636230469 M CordPair(100.27999877929688,307.2189636230469),307.2189636230469" id="m30d33c6b66-use-67" style="fill:none;fill-rule:nonzero;fill-opacity:1;stroke:#4b0082;stroke-width:1;stroke-linecap:butt;stroke-linejoin:miter;stroke-miterlimit:4;stroke-dasharray:none;stroke-dashoffset:0;stroke-opacity:1" transform="matrix(1.0,0.0,0.0,1.0,0.0,0.0)" xmlns="http://www.w3.org/2000/svg" xmlns:svg="http://www.w3.org/2000/svg"/>
<path d="M CordPair(97.27999877929688,310.2189636230469),310.2189636230469 M CordPair(97.27999877929688,304.2189636230469),304.2189636230469" id="m30d33c6b66-use-67" style="fill:none;fill-rule:nonzero;fill-opacity:1;stroke:#4b0082;stroke-width:1;stroke-linecap:butt;stroke-linejoin:miter;stroke-miterlimit:4;stroke-dasharray:none;stroke-dashoffset:0;stroke-opacity:1" transform="matrix(1.0,0.0,0.0,1.0,0.0,0.0)" xmlns="http://www.w3.org/2000/svg" xmlns:svg="http://www.w3.org/2000/svg"/>
<path d="M CordPair(133.9600067138672,304.6636962890625),304.6636962890625 M CordPair(139.9600067138672,304.6636962890625),304.6636962890625" id="m30d33c6b66-use-68" style="fill:none;fill-rule:nonzero;fill-opacity:1;stroke:#4b0082;stroke-width:1;stroke-linecap:butt;stroke-linejoin:miter;stroke-miterlimit:4;stroke-dasharray:none;stroke-dashoffset:0;stroke-opacity:1" transform="matrix(1.0,0.0,0.0,1.0,0.0,0.0)" xmlns="http://www.w3.org/2000/svg" xmlns:svg="http://www.w3.org/2000/svg"/>
<path d="M CordPair(136.9600067138672,307.6636962890625),307.6636962890625 M CordPair(136.9600067138672,301.6636962890625),301.6636962890625" id="m30d33c6b66-use-68" style="fill:none;fill-rule:nonzero;fill-opacity:1;stroke:#4b0082;stroke-width:1;stroke-linecap:butt;stroke-linejoin:miter;stroke-miterlimit:4;stroke-dasharray:none;stroke-dashoffset:0;stroke-opacity:1" transform="matrix(1.0,0.0,0.0,1.0,0.0,0.0)" xmlns="http://www.w3.org/2000/svg" xmlns:svg="http://www.w3.org/2000/svg"/>
<path d="M CordPair(173.63999938964844,297.7279968261719),297.7279968261719 M CordPair(179.63999938964844,297.7279968261719),297.7279968261719" id="m30d33c6b66-use-69" style="fill:none;fill-rule:nonzero;fill-opacity:1;stroke:#4b0082;stroke-width:1;stroke-linecap:butt;stroke-linejoin:miter;stroke-miterlimit:4;stroke-dasharray:none;stroke-dashoffset:0;stroke-opacity:1" transform="matrix(1.0,0.0,0.0,1.0,0.0,0.0)" xmlns="http://www.w3.org/2000/svg" xmlns:svg="http://www.w3.org/2000/svg"/>
<path d="M CordPair(176.63999938964844,300.7279968261719),300.7279968261719 M CordPair(176.63999938964844,294.7279968261719),294.7279968261719" id="m30d33c6b66-use-69" style="fill:none;fill-rule:nonzero;fill-opacity:1;stroke:#4b0082;stroke-width:1;stroke-linecap:butt;stroke-linejoin:miter;stroke-miterlimit:4;stroke-dasharray:none;stroke-dashoffset:0;stroke-opacity:1" transform="matrix(1.0,0.0,0.0,1.0,0.0,0.0)" xmlns="http://www.w3.org/2000/svg" xmlns:svg="http://www.w3.org/2000/svg"/>
<path d="M CordPair(213.32000732421875,284.22161865234375),284.22161865234375 M CordPair(219.32000732421875,284.22161865234375),284.22161865234375" id="m30d33c6b66-use-70" style="fill:none;fill-rule:nonzero;fill-opacity:1;stroke:#4b0082;stroke-width:1;stroke-linecap:butt;stroke-linejoin:miter;stroke-miterlimit:4;stroke-dasharray:none;stroke-dashoffset:0;stroke-opacity:1" transform="matrix(1.0,0.0,0.0,1.0,0.0,0.0)" xmlns="http://www.w3.org/2000/svg" xmlns:svg="http://www.w3.org/2000/svg"/>
<path d="M CordPair(216.32000732421875,287.22161865234375),287.22161865234375 M CordPair(216.32000732421875,281.22161865234375),281.22161865234375" id="m30d33c6b66-use-70" style="fill:none;fill-rule:nonzero;fill-opacity:1;stroke:#4b0082;stroke-width:1;stroke-linecap:butt;stroke-linejoin:miter;stroke-miterlimit:4;stroke-dasharray:none;stroke-dashoffset:0;stroke-opacity:1" transform="matrix(1.0,0.0,0.0,1.0,0.0,0.0)" xmlns="http://www.w3.org/2000/svg" xmlns:svg="http://www.w3.org/2000/svg"/>
<path d="M CordPair(253.0,261.9543762207031),261.9543762207031 M CordPair(259.0,261.9543762207031),261.9543762207031" id="m30d33c6b66-use-71" style="fill:none;fill-rule:nonzero;fill-opacity:1;stroke:#4b0082;stroke-width:1;stroke-linecap:butt;stroke-linejoin:miter;stroke-miterlimit:4;stroke-dasharray:none;stroke-dashoffset:0;stroke-opacity:1" transform="matrix(1.0,0.0,0.0,1.0,0.0,0.0)" xmlns="http://www.w3.org/2000/svg" xmlns:svg="http://www.w3.org/2000/svg"/>
<path d="M CordPair(256.0,264.9543762207031),264.9543762207031 M CordPair(256.0,258.9543762207031),258.9543762207031" id="m30d33c6b66-use-71" style="fill:none;fill-rule:nonzero;fill-opacity:1;stroke:#4b0082;stroke-width:1;stroke-linecap:butt;stroke-linejoin:miter;stroke-miterlimit:4;stroke-dasharray:none;stroke-dashoffset:0;stroke-opacity:1" transform="matrix(1.0,0.0,0.0,1.0,0.0,0.0)" xmlns="http://www.w3.org/2000/svg" xmlns:svg="http://www.w3.org/2000/svg"/>
<path d="M CordPair(292.67999267578125,228.73599243164062),228.73599243164062 M CordPair(298.67999267578125,228.73599243164062),228.73599243164062" id="m30d33c6b66-use-72" style="fill:none;fill-rule:nonzero;fill-opacity:1;stroke:#4b0082;stroke-width:1;stroke-linecap:butt;stroke-linejoin:miter;stroke-miterlimit:4;stroke-dasharray:none;stroke-dashoffset:0;stroke-opacity:1" transform="matrix(1.0,0.0,0.0,1.0,0.0,0.0)" xmlns="http://www.w3.org/2000/svg" xmlns:svg="http://www.w3.org/2000/svg"/>
<path d="M CordPair(295.67999267578125,231.73599243164062),231.73599243164062 M CordPair(295.67999267578125,225.73599243164062),225.73599243164062" id="m30d33c6b66-use-72" style="fill:none;fill-rule:nonzero;fill-opacity:1;stroke:#4b0082;stroke-width:1;stroke-linecap:butt;stroke-linejoin:miter;stroke-miterlimit:4;stroke-dasharray:none;stroke-dashoffset:0;stroke-opacity:1" transform="matrix(1.0,0.0,0.0,1.0,0.0,0.0)" xmlns="http://www.w3.org/2000/svg" xmlns:svg="http://www.w3.org/2000/svg"/>
<path d="M CordPair(332.3599853515625,182.3762969970703),182.3762969970703 M CordPair(338.3599853515625,182.3762969970703),182.3762969970703" id="m30d33c6b66-use-73" style="fill:none;fill-rule:nonzero;fill-opacity:1;stroke:#4b0082;stroke-width:1;stroke-linecap:butt;stroke-linejoin:miter;stroke-miterlimit:4;stroke-dasharray:none;stroke-dashoffset:0;stroke-opacity:1" transform="matrix(1.0,0.0,0.0,1.0,0.0,0.0)" xmlns="http://www.w3.org/2000/svg" xmlns:svg="http://www.w3.org/2000/svg"/>
<path d="M CordPair(335.3599853515625,185.3762969970703),185.3762969970703 M CordPair(335.3599853515625,179.3762969970703),179.3762969970703" id="m30d33c6b66-use-73" style="fill:none;fill-rule:nonzero;fill-opacity:1;stroke:#4b0082;stroke-width:1;stroke-linecap:butt;stroke-linejoin:miter;stroke-miterlimit:4;stroke-dasharray:none;stroke-dashoffset:0;stroke-opacity:1" transform="matrix(1.0,0.0,0.0,1.0,0.0,0.0)" xmlns="http://www.w3.org/2000/svg" xmlns:svg="http://www.w3.org/2000/svg"/>
<path d="M CordPair(372.0400085449219,120.6850357055664),120.6850357055664 M CordPair(378.0400085449219,120.6850357055664),120.6850357055664" id="m30d33c6b66-use-74" style="fill:none;fill-rule:nonzero;fill-opacity:1;stroke:#4b0082;stroke-width:1;stroke-linecap:butt;stroke-linejoin:miter;stroke-miterlimit:4;stroke-dasharray:none;stroke-dashoffset:0;stroke-opacity:1" transform="matrix(1.0,0.0,0.0,1.0,0.0,0.0)" xmlns="http://www.w3.org/2000/svg" xmlns:svg="http://www.w3.org/2000/svg"/>
<path d="M CordPair(375.0400085449219,123.6850357055664),123.6850357055664 M CordPair(375.0400085449219,117.6850357055664),117.6850357055664" id="m30d33c6b66-use-74" style="fill:none;fill-rule:nonzero;fill-opacity:1;stroke:#4b0082;stroke-width:1;stroke-linecap:butt;stroke-linejoin:miter;stroke-miterlimit:4;stroke-dasharray:none;stroke-dashoffset:0;stroke-opacity:1" transform="matrix(1.0,0.0,0.0,1.0,0.0,0.0)" xmlns="http://www.w3.org/2000/svg" xmlns:svg="http://www.w3.org/2000/svg"/>
<path d="M CordPair(411.7200012207031,41.47200012207031),41.47200012207031 M CordPair(417.7200012207031,41.47200012207031),41.47200012207031" id="m30d33c6b66-use-75" style="fill:none;fill-rule:nonzero;fill-opacity:1;stroke:#4b0082;stroke-width:1;stroke-linecap:butt;stroke-linejoin:miter;stroke-miterlimit:4;stroke-dasharray:none;stroke-dashoffset:0;stroke-opacity:1" transform="matrix(1.0,0.0,0.0,1.0,0.0,0.0)" xmlns="http://www.w3.org/2000/svg" xmlns:svg="http://www.w3.org/2000/svg"/>
<path d="M CordPair(414.7200012207031,44.47200012207031),44.47200012207031 M CordPair(414.7200012207031,38.47200012207031),38.47200012207031" id="m30d33c6b66-use-75" style="fill:none;fill-rule:nonzero;fill-opacity:1;stroke:#4b0082;stroke-width:1;stroke-linecap:butt;stroke-linejoin:miter;stroke-miterlimit:4;stroke-dasharray:none;stroke-dashoffset:0;stroke-opacity:1" transform="matrix(1.0,0.0,0.0,1.0,0.0,0.0)" xmlns="http://www.w3.org/2000/svg" xmlns:svg="http://www.w3.org/2000/svg"/>
<path d="M CordPair(54.599998474121094,310.5840148925781),310.5840148925781 M CordPair(60.599998474121094,304.5840148925781),304.5840148925781" id="m3b5564ec45-use-76" style="fill:none;fill-rule:nonzero;fill-opacity:1;stroke:#ffd700;stroke-width:1;stroke-linecap:butt;stroke-linejoin:miter;stroke-miterlimit:4;stroke-dasharray:none;stroke-dashoffset:0;stroke-opacity:1" transform="matrix(1.0,0.0,0.0,1.0,0.0,0.0)" xmlns="http://www.w3.org/2000/svg" xmlns:svg="http://www.w3.org/2000/svg"/>
<path d="M CordPair(54.599998474121094,304.5840148925781),304.5840148925781 M CordPair(60.599998474121094,310.5840148925781),310.5840148925781" id="m3b5564ec45-use-76" style="fill:none;fill-rule:nonzero;fill-opacity:1;stroke:#ffd700;stroke-width:1;stroke-linecap:butt;stroke-linejoin:miter;stroke-miterlimit:4;stroke-dasharray:none;stroke-dashoffset:0;stroke-opacity:1" transform="matrix(1.0,0.0,0.0,1.0,0.0,0.0)" xmlns="http://www.w3.org/2000/svg" xmlns:svg="http://www.w3.org/2000/svg"/>
<path d="M CordPair(94.27999877929688,310.2189636230469),310.2189636230469 M CordPair(100.27999877929688,304.2189636230469),304.2189636230469" id="m3b5564ec45-use-77" style="fill:none;fill-rule:nonzero;fill-opacity:1;stroke:#ffd700;stroke-width:1;stroke-linecap:butt;stroke-linejoin:miter;stroke-miterlimit:4;stroke-dasharray:none;stroke-dashoffset:0;stroke-opacity:1" transform="matrix(1.0,0.0,0.0,1.0,0.0,0.0)" xmlns="http://www.w3.org/2000/svg" xmlns:svg="http://www.w3.org/2000/svg"/>
<path d="M CordPair(94.27999877929688,304.2189636230469),304.2189636230469 M CordPair(100.27999877929688,310.2189636230469),310.2189636230469" id="m3b5564ec45-use-77" style="fill:none;fill-rule:nonzero;fill-opacity:1;stroke:#ffd700;stroke-width:1;stroke-linecap:butt;stroke-linejoin:miter;stroke-miterlimit:4;stroke-dasharray:none;stroke-dashoffset:0;stroke-opacity:1" transform="matrix(1.0,0.0,0.0,1.0,0.0,0.0)" xmlns="http://www.w3.org/2000/svg" xmlns:svg="http://www.w3.org/2000/svg"/>
<path d="M CordPair(133.9600067138672,309.12384033203125),309.12384033203125 M CordPair(139.9600067138672,303.12384033203125),303.12384033203125" id="m3b5564ec45-use-78" style="fill:none;fill-rule:nonzero;fill-opacity:1;stroke:#ffd700;stroke-width:1;stroke-linecap:butt;stroke-linejoin:miter;stroke-miterlimit:4;stroke-dasharray:none;stroke-dashoffset:0;stroke-opacity:1" transform="matrix(1.0,0.0,0.0,1.0,0.0,0.0)" xmlns="http://www.w3.org/2000/svg" xmlns:svg="http://www.w3.org/2000/svg"/>
<path d="M CordPair(133.9600067138672,303.12384033203125),303.12384033203125 M CordPair(139.9600067138672,309.12384033203125),309.12384033203125" id="m3b5564ec45-use-78" style="fill:none;fill-rule:nonzero;fill-opacity:1;stroke:#ffd700;stroke-width:1;stroke-linecap:butt;stroke-linejoin:miter;stroke-miterlimit:4;stroke-dasharray:none;stroke-dashoffset:0;stroke-opacity:1" transform="matrix(1.0,0.0,0.0,1.0,0.0,0.0)" xmlns="http://www.w3.org/2000/svg" xmlns:svg="http://www.w3.org/2000/svg"/>
<path d="M CordPair(173.63999938964844,307.2986755371094),307.2986755371094 M CordPair(179.63999938964844,301.2986755371094),301.2986755371094" id="m3b5564ec45-use-79" style="fill:none;fill-rule:nonzero;fill-opacity:1;stroke:#ffd700;stroke-width:1;stroke-linecap:butt;stroke-linejoin:miter;stroke-miterlimit:4;stroke-dasharray:none;stroke-dashoffset:0;stroke-opacity:1" transform="matrix(1.0,0.0,0.0,1.0,0.0,0.0)" xmlns="http://www.w3.org/2000/svg" xmlns:svg="http://www.w3.org/2000/svg"/>
<path d="M CordPair(173.63999938964844,301.2986755371094),301.2986755371094 M CordPair(179.63999938964844,307.2986755371094),307.2986755371094" id="m3b5564ec45-use-79" style="fill:none;fill-rule:nonzero;fill-opacity:1;stroke:#ffd700;stroke-width:1;stroke-linecap:butt;stroke-linejoin:miter;stroke-miterlimit:4;stroke-dasharray:none;stroke-dashoffset:0;stroke-opacity:1" transform="matrix(1.0,0.0,0.0,1.0,0.0,0.0)" xmlns="http://www.w3.org/2000/svg" xmlns:svg="http://www.w3.org/2000/svg"/>
<path d="M CordPair(213.32000732421875,304.743408203125),304.743408203125 M CordPair(219.32000732421875,298.743408203125),298.743408203125" id="m3b5564ec45-use-80" style="fill:none;fill-rule:nonzero;fill-opacity:1;stroke:#ffd700;stroke-width:1;stroke-linecap:butt;stroke-linejoin:miter;stroke-miterlimit:4;stroke-dasharray:none;stroke-dashoffset:0;stroke-opacity:1" transform="matrix(1.0,0.0,0.0,1.0,0.0,0.0)" xmlns="http://www.w3.org/2000/svg" xmlns:svg="http://www.w3.org/2000/svg"/>
<path d="M CordPair(213.32000732421875,298.743408203125),298.743408203125 M CordPair(219.32000732421875,304.743408203125),304.743408203125" id="m3b5564ec45-use-80" style="fill:none;fill-rule:nonzero;fill-opacity:1;stroke:#ffd700;stroke-width:1;stroke-linecap:butt;stroke-linejoin:miter;stroke-miterlimit:4;stroke-dasharray:none;stroke-dashoffset:0;stroke-opacity:1" transform="matrix(1.0,0.0,0.0,1.0,0.0,0.0)" xmlns="http://www.w3.org/2000/svg" xmlns:svg="http://www.w3.org/2000/svg"/>
<path d="M CordPair(253.0,301.45806884765625),301.45806884765625 M CordPair(259.0,295.45806884765625),295.45806884765625" id="m3b5564ec45-use-81" style="fill:none;fill-rule:nonzero;fill-opacity:1;stroke:#ffd700;stroke-width:1;stroke-linecap:butt;stroke-linejoin:miter;stroke-miterlimit:4;stroke-dasharray:none;stroke-dashoffset:0;stroke-opacity:1" transform="matrix(1.0,0.0,0.0,1.0,0.0,0.0)" xmlns="http://www.w3.org/2000/svg" xmlns:svg="http://www.w3.org/2000/svg"/>
<path d="M CordPair(253.0,295.45806884765625),295.45806884765625 M CordPair(259.0,301.45806884765625),301.45806884765625" id="m3b5564ec45-use-81" style="fill:none;fill-rule:nonzero;fill-opacity:1;stroke:#ffd700;stroke-width:1;stroke-linecap:butt;stroke-linejoin:miter;stroke-miterlimit:4;stroke-dasharray:none;stroke-dashoffset:0;stroke-opacity:1" transform="matrix(1.0,0.0,0.0,1.0,0.0,0.0)" xmlns="http://www.w3.org/2000/svg" xmlns:svg="http://www.w3.org/2000/svg"/>
<path d="M CordPair(292.67999267578125,297.4426574707031),297.4426574707031 M CordPair(298.67999267578125,291.4426574707031),291.4426574707031" id="m3b5564ec45-use-82" style="fill:none;fill-rule:nonzero;fill-opacity:1;stroke:#ffd700;stroke-width:1;stroke-linecap:butt;stroke-linejoin:miter;stroke-miterlimit:4;stroke-dasharray:none;stroke-dashoffset:0;stroke-opacity:1" transform="matrix(1.0,0.0,0.0,1.0,0.0,0.0)" xmlns="http://www.w3.org/2000/svg" xmlns:svg="http://www.w3.org/2000/svg"/>
<path d="M CordPair(292.67999267578125,291.4426574707031),291.4426574707031 M CordPair(298.67999267578125,297.4426574707031),297.4426574707031" id="m3b5564ec45-use-82" style="fill:none;fill-rule:nonzero;fill-opacity:1;stroke:#ffd700;stroke-width:1;stroke-linecap:butt;stroke-linejoin:miter;stroke-miterlimit:4;stroke-dasharray:none;stroke-dashoffset:0;stroke-opacity:1" transform="matrix(1.0,0.0,0.0,1.0,0.0,0.0)" xmlns="http://www.w3.org/2000/svg" xmlns:svg="http://www.w3.org/2000/svg"/>
<path d="M CordPair(332.3599853515625,292.6971740722656),292.6971740722656 M CordPair(338.3599853515625,286.6971740722656),286.6971740722656" id="m3b5564ec45-use-83" style="fill:none;fill-rule:nonzero;fill-opacity:1;stroke:#ffd700;stroke-width:1;stroke-linecap:butt;stroke-linejoin:miter;stroke-miterlimit:4;stroke-dasharray:none;stroke-dashoffset:0;stroke-opacity:1" transform="matrix(1.0,0.0,0.0,1.0,0.0,0.0)" xmlns="http://www.w3.org/2000/svg" xmlns:svg="http://www.w3.org/2000/svg"/>
<path d="M CordPair(332.3599853515625,286.6971740722656),286.6971740722656 M CordPair(338.3599853515625,292.6971740722656),292.6971740722656" id="m3b5564ec45-use-83" style="fill:none;fill-rule:nonzero;fill-opacity:1;stroke:#ffd700;stroke-width:1;stroke-linecap:butt;stroke-linejoin:miter;stroke-miterlimit:4;stroke-dasharray:none;stroke-dashoffset:0;stroke-opacity:1" transform="matrix(1.0,0.0,0.0,1.0,0.0,0.0)" xmlns="http://www.w3.org/2000/svg" xmlns:svg="http://www.w3.org/2000/svg"/>
<path d="M CordPair(372.0400085449219,287.22161865234375),287.22161865234375 M CordPair(378.0400085449219,281.22161865234375),281.22161865234375" id="m3b5564ec45-use-84" style="fill:none;fill-rule:nonzero;fill-opacity:1;stroke:#ffd700;stroke-width:1;stroke-linecap:butt;stroke-linejoin:miter;stroke-miterlimit:4;stroke-dasharray:none;stroke-dashoffset:0;stroke-opacity:1" transform="matrix(1.0,0.0,0.0,1.0,0.0,0.0)" xmlns="http://www.w3.org/2000/svg" xmlns:svg="http://www.w3.org/2000/svg"/>
<path d="M CordPair(372.0400085449219,281.22161865234375),281.22161865234375 M CordPair(378.0400085449219,287.22161865234375),287.22161865234375" id="m3b5564ec45-use-84" style="fill:none;fill-rule:nonzero;fill-opacity:1;stroke:#ffd700;stroke-width:1;stroke-linecap:butt;stroke-linejoin:miter;stroke-miterlimit:4;stroke-dasharray:none;stroke-dashoffset:0;stroke-opacity:1" transform="matrix(1.0,0.0,0.0,1.0,0.0,0.0)" xmlns="http://www.w3.org/2000/svg" xmlns:svg="http://www.w3.org/2000/svg"/>
<path d="M CordPair(411.7200012207031,281.0159912109375),281.0159912109375 M CordPair(417.7200012207031,275.0159912109375),275.0159912109375" id="m3b5564ec45-use-85" style="fill:none;fill-rule:nonzero;fill-opacity:1;stroke:#ffd700;stroke-width:1;stroke-linecap:butt;stroke-linejoin:miter;stroke-miterlimit:4;stroke-dasharray:none;stroke-dashoffset:0;stroke-opacity:1" transform="matrix(1.0,0.0,0.0,1.0,0.0,0.0)" xmlns="http://www.w3.org/2000/svg" xmlns:svg="http://www.w3.org/2000/svg"/>
<path d="M CordPair(411.7200012207031,275.0159912109375),275.0159912109375 M CordPair(417.7200012207031,281.0159912109375),281.0159912109375" id="m3b5564ec45-use-85" style="fill:none;fill-rule:nonzero;fill-opacity:1;stroke:#ffd700;stroke-width:1;stroke-linecap:butt;stroke-linejoin:miter;stroke-miterlimit:4;stroke-dasharray:none;stroke-dashoffset:0;stroke-opacity:1" transform="matrix(1.0,0.0,0.0,1.0,0.0,0.0)" xmlns="http://www.w3.org/2000/svg" xmlns:svg="http://www.w3.org/2000/svg"/>
<path d="M CordPair(73.5999984741211,54.570438385009766),54.570438385009766 M CordPair(79.5999984741211,54.570438385009766),54.570438385009766" id="m30d33c6b66-use-141" style="fill:none;fill-rule:nonzero;fill-opacity:1;stroke:#4b0082;stroke-width:1;stroke-linecap:butt;stroke-linejoin:miter;stroke-miterlimit:4;stroke-dasharray:none;stroke-dashoffset:0;stroke-opacity:1" transform="matrix(1.0,0.0,0.0,1.0,0.0,0.0)" xmlns="http://www.w3.org/2000/svg" xmlns:svg="http://www.w3.org/2000/svg"/>
<path d="M CordPair(76.5999984741211,57.570438385009766),57.570438385009766 M CordPair(76.5999984741211,51.570438385009766),51.570438385009766" id="m30d33c6b66-use-141" style="fill:none;fill-rule:nonzero;fill-opacity:1;stroke:#4b0082;stroke-width:1;stroke-linecap:butt;stroke-linejoin:miter;stroke-miterlimit:4;stroke-dasharray:none;stroke-dashoffset:0;stroke-opacity:1" transform="matrix(1.0,0.0,0.0,1.0,0.0,0.0)" xmlns="http://www.w3.org/2000/svg" xmlns:svg="http://www.w3.org/2000/svg"/>
<path d="M CordPair(73.5999984741211,72.24856567382812),72.24856567382812 M CordPair(79.5999984741211,66.24856567382812),66.24856567382812" id="m3b5564ec45-use-158" style="fill:none;fill-rule:nonzero;fill-opacity:1;stroke:#ffd700;stroke-width:1;stroke-linecap:butt;stroke-linejoin:miter;stroke-miterlimit:4;stroke-dasharray:none;stroke-dashoffset:0;stroke-opacity:1" transform="matrix(1.0,0.0,0.0,1.0,0.0,0.0)" xmlns="http://www.w3.org/2000/svg" xmlns:svg="http://www.w3.org/2000/svg"/>
<path d="M CordPair(73.5999984741211,66.24856567382812),66.24856567382812 M CordPair(79.5999984741211,72.24856567382812),72.24856567382812" id="m3b5564ec45-use-158" style="fill:none;fill-rule:nonzero;fill-opacity:1;stroke:#ffd700;stroke-width:1;stroke-linecap:butt;stroke-linejoin:miter;stroke-miterlimit:4;stroke-dasharray:none;stroke-dashoffset:0;stroke-opacity:1" transform="matrix(1.0,0.0,0.0,1.0,0.0,0.0)" xmlns="http://www.w3.org/2000/svg" xmlns:svg="http://www.w3.org/2000/svg"/>
</svg>