<?xml version="1.0" encoding="utf-8" standalone="no"?>
<!DOCTYPE svg PUBLIC "-//W3C//DTD SVG 1.1//EN"
  "http://www.w3.org/Graphics/SVG/1.1/DTD/svg11.dtd">
<!-- Created with matplotlib (http://matplotlib.org/) -->
<svg height="432pt" version="1.1" viewBox="0 0 576 432" width="576pt" xmlns="http://www.w3.org/2000/svg" xmlns:xlink="http://www.w3.org/1999/xlink">
 <defs>
  <style type="text/css">
*{stroke-linecap:butt;stroke-linejoin:round;stroke-miterlimit:100000;}
  </style>
 </defs>
 <g id="figure_1">
  <g id="patch_1">
   <path d="M 0 432 
L 576 432 
L 576 0 
L 0 0 
z
" style="fill:#ffffff;"/>
  </g>
  <g id="axes_1">
   <g id="patch_2">
    <path d="M 72 388.8 
L 518.4 388.8 
L 518.4 43.2 
L 72 43.2 
z
" style="fill:#ffffff;"/>
   </g>
   <g id="line2d_1">
    <path clip-path="url(#p3754045360)" d="M 72 180.699832 
L 77.01573 146.330048 
L 82.031461 120.311541 
L 87.047191 100.722161 
L 92.062921 86.033726 
L 97.078652 75.053979 
L 102.094382 66.865398 
L 107.110112 60.768927 
L 112.125843 56.235855 
L 117.141573 52.868466 
L 122.157303 50.368772 
L 127.173034 48.514163 
L 132.188764 47.1387 
L 137.204494 46.118888 
L 142.220225 45.36293 
L 147.235955 44.802648 
L 152.251685 44.387441 
L 157.267416 44.079771 
L 162.283146 43.851802 
L 167.298876 43.682895 
L 172.314607 43.557753 
L 177.330337 43.465038 
L 182.346067 43.39635 
L 187.361798 43.345462 
L 192.377528 43.307762 
L 197.393258 43.279833 
L 202.408989 43.259142 
L 207.424719 43.243814 
L 212.440449 43.232458 
L 217.45618 43.224046 
L 222.47191 43.217814 
L 227.48764 43.213197 
L 232.503371 43.209776 
L 237.519101 43.207242 
L 242.534831 43.205365 
L 247.550562 43.203975 
L 252.566292 43.202945 
L 257.582022 43.202181 
L 262.597753 43.201616 
L 267.613483 43.201197 
L 272.629213 43.200887 
L 277.644944 43.200657 
L 282.660674 43.200487 
L 287.676404 43.200361 
L 292.692135 43.200267 
L 297.707865 43.200198 
L 302.723596 43.200147 
L 307.739326 43.200109 
L 312.755056 43.20008 
L 317.770787 43.20006 
L 322.786517 43.200044 
L 327.802247 43.200033 
L 332.817978 43.200024 
L 337.833708 43.200018 
L 342.849438 43.200013 
L 347.865169 43.20001 
L 352.880899 43.200007 
L 357.896629 43.200005 
L 362.91236 43.200004 
L 367.92809 43.200003 
L 372.94382 43.200002 
L 377.959551 43.200002 
L 382.975281 43.200001 
L 387.991011 43.200001 
L 393.006742 43.200001 
L 398.022472 43.2 
L 403.038202 43.2 
L 408.053933 43.2 
L 413.069663 43.2 
L 418.085393 43.2 
L 423.101124 43.2 
L 428.116854 43.2 
L 433.132584 43.2 
L 438.148315 43.2 
L 443.164045 43.2 
L 448.179775 43.2 
L 453.195506 43.2 
L 458.211236 43.2 
L 463.226966 43.2 
L 468.242697 43.2 
L 473.258427 43.2 
L 478.274157 43.2 
L 483.289888 43.2 
L 488.305618 43.2 
L 493.321348 43.2 
L 498.337079 43.2 
L 503.352809 43.2 
L 508.368539 43.2 
L 513.38427 43.2 
L 518.4 43.2 
" style="fill:none;stroke:#da70d6;stroke-dasharray:6.000000,6.000000;stroke-dashoffset:0.0;"/>
    <defs>
     <path d="M -3 3 
L 3 3 
L 3 -3 
L -3 -3 
z
" id="m18c224afab" style="stroke:#da70d6;stroke-linejoin:miter;stroke-width:0.5;"/>
    </defs>
    <g clip-path="url(#p3754045360)">
     <use style="fill:none;stroke:#da70d6;stroke-linejoin:miter;stroke-width:0.5;" x="72.0" xlink:href="#m18c224afab" y="180.699832153"/>
     <use style="fill:none;stroke:#da70d6;stroke-linejoin:miter;stroke-width:0.5;" x="77.0157303371" xlink:href="#m18c224afab" y="146.330047519"/>
     <use style="fill:none;stroke:#da70d6;stroke-linejoin:miter;stroke-width:0.5;" x="82.0314606742" xlink:href="#m18c224afab" y="120.311540759"/>
     <use style="fill:none;stroke:#da70d6;stroke-linejoin:miter;stroke-width:0.5;" x="87.0471910112" xlink:href="#m18c224afab" y="100.722160911"/>
     <use style="fill:none;stroke:#da70d6;stroke-linejoin:miter;stroke-width:0.5;" x="92.0629213483" xlink:href="#m18c224afab" y="86.0337264435"/>
     <use style="fill:none;stroke:#da70d6;stroke-linejoin:miter;stroke-width:0.5;" x="97.0786516854" xlink:href="#m18c224afab" y="75.0539789854"/>
     <use style="fill:none;stroke:#da70d6;stroke-linejoin:miter;stroke-width:0.5;" x="102.094382022" xlink:href="#m18c224afab" y="66.8653979839"/>
     <use style="fill:none;stroke:#da70d6;stroke-linejoin:miter;stroke-width:0.5;" x="107.11011236" xlink:href="#m18c224afab" y="60.7689266666"/>
     <use style="fill:none;stroke:#da70d6;stroke-linejoin:miter;stroke-width:0.5;" x="112.125842697" xlink:href="#m18c224afab" y="56.2358549775"/>
     <use style="fill:none;stroke:#da70d6;stroke-linejoin:miter;stroke-width:0.5;" x="117.141573034" xlink:href="#m18c224afab" y="52.8684660564"/>
     <use style="fill:none;stroke:#da70d6;stroke-linejoin:miter;stroke-width:0.5;" x="122.157303371" xlink:href="#m18c224afab" y="50.3687719428"/>
     <use style="fill:none;stroke:#da70d6;stroke-linejoin:miter;stroke-width:0.5;" x="127.173033708" xlink:href="#m18c224afab" y="48.5141625032"/>
     <use style="fill:none;stroke:#da70d6;stroke-linejoin:miter;stroke-width:0.5;" x="132.188764045" xlink:href="#m18c224afab" y="47.1386995458"/>
     <use style="fill:none;stroke:#da70d6;stroke-linejoin:miter;stroke-width:0.5;" x="137.204494382" xlink:href="#m18c224afab" y="46.1188881403"/>
     <use style="fill:none;stroke:#da70d6;stroke-linejoin:miter;stroke-width:0.5;" x="142.220224719" xlink:href="#m18c224afab" y="45.3629299061"/>
     <use style="fill:none;stroke:#da70d6;stroke-linejoin:miter;stroke-width:0.5;" x="147.235955056" xlink:href="#m18c224afab" y="44.8026477677"/>
     <use style="fill:none;stroke:#da70d6;stroke-linejoin:miter;stroke-width:0.5;" x="152.251685393" xlink:href="#m18c224afab" y="44.3874407923"/>
     <use style="fill:none;stroke:#da70d6;stroke-linejoin:miter;stroke-width:0.5;" x="157.26741573" xlink:href="#m18c224afab" y="44.0797711646"/>
     <use style="fill:none;stroke:#da70d6;stroke-linejoin:miter;stroke-width:0.5;" x="162.283146067" xlink:href="#m18c224afab" y="43.8518017716"/>
     <use style="fill:none;stroke:#da70d6;stroke-linejoin:miter;stroke-width:0.5;" x="167.298876404" xlink:href="#m18c224afab" y="43.6828947661"/>
     <use style="fill:none;stroke:#da70d6;stroke-linejoin:miter;stroke-width:0.5;" x="172.314606742" xlink:href="#m18c224afab" y="43.557752685"/>
     <use style="fill:none;stroke:#da70d6;stroke-linejoin:miter;stroke-width:0.5;" x="177.330337079" xlink:href="#m18c224afab" y="43.4650381838"/>
     <use style="fill:none;stroke:#da70d6;stroke-linejoin:miter;stroke-width:0.5;" x="182.346067416" xlink:href="#m18c224afab" y="43.3963497678"/>
     <use style="fill:none;stroke:#da70d6;stroke-linejoin:miter;stroke-width:0.5;" x="187.361797753" xlink:href="#m18c224afab" y="43.3454620388"/>
     <use style="fill:none;stroke:#da70d6;stroke-linejoin:miter;stroke-width:0.5;" x="192.37752809" xlink:href="#m18c224afab" y="43.30776233"/>
     <use style="fill:none;stroke:#da70d6;stroke-linejoin:miter;stroke-width:0.5;" x="197.393258427" xlink:href="#m18c224afab" y="43.2798330665"/>
     <use style="fill:none;stroke:#da70d6;stroke-linejoin:miter;stroke-width:0.5;" x="202.408988764" xlink:href="#m18c224afab" y="43.2591422123"/>
     <use style="fill:none;stroke:#da70d6;stroke-linejoin:miter;stroke-width:0.5;" x="207.424719101" xlink:href="#m18c224afab" y="43.24381386"/>
     <use style="fill:none;stroke:#da70d6;stroke-linejoin:miter;stroke-width:0.5;" x="212.440449438" xlink:href="#m18c224afab" y="43.2324582329"/>
     <use style="fill:none;stroke:#da70d6;stroke-linejoin:miter;stroke-width:0.5;" x="217.456179775" xlink:href="#m18c224afab" y="43.22404572"/>
     <use style="fill:none;stroke:#da70d6;stroke-linejoin:miter;stroke-width:0.5;" x="222.471910112" xlink:href="#m18c224afab" y="43.2178135457"/>
     <use style="fill:none;stroke:#da70d6;stroke-linejoin:miter;stroke-width:0.5;" x="227.487640449" xlink:href="#m18c224afab" y="43.2131966201"/>
     <use style="fill:none;stroke:#da70d6;stroke-linejoin:miter;stroke-width:0.5;" x="232.503370787" xlink:href="#m18c224afab" y="43.2097763081"/>
     <use style="fill:none;stroke:#da70d6;stroke-linejoin:miter;stroke-width:0.5;" x="237.519101124" xlink:href="#m18c224afab" y="43.2072424734"/>
     <use style="fill:none;stroke:#da70d6;stroke-linejoin:miter;stroke-width:0.5;" x="242.534831461" xlink:href="#m18c224afab" y="43.2053653596"/>
     <use style="fill:none;stroke:#da70d6;stroke-linejoin:miter;stroke-width:0.5;" x="247.550561798" xlink:href="#m18c224afab" y="43.203974758"/>
     <use style="fill:none;stroke:#da70d6;stroke-linejoin:miter;stroke-width:0.5;" x="252.566292135" xlink:href="#m18c224afab" y="43.2029445741"/>
     <use style="fill:none;stroke:#da70d6;stroke-linejoin:miter;stroke-width:0.5;" x="257.582022472" xlink:href="#m18c224afab" y="43.2021813946"/>
     <use style="fill:none;stroke:#da70d6;stroke-linejoin:miter;stroke-width:0.5;" x="262.597752809" xlink:href="#m18c224afab" y="43.2016160171"/>
     <use style="fill:none;stroke:#da70d6;stroke-linejoin:miter;stroke-width:0.5;" x="267.613483146" xlink:href="#m18c224afab" y="43.201197175"/>
     <use style="fill:none;stroke:#da70d6;stroke-linejoin:miter;stroke-width:0.5;" x="272.629213483" xlink:href="#m18c224afab" y="43.200886889"/>
     <use style="fill:none;stroke:#da70d6;stroke-linejoin:miter;stroke-width:0.5;" x="277.64494382" xlink:href="#m18c224afab" y="43.2006570235"/>
     <use style="fill:none;stroke:#da70d6;stroke-linejoin:miter;stroke-width:0.5;" x="282.660674157" xlink:href="#m18c224afab" y="43.2004867349"/>
     <use style="fill:none;stroke:#da70d6;stroke-linejoin:miter;stroke-width:0.5;" x="287.676404494" xlink:href="#m18c224afab" y="43.200360582"/>
     <use style="fill:none;stroke:#da70d6;stroke-linejoin:miter;stroke-width:0.5;" x="292.692134831" xlink:href="#m18c224afab" y="43.2002671256"/>
     <use style="fill:none;stroke:#da70d6;stroke-linejoin:miter;stroke-width:0.5;" x="297.707865169" xlink:href="#m18c224afab" y="43.2001978915"/>
     <use style="fill:none;stroke:#da70d6;stroke-linejoin:miter;stroke-width:0.5;" x="302.723595506" xlink:href="#m18c224afab" y="43.2001466015"/>
     <use style="fill:none;stroke:#da70d6;stroke-linejoin:miter;stroke-width:0.5;" x="307.739325843" xlink:href="#m18c224afab" y="43.200108605"/>
     <use style="fill:none;stroke:#da70d6;stroke-linejoin:miter;stroke-width:0.5;" x="312.75505618" xlink:href="#m18c224afab" y="43.2000804564"/>
     <use style="fill:none;stroke:#da70d6;stroke-linejoin:miter;stroke-width:0.5;" x="317.770786517" xlink:href="#m18c224afab" y="43.2000596035"/>
     <use style="fill:none;stroke:#da70d6;stroke-linejoin:miter;stroke-width:0.5;" x="322.786516854" xlink:href="#m18c224afab" y="43.2000441553"/>
     <use style="fill:none;stroke:#da70d6;stroke-linejoin:miter;stroke-width:0.5;" x="327.802247191" xlink:href="#m18c224afab" y="43.2000327109"/>
     <use style="fill:none;stroke:#da70d6;stroke-linejoin:miter;stroke-width:0.5;" x="332.817977528" xlink:href="#m18c224afab" y="43.2000242328"/>
     <use style="fill:none;stroke:#da70d6;stroke-linejoin:miter;stroke-width:0.5;" x="337.833707865" xlink:href="#m18c224afab" y="43.200017952"/>
     <use style="fill:none;stroke:#da70d6;stroke-linejoin:miter;stroke-width:0.5;" x="342.849438202" xlink:href="#m18c224afab" y="43.2000132991"/>
     <use style="fill:none;stroke:#da70d6;stroke-linejoin:miter;stroke-width:0.5;" x="347.865168539" xlink:href="#m18c224afab" y="43.2000098521"/>
     <use style="fill:none;stroke:#da70d6;stroke-linejoin:miter;stroke-width:0.5;" x="352.880898876" xlink:href="#m18c224afab" y="43.2000072985"/>
     <use style="fill:none;stroke:#da70d6;stroke-linejoin:miter;stroke-width:0.5;" x="357.896629213" xlink:href="#m18c224afab" y="43.2000054068"/>
     <use style="fill:none;stroke:#da70d6;stroke-linejoin:miter;stroke-width:0.5;" x="362.912359551" xlink:href="#m18c224afab" y="43.2000040053"/>
     <use style="fill:none;stroke:#da70d6;stroke-linejoin:miter;stroke-width:0.5;" x="367.928089888" xlink:href="#m18c224afab" y="43.2000029671"/>
     <use style="fill:none;stroke:#da70d6;stroke-linejoin:miter;stroke-width:0.5;" x="372.943820225" xlink:href="#m18c224afab" y="43.200002198"/>
     <use style="fill:none;stroke:#da70d6;stroke-linejoin:miter;stroke-width:0.5;" x="377.959550562" xlink:href="#m18c224afab" y="43.2000016282"/>
     <use style="fill:none;stroke:#da70d6;stroke-linejoin:miter;stroke-width:0.5;" x="382.975280899" xlink:href="#m18c224afab" y="43.2000012061"/>
     <use style="fill:none;stroke:#da70d6;stroke-linejoin:miter;stroke-width:0.5;" x="387.991011236" xlink:href="#m18c224afab" y="43.2000008934"/>
     <use style="fill:none;stroke:#da70d6;stroke-linejoin:miter;stroke-width:0.5;" x="393.006741573" xlink:href="#m18c224afab" y="43.2000006618"/>
     <use style="fill:none;stroke:#da70d6;stroke-linejoin:miter;stroke-width:0.5;" x="398.02247191" xlink:href="#m18c224afab" y="43.2000004902"/>
     <use style="fill:none;stroke:#da70d6;stroke-linejoin:miter;stroke-width:0.5;" x="403.038202247" xlink:href="#m18c224afab" y="43.200000363"/>
     <use style="fill:none;stroke:#da70d6;stroke-linejoin:miter;stroke-width:0.5;" x="408.053932584" xlink:href="#m18c224afab" y="43.2000002688"/>
     <use style="fill:none;stroke:#da70d6;stroke-linejoin:miter;stroke-width:0.5;" x="413.069662921" xlink:href="#m18c224afab" y="43.2000001991"/>
     <use style="fill:none;stroke:#da70d6;stroke-linejoin:miter;stroke-width:0.5;" x="418.085393258" xlink:href="#m18c224afab" y="43.2000001474"/>
     <use style="fill:none;stroke:#da70d6;stroke-linejoin:miter;stroke-width:0.5;" x="423.101123596" xlink:href="#m18c224afab" y="43.2000001091"/>
     <use style="fill:none;stroke:#da70d6;stroke-linejoin:miter;stroke-width:0.5;" x="428.116853933" xlink:href="#m18c224afab" y="43.2000000807"/>
     <use style="fill:none;stroke:#da70d6;stroke-linejoin:miter;stroke-width:0.5;" x="433.13258427" xlink:href="#m18c224afab" y="43.2000000597"/>
     <use style="fill:none;stroke:#da70d6;stroke-linejoin:miter;stroke-width:0.5;" x="438.148314607" xlink:href="#m18c224afab" y="43.2000000441"/>
     <use style="fill:none;stroke:#da70d6;stroke-linejoin:miter;stroke-width:0.5;" x="443.164044944" xlink:href="#m18c224afab" y="43.2000000326"/>
     <use style="fill:none;stroke:#da70d6;stroke-linejoin:miter;stroke-width:0.5;" x="448.179775281" xlink:href="#m18c224afab" y="43.2000000241"/>
     <use style="fill:none;stroke:#da70d6;stroke-linejoin:miter;stroke-width:0.5;" x="453.195505618" xlink:href="#m18c224afab" y="43.2000000177"/>
     <use style="fill:none;stroke:#da70d6;stroke-linejoin:miter;stroke-width:0.5;" x="458.211235955" xlink:href="#m18c224afab" y="43.200000013"/>
     <use style="fill:none;stroke:#da70d6;stroke-linejoin:miter;stroke-width:0.5;" x="463.226966292" xlink:href="#m18c224afab" y="43.2000000096"/>
     <use style="fill:none;stroke:#da70d6;stroke-linejoin:miter;stroke-width:0.5;" x="468.242696629" xlink:href="#m18c224afab" y="43.200000007"/>
     <use style="fill:none;stroke:#da70d6;stroke-linejoin:miter;stroke-width:0.5;" x="473.258426966" xlink:href="#m18c224afab" y="43.2000000051"/>
     <use style="fill:none;stroke:#da70d6;stroke-linejoin:miter;stroke-width:0.5;" x="478.274157303" xlink:href="#m18c224afab" y="43.2000000037"/>
     <use style="fill:none;stroke:#da70d6;stroke-linejoin:miter;stroke-width:0.5;" x="483.28988764" xlink:href="#m18c224afab" y="43.2000000026"/>
     <use style="fill:none;stroke:#da70d6;stroke-linejoin:miter;stroke-width:0.5;" x="488.305617978" xlink:href="#m18c224afab" y="43.2000000018"/>
     <use style="fill:none;stroke:#da70d6;stroke-linejoin:miter;stroke-width:0.5;" x="493.321348315" xlink:href="#m18c224afab" y="43.2000000013"/>
     <use style="fill:none;stroke:#da70d6;stroke-linejoin:miter;stroke-width:0.5;" x="498.337078652" xlink:href="#m18c224afab" y="43.2000000009"/>
     <use style="fill:none;stroke:#da70d6;stroke-linejoin:miter;stroke-width:0.5;" x="503.352808989" xlink:href="#m18c224afab" y="43.2000000005"/>
     <use style="fill:none;stroke:#da70d6;stroke-linejoin:miter;stroke-width:0.5;" x="508.368539326" xlink:href="#m18c224afab" y="43.2000000003"/>
     <use style="fill:none;stroke:#da70d6;stroke-linejoin:miter;stroke-width:0.5;" x="513.384269663" xlink:href="#m18c224afab" y="43.2000000001"/>
     <use style="fill:none;stroke:#da70d6;stroke-linejoin:miter;stroke-width:0.5;" x="518.4" xlink:href="#m18c224afab" y="43.2"/>
    </g>
   </g>
   <g id="line2d_2">
    <path clip-path="url(#p3754045360)" d="M 72 388.8 
L 77.01573 332.402382 
L 82.031461 284.339088 
L 87.047191 243.650104 
L 92.062921 209.397563 
L 97.078652 180.699832 
L 102.094382 156.751527 
L 107.110112 136.832878 
L 112.125843 120.311541 
L 117.141573 106.639445 
L 122.157303 95.346659 
L 127.173034 86.033726 
L 132.188764 78.36346 
L 137.204494 72.052839 
L 142.220225 66.865398 
L 147.235955 62.6043 
L 152.251685 59.106195 
L 157.267416 56.235855 
L 162.283146 53.881561 
L 167.298876 51.951167 
L 172.314607 50.368772 
L 177.330337 49.071926 
L 182.346067 48.009292 
L 187.361798 47.1387 
L 192.377528 46.425529 
L 197.393258 45.841372 
L 202.408989 45.36293 
L 207.424719 44.971097 
L 212.440449 44.650212 
L 217.45618 44.387441 
L 222.47191 44.172266 
L 227.48764 43.996073 
L 232.503371 43.851802 
L 237.519101 43.733672 
L 242.534831 43.636948 
L 247.550562 43.557753 
L 252.566292 43.49291 
L 257.582022 43.439819 
L 262.597753 43.39635 
L 267.613483 43.36076 
L 272.629213 43.33162 
L 277.644944 43.307762 
L 282.660674 43.288229 
L 287.676404 43.272236 
L 292.692135 43.259142 
L 297.707865 43.248422 
L 302.723596 43.239644 
L 307.739326 43.232458 
L 312.755056 43.226575 
L 317.770787 43.221757 
L 322.786517 43.217814 
L 327.802247 43.214585 
L 332.817978 43.211941 
L 337.833708 43.209776 
L 342.849438 43.208004 
L 347.865169 43.206553 
L 352.880899 43.205365 
L 357.896629 43.204393 
L 362.91236 43.203597 
L 367.92809 43.202945 
L 372.94382 43.202411 
L 377.959551 43.201974 
L 382.975281 43.201616 
L 387.991011 43.201323 
L 393.006742 43.201083 
L 398.022472 43.200887 
L 403.038202 43.200726 
L 408.053933 43.200594 
L 413.069663 43.200487 
L 418.085393 43.200399 
L 423.101124 43.200326 
L 428.116854 43.200267 
L 433.132584 43.200219 
L 438.148315 43.200179 
L 443.164045 43.200147 
L 448.179775 43.20012 
L 453.195506 43.200098 
L 458.211236 43.20008 
L 463.226966 43.200066 
L 468.242697 43.200054 
L 473.258427 43.200044 
L 478.274157 43.200036 
L 483.289888 43.20003 
L 488.305618 43.200024 
L 493.321348 43.20002 
L 498.337079 43.200016 
L 503.352809 43.200013 
L 508.368539 43.200011 
L 513.38427 43.200009 
L 518.4 43.200007 
" style="fill:none;stroke:#afeeee;stroke-dasharray:6.000000,6.000000;stroke-dashoffset:0.0;"/>
    <defs>
     <path d="M -0 3 
L 3 -3 
L -3 -3 
z
" id="m39311ebddd" style="stroke:#afeeee;stroke-linejoin:miter;stroke-width:0.5;"/>
    </defs>
    <g clip-path="url(#p3754045360)">
     <use style="fill:none;stroke:#afeeee;stroke-linejoin:miter;stroke-width:0.5;" x="72.0" xlink:href="#m39311ebddd" y="388.8"/>
     <use style="fill:none;stroke:#afeeee;stroke-linejoin:miter;stroke-width:0.5;" x="77.0157303371" xlink:href="#m39311ebddd" y="332.402382416"/>
     <use style="fill:none;stroke:#afeeee;stroke-linejoin:miter;stroke-width:0.5;" x="82.0314606742" xlink:href="#m39311ebddd" y="284.339088041"/>
     <use style="fill:none;stroke:#afeeee;stroke-linejoin:miter;stroke-width:0.5;" x="87.0471910112" xlink:href="#m39311ebddd" y="243.650103616"/>
     <use style="fill:none;stroke:#afeeee;stroke-linejoin:miter;stroke-width:0.5;" x="92.0629213483" xlink:href="#m39311ebddd" y="209.397563403"/>
     <use style="fill:none;stroke:#afeeee;stroke-linejoin:miter;stroke-width:0.5;" x="97.0786516854" xlink:href="#m39311ebddd" y="180.699832153"/>
     <use style="fill:none;stroke:#afeeee;stroke-linejoin:miter;stroke-width:0.5;" x="102.094382022" xlink:href="#m39311ebddd" y="156.751526833"/>
     <use style="fill:none;stroke:#afeeee;stroke-linejoin:miter;stroke-width:0.5;" x="107.11011236" xlink:href="#m39311ebddd" y="136.832877537"/>
     <use style="fill:none;stroke:#afeeee;stroke-linejoin:miter;stroke-width:0.5;" x="112.125842697" xlink:href="#m39311ebddd" y="120.311540759"/>
     <use style="fill:none;stroke:#afeeee;stroke-linejoin:miter;stroke-width:0.5;" x="117.141573034" xlink:href="#m39311ebddd" y="106.639445168"/>
     <use style="fill:none;stroke:#afeeee;stroke-linejoin:miter;stroke-width:0.5;" x="122.157303371" xlink:href="#m39311ebddd" y="95.3466593051"/>
     <use style="fill:none;stroke:#afeeee;stroke-linejoin:miter;stroke-width:0.5;" x="127.173033708" xlink:href="#m39311ebddd" y="86.0337264435"/>
     <use style="fill:none;stroke:#afeeee;stroke-linejoin:miter;stroke-width:0.5;" x="132.188764045" xlink:href="#m39311ebddd" y="78.3634595815"/>
     <use style="fill:none;stroke:#afeeee;stroke-linejoin:miter;stroke-width:0.5;" x="137.204494382" xlink:href="#m39311ebddd" y="72.0528390648"/>
     <use style="fill:none;stroke:#afeeee;stroke-linejoin:miter;stroke-width:0.5;" x="142.220224719" xlink:href="#m39311ebddd" y="66.8653979839"/>
     <use style="fill:none;stroke:#afeeee;stroke-linejoin:miter;stroke-width:0.5;" x="147.235955056" xlink:href="#m39311ebddd" y="62.6043001644"/>
     <use style="fill:none;stroke:#afeeee;stroke-linejoin:miter;stroke-width:0.5;" x="152.251685393" xlink:href="#m39311ebddd" y="59.10619481"/>
     <use style="fill:none;stroke:#afeeee;stroke-linejoin:miter;stroke-width:0.5;" x="157.26741573" xlink:href="#m39311ebddd" y="56.2358549775"/>
     <use style="fill:none;stroke:#afeeee;stroke-linejoin:miter;stroke-width:0.5;" x="162.283146067" xlink:href="#m39311ebddd" y="53.8815612202"/>
     <use style="fill:none;stroke:#afeeee;stroke-linejoin:miter;stroke-width:0.5;" x="167.298876404" xlink:href="#m39311ebddd" y="51.9511670358"/>
     <use style="fill:none;stroke:#afeeee;stroke-linejoin:miter;stroke-width:0.5;" x="172.314606742" xlink:href="#m39311ebddd" y="50.3687719428"/>
     <use style="fill:none;stroke:#afeeee;stroke-linejoin:miter;stroke-width:0.5;" x="177.330337079" xlink:href="#m39311ebddd" y="49.0719259104"/>
     <use style="fill:none;stroke:#afeeee;stroke-linejoin:miter;stroke-width:0.5;" x="182.346067416" xlink:href="#m39311ebddd" y="48.0092919497"/>
     <use style="fill:none;stroke:#afeeee;stroke-linejoin:miter;stroke-width:0.5;" x="187.361797753" xlink:href="#m39311ebddd" y="47.1386995458"/>
     <use style="fill:none;stroke:#afeeee;stroke-linejoin:miter;stroke-width:0.5;" x="192.37752809" xlink:href="#m39311ebddd" y="46.4255287571"/>
     <use style="fill:none;stroke:#afeeee;stroke-linejoin:miter;stroke-width:0.5;" x="197.393258427" xlink:href="#m39311ebddd" y="45.8413722701"/>
     <use style="fill:none;stroke:#afeeee;stroke-linejoin:miter;stroke-width:0.5;" x="202.408988764" xlink:href="#m39311ebddd" y="45.3629299061"/>
     <use style="fill:none;stroke:#afeeee;stroke-linejoin:miter;stroke-width:0.5;" x="207.424719101" xlink:href="#m39311ebddd" y="44.9710967399"/>
     <use style="fill:none;stroke:#afeeee;stroke-linejoin:miter;stroke-width:0.5;" x="212.440449438" xlink:href="#m39311ebddd" y="44.6502119548"/>
     <use style="fill:none;stroke:#afeeee;stroke-linejoin:miter;stroke-width:0.5;" x="217.456179775" xlink:href="#m39311ebddd" y="44.3874407923"/>
     <use style="fill:none;stroke:#afeeee;stroke-linejoin:miter;stroke-width:0.5;" x="222.471910112" xlink:href="#m39311ebddd" y="44.172266477"/>
     <use style="fill:none;stroke:#afeeee;stroke-linejoin:miter;stroke-width:0.5;" x="227.487640449" xlink:href="#m39311ebddd" y="43.9960728571"/>
     <use style="fill:none;stroke:#afeeee;stroke-linejoin:miter;stroke-width:0.5;" x="232.503370787" xlink:href="#m39311ebddd" y="43.8518017716"/>
     <use style="fill:none;stroke:#afeeee;stroke-linejoin:miter;stroke-width:0.5;" x="237.519101124" xlink:href="#m39311ebddd" y="43.7336719036"/>
     <use style="fill:none;stroke:#afeeee;stroke-linejoin:miter;stroke-width:0.5;" x="242.534831461" xlink:href="#m39311ebddd" y="43.6369481789"/>
     <use style="fill:none;stroke:#afeeee;stroke-linejoin:miter;stroke-width:0.5;" x="247.550561798" xlink:href="#m39311ebddd" y="43.557752685"/>
     <use style="fill:none;stroke:#afeeee;stroke-linejoin:miter;stroke-width:0.5;" x="252.566292135" xlink:href="#m39311ebddd" y="43.4929096769"/>
     <use style="fill:none;stroke:#afeeee;stroke-linejoin:miter;stroke-width:0.5;" x="257.582022472" xlink:href="#m39311ebddd" y="43.4398185522"/>
     <use style="fill:none;stroke:#afeeee;stroke-linejoin:miter;stroke-width:0.5;" x="262.597752809" xlink:href="#m39311ebddd" y="43.3963497678"/>
     <use style="fill:none;stroke:#afeeee;stroke-linejoin:miter;stroke-width:0.5;" x="267.613483146" xlink:href="#m39311ebddd" y="43.3607595668"/>
     <use style="fill:none;stroke:#afeeee;stroke-linejoin:miter;stroke-width:0.5;" x="272.629213483" xlink:href="#m39311ebddd" y="43.331620124"/>
     <use style="fill:none;stroke:#afeeee;stroke-linejoin:miter;stroke-width:0.5;" x="277.64494382" xlink:href="#m39311ebddd" y="43.30776233"/>
     <use style="fill:none;stroke:#afeeee;stroke-linejoin:miter;stroke-width:0.5;" x="282.660674157" xlink:href="#m39311ebddd" y="43.288228928"/>
     <use style="fill:none;stroke:#afeeee;stroke-linejoin:miter;stroke-width:0.5;" x="287.676404494" xlink:href="#m39311ebddd" y="43.2722361351"/>
     <use style="fill:none;stroke:#afeeee;stroke-linejoin:miter;stroke-width:0.5;" x="292.692134831" xlink:href="#m39311ebddd" y="43.2591422123"/>
     <use style="fill:none;stroke:#afeeee;stroke-linejoin:miter;stroke-width:0.5;" x="297.707865169" xlink:href="#m39311ebddd" y="43.248421727"/>
     <use style="fill:none;stroke:#afeeee;stroke-linejoin:miter;stroke-width:0.5;" x="302.723595506" xlink:href="#m39311ebddd" y="43.239644477"/>
     <use style="fill:none;stroke:#afeeee;stroke-linejoin:miter;stroke-width:0.5;" x="307.739325843" xlink:href="#m39311ebddd" y="43.2324582329"/>
     <use style="fill:none;stroke:#afeeee;stroke-linejoin:miter;stroke-width:0.5;" x="312.75505618" xlink:href="#m39311ebddd" y="43.2265746073"/>
     <use style="fill:none;stroke:#afeeee;stroke-linejoin:miter;stroke-width:0.5;" x="317.770786517" xlink:href="#m39311ebddd" y="43.2217574843"/>
     <use style="fill:none;stroke:#afeeee;stroke-linejoin:miter;stroke-width:0.5;" x="322.786516854" xlink:href="#m39311ebddd" y="43.2178135457"/>
     <use style="fill:none;stroke:#afeeee;stroke-linejoin:miter;stroke-width:0.5;" x="327.802247191" xlink:href="#m39311ebddd" y="43.2145845139"/>
     <use style="fill:none;stroke:#afeeee;stroke-linejoin:miter;stroke-width:0.5;" x="332.817977528" xlink:href="#m39311ebddd" y="43.2119408008"/>
     <use style="fill:none;stroke:#afeeee;stroke-linejoin:miter;stroke-width:0.5;" x="337.833707865" xlink:href="#m39311ebddd" y="43.2097763081"/>
     <use style="fill:none;stroke:#afeeee;stroke-linejoin:miter;stroke-width:0.5;" x="342.849438202" xlink:href="#m39311ebddd" y="43.2080041689"/>
     <use style="fill:none;stroke:#afeeee;stroke-linejoin:miter;stroke-width:0.5;" x="347.865168539" xlink:href="#m39311ebddd" y="43.2065532625"/>
     <use style="fill:none;stroke:#afeeee;stroke-linejoin:miter;stroke-width:0.5;" x="352.880898876" xlink:href="#m39311ebddd" y="43.2053653596"/>
     <use style="fill:none;stroke:#afeeee;stroke-linejoin:miter;stroke-width:0.5;" x="357.896629213" xlink:href="#m39311ebddd" y="43.2043927863"/>
     <use style="fill:none;stroke:#afeeee;stroke-linejoin:miter;stroke-width:0.5;" x="362.912359551" xlink:href="#m39311ebddd" y="43.2035965102"/>
     <use style="fill:none;stroke:#afeeee;stroke-linejoin:miter;stroke-width:0.5;" x="367.928089888" xlink:href="#m39311ebddd" y="43.2029445741"/>
     <use style="fill:none;stroke:#afeeee;stroke-linejoin:miter;stroke-width:0.5;" x="372.943820225" xlink:href="#m39311ebddd" y="43.2024108137"/>
     <use style="fill:none;stroke:#afeeee;stroke-linejoin:miter;stroke-width:0.5;" x="377.959550562" xlink:href="#m39311ebddd" y="43.2019738076"/>
     <use style="fill:none;stroke:#afeeee;stroke-linejoin:miter;stroke-width:0.5;" x="382.975280899" xlink:href="#m39311ebddd" y="43.2016160171"/>
     <use style="fill:none;stroke:#afeeee;stroke-linejoin:miter;stroke-width:0.5;" x="387.991011236" xlink:href="#m39311ebddd" y="43.201323083"/>
     <use style="fill:none;stroke:#afeeee;stroke-linejoin:miter;stroke-width:0.5;" x="393.006741573" xlink:href="#m39311ebddd" y="43.2010832487"/>
     <use style="fill:none;stroke:#afeeee;stroke-linejoin:miter;stroke-width:0.5;" x="398.02247191" xlink:href="#m39311ebddd" y="43.200886889"/>
     <use style="fill:none;stroke:#afeeee;stroke-linejoin:miter;stroke-width:0.5;" x="403.038202247" xlink:href="#m39311ebddd" y="43.2007261233"/>
     <use style="fill:none;stroke:#afeeee;stroke-linejoin:miter;stroke-width:0.5;" x="408.053932584" xlink:href="#m39311ebddd" y="43.2005944994"/>
     <use style="fill:none;stroke:#afeeee;stroke-linejoin:miter;stroke-width:0.5;" x="413.069662921" xlink:href="#m39311ebddd" y="43.2004867349"/>
     <use style="fill:none;stroke:#afeeee;stroke-linejoin:miter;stroke-width:0.5;" x="418.085393258" xlink:href="#m39311ebddd" y="43.2003985048"/>
     <use style="fill:none;stroke:#afeeee;stroke-linejoin:miter;stroke-width:0.5;" x="423.101123596" xlink:href="#m39311ebddd" y="43.2003262681"/>
     <use style="fill:none;stroke:#afeeee;stroke-linejoin:miter;stroke-width:0.5;" x="428.116853933" xlink:href="#m39311ebddd" y="43.2002671256"/>
     <use style="fill:none;stroke:#afeeee;stroke-linejoin:miter;stroke-width:0.5;" x="433.13258427" xlink:href="#m39311ebddd" y="43.2002187039"/>
     <use style="fill:none;stroke:#afeeee;stroke-linejoin:miter;stroke-width:0.5;" x="438.148314607" xlink:href="#m39311ebddd" y="43.2001790596"/>
     <use style="fill:none;stroke:#afeeee;stroke-linejoin:miter;stroke-width:0.5;" x="443.164044944" xlink:href="#m39311ebddd" y="43.2001466015"/>
     <use style="fill:none;stroke:#afeeee;stroke-linejoin:miter;stroke-width:0.5;" x="448.179775281" xlink:href="#m39311ebddd" y="43.2001200271"/>
     <use style="fill:none;stroke:#afeeee;stroke-linejoin:miter;stroke-width:0.5;" x="453.195505618" xlink:href="#m39311ebddd" y="43.2000982698"/>
     <use style="fill:none;stroke:#afeeee;stroke-linejoin:miter;stroke-width:0.5;" x="458.211235955" xlink:href="#m39311ebddd" y="43.2000804564"/>
     <use style="fill:none;stroke:#afeeee;stroke-linejoin:miter;stroke-width:0.5;" x="463.226966292" xlink:href="#m39311ebddd" y="43.2000658721"/>
     <use style="fill:none;stroke:#afeeee;stroke-linejoin:miter;stroke-width:0.5;" x="468.242696629" xlink:href="#m39311ebddd" y="43.2000539315"/>
     <use style="fill:none;stroke:#afeeee;stroke-linejoin:miter;stroke-width:0.5;" x="473.258426966" xlink:href="#m39311ebddd" y="43.2000441553"/>
     <use style="fill:none;stroke:#afeeee;stroke-linejoin:miter;stroke-width:0.5;" x="478.274157303" xlink:href="#m39311ebddd" y="43.2000361512"/>
     <use style="fill:none;stroke:#afeeee;stroke-linejoin:miter;stroke-width:0.5;" x="483.28988764" xlink:href="#m39311ebddd" y="43.200029598"/>
     <use style="fill:none;stroke:#afeeee;stroke-linejoin:miter;stroke-width:0.5;" x="488.305617978" xlink:href="#m39311ebddd" y="43.2000242328"/>
     <use style="fill:none;stroke:#afeeee;stroke-linejoin:miter;stroke-width:0.5;" x="493.321348315" xlink:href="#m39311ebddd" y="43.20001984"/>
     <use style="fill:none;stroke:#afeeee;stroke-linejoin:miter;stroke-width:0.5;" x="498.337078652" xlink:href="#m39311ebddd" y="43.2000162436"/>
     <use style="fill:none;stroke:#afeeee;stroke-linejoin:miter;stroke-width:0.5;" x="503.352808989" xlink:href="#m39311ebddd" y="43.2000132991"/>
     <use style="fill:none;stroke:#afeeee;stroke-linejoin:miter;stroke-width:0.5;" x="508.368539326" xlink:href="#m39311ebddd" y="43.2000108883"/>
     <use style="fill:none;stroke:#afeeee;stroke-linejoin:miter;stroke-width:0.5;" x="513.384269663" xlink:href="#m39311ebddd" y="43.2000089145"/>
     <use style="fill:none;stroke:#afeeee;stroke-linejoin:miter;stroke-width:0.5;" x="518.4" xlink:href="#m39311ebddd" y="43.2000072985"/>
    </g>
   </g>
   <g id="patch_3">
    <path d="M 72 43.2 
L 518.4 43.2 
" style="fill:none;stroke:#000000;stroke-linecap:square;stroke-linejoin:miter;"/>
   </g>
   <g id="patch_4">
    <path d="M 518.4 388.8 
L 518.4 43.2 
" style="fill:none;stroke:#000000;stroke-linecap:square;stroke-linejoin:miter;"/>
   </g>
   <g id="patch_5">
    <path d="M 72 388.8 
L 518.4 388.8 
" style="fill:none;stroke:#000000;stroke-linecap:square;stroke-linejoin:miter;"/>
   </g>
   <g id="patch_6">
    <path d="M 72 388.8 
L 72 43.2 
" style="fill:none;stroke:#000000;stroke-linecap:square;stroke-linejoin:miter;"/>
   </g>
   <g id="matplotlib.axis_1">
    <g id="xtick_1">
     <g id="line2d_3">
      <defs>
       <path d="M 0 0 
L 0 -4 
" id="mbc6a6cdd60" style="stroke:#000000;stroke-width:0.5;"/>
      </defs>
      <g>
       <use style="stroke:#000000;stroke-width:0.5;" x="72.0" xlink:href="#mbc6a6cdd60" y="388.8"/>
      </g>
     </g>
     <g id="line2d_4">
      <defs>
       <path d="M 0 0 
L 0 4 
" id="m2fb385ffd3" style="stroke:#000000;stroke-width:0.5;"/>
      </defs>
      <g>
       <use style="stroke:#000000;stroke-width:0.5;" x="72.0" xlink:href="#m2fb385ffd3" y="43.2"/>
      </g>
     </g>
     <g id="text_1">
      <!-- 1 -->
      <defs>
       <path d="M 12.40625 8.296875 
L 28.515625 8.296875 
L 28.515625 63.921875 
L 10.984375 60.40625 
L 10.984375 69.390625 
L 28.421875 72.90625 
L 38.28125 72.90625 
L 38.28125 8.296875 
L 54.390625 8.296875 
L 54.390625 0 
L 12.40625 0 
z
" id="BitstreamVeraSans-Roman-31"/>
      </defs>
      <g transform="translate(68.1825 401.918125)scale(0.12 -0.12)">
       <use xlink:href="#BitstreamVeraSans-Roman-31"/>
      </g>
     </g>
    </g>
    <g id="xtick_2">
     <g id="line2d_5">
      <g>
       <use style="stroke:#000000;stroke-width:0.5;" x="122.157303371" xlink:href="#mbc6a6cdd60" y="388.8"/>
      </g>
     </g>
     <g id="line2d_6">
      <g>
       <use style="stroke:#000000;stroke-width:0.5;" x="122.157303371" xlink:href="#m2fb385ffd3" y="43.2"/>
      </g>
     </g>
     <g id="text_2">
      <!-- 2 -->
      <defs>
       <path d="M 19.1875 8.296875 
L 53.609375 8.296875 
L 53.609375 0 
L 7.328125 0 
L 7.328125 8.296875 
Q 12.9375 14.109375 22.625 23.890625 
Q 32.328125 33.6875 34.8125 36.53125 
Q 39.546875 41.84375 41.421875 45.53125 
Q 43.3125 49.21875 43.3125 52.78125 
Q 43.3125 58.59375 39.234375 62.25 
Q 35.15625 65.921875 28.609375 65.921875 
Q 23.96875 65.921875 18.8125 64.3125 
Q 13.671875 62.703125 7.8125 59.421875 
L 7.8125 69.390625 
Q 13.765625 71.78125 18.9375 73 
Q 24.125 74.21875 28.421875 74.21875 
Q 39.75 74.21875 46.484375 68.546875 
Q 53.21875 62.890625 53.21875 53.421875 
Q 53.21875 48.921875 51.53125 44.890625 
Q 49.859375 40.875 45.40625 35.40625 
Q 44.1875 33.984375 37.640625 27.21875 
Q 31.109375 20.453125 19.1875 8.296875 
" id="BitstreamVeraSans-Roman-32"/>
      </defs>
      <g transform="translate(118.339803371 401.918125)scale(0.12 -0.12)">
       <use xlink:href="#BitstreamVeraSans-Roman-32"/>
      </g>
     </g>
    </g>
    <g id="xtick_3">
     <g id="line2d_7">
      <g>
       <use style="stroke:#000000;stroke-width:0.5;" x="172.314606742" xlink:href="#mbc6a6cdd60" y="388.8"/>
      </g>
     </g>
     <g id="line2d_8">
      <g>
       <use style="stroke:#000000;stroke-width:0.5;" x="172.314606742" xlink:href="#m2fb385ffd3" y="43.2"/>
      </g>
     </g>
     <g id="text_3">
      <!-- 3 -->
      <defs>
       <path d="M 40.578125 39.3125 
Q 47.65625 37.796875 51.625 33 
Q 55.609375 28.21875 55.609375 21.1875 
Q 55.609375 10.40625 48.1875 4.484375 
Q 40.765625 -1.421875 27.09375 -1.421875 
Q 22.515625 -1.421875 17.65625 -0.515625 
Q 12.796875 0.390625 7.625 2.203125 
L 7.625 11.71875 
Q 11.71875 9.328125 16.59375 8.109375 
Q 21.484375 6.890625 26.8125 6.890625 
Q 36.078125 6.890625 40.9375 10.546875 
Q 45.796875 14.203125 45.796875 21.1875 
Q 45.796875 27.640625 41.28125 31.265625 
Q 36.765625 34.90625 28.71875 34.90625 
L 20.21875 34.90625 
L 20.21875 43.015625 
L 29.109375 43.015625 
Q 36.375 43.015625 40.234375 45.921875 
Q 44.09375 48.828125 44.09375 54.296875 
Q 44.09375 59.90625 40.109375 62.90625 
Q 36.140625 65.921875 28.71875 65.921875 
Q 24.65625 65.921875 20.015625 65.03125 
Q 15.375 64.15625 9.8125 62.3125 
L 9.8125 71.09375 
Q 15.4375 72.65625 20.34375 73.4375 
Q 25.25 74.21875 29.59375 74.21875 
Q 40.828125 74.21875 47.359375 69.109375 
Q 53.90625 64.015625 53.90625 55.328125 
Q 53.90625 49.265625 50.4375 45.09375 
Q 46.96875 40.921875 40.578125 39.3125 
" id="BitstreamVeraSans-Roman-33"/>
      </defs>
      <g transform="translate(168.497106742 401.918125)scale(0.12 -0.12)">
       <use xlink:href="#BitstreamVeraSans-Roman-33"/>
      </g>
     </g>
    </g>
    <g id="xtick_4">
     <g id="line2d_9">
      <g>
       <use style="stroke:#000000;stroke-width:0.5;" x="222.471910112" xlink:href="#mbc6a6cdd60" y="388.8"/>
      </g>
     </g>
     <g id="line2d_10">
      <g>
       <use style="stroke:#000000;stroke-width:0.5;" x="222.471910112" xlink:href="#m2fb385ffd3" y="43.2"/>
      </g>
     </g>
     <g id="text_4">
      <!-- 4 -->
      <defs>
       <path d="M 37.796875 64.3125 
L 12.890625 25.390625 
L 37.796875 25.390625 
z
M 35.203125 72.90625 
L 47.609375 72.90625 
L 47.609375 25.390625 
L 58.015625 25.390625 
L 58.015625 17.1875 
L 47.609375 17.1875 
L 47.609375 0 
L 37.796875 0 
L 37.796875 17.1875 
L 4.890625 17.1875 
L 4.890625 26.703125 
z
" id="BitstreamVeraSans-Roman-34"/>
      </defs>
      <g transform="translate(218.654410112 401.918125)scale(0.12 -0.12)">
       <use xlink:href="#BitstreamVeraSans-Roman-34"/>
      </g>
     </g>
    </g>
    <g id="xtick_5">
     <g id="line2d_11">
      <g>
       <use style="stroke:#000000;stroke-width:0.5;" x="272.629213483" xlink:href="#mbc6a6cdd60" y="388.8"/>
      </g>
     </g>
     <g id="line2d_12">
      <g>
       <use style="stroke:#000000;stroke-width:0.5;" x="272.629213483" xlink:href="#m2fb385ffd3" y="43.2"/>
      </g>
     </g>
     <g id="text_5">
      <!-- 5 -->
      <defs>
       <path d="M 10.796875 72.90625 
L 49.515625 72.90625 
L 49.515625 64.59375 
L 19.828125 64.59375 
L 19.828125 46.734375 
Q 21.96875 47.46875 24.109375 47.828125 
Q 26.265625 48.1875 28.421875 48.1875 
Q 40.625 48.1875 47.75 41.5 
Q 54.890625 34.8125 54.890625 23.390625 
Q 54.890625 11.625 47.5625 5.09375 
Q 40.234375 -1.421875 26.90625 -1.421875 
Q 22.3125 -1.421875 17.546875 -0.640625 
Q 12.796875 0.140625 7.71875 1.703125 
L 7.71875 11.625 
Q 12.109375 9.234375 16.796875 8.0625 
Q 21.484375 6.890625 26.703125 6.890625 
Q 35.15625 6.890625 40.078125 11.328125 
Q 45.015625 15.765625 45.015625 23.390625 
Q 45.015625 31 40.078125 35.4375 
Q 35.15625 39.890625 26.703125 39.890625 
Q 22.75 39.890625 18.8125 39.015625 
Q 14.890625 38.140625 10.796875 36.28125 
z
" id="BitstreamVeraSans-Roman-35"/>
      </defs>
      <g transform="translate(268.811713483 401.918125)scale(0.12 -0.12)">
       <use xlink:href="#BitstreamVeraSans-Roman-35"/>
      </g>
     </g>
    </g>
    <g id="xtick_6">
     <g id="line2d_13">
      <g>
       <use style="stroke:#000000;stroke-width:0.5;" x="322.786516854" xlink:href="#mbc6a6cdd60" y="388.8"/>
      </g>
     </g>
     <g id="line2d_14">
      <g>
       <use style="stroke:#000000;stroke-width:0.5;" x="322.786516854" xlink:href="#m2fb385ffd3" y="43.2"/>
      </g>
     </g>
     <g id="text_6">
      <!-- 6 -->
      <defs>
       <path d="M 33.015625 40.375 
Q 26.375 40.375 22.484375 35.828125 
Q 18.609375 31.296875 18.609375 23.390625 
Q 18.609375 15.53125 22.484375 10.953125 
Q 26.375 6.390625 33.015625 6.390625 
Q 39.65625 6.390625 43.53125 10.953125 
Q 47.40625 15.53125 47.40625 23.390625 
Q 47.40625 31.296875 43.53125 35.828125 
Q 39.65625 40.375 33.015625 40.375 
M 52.59375 71.296875 
L 52.59375 62.3125 
Q 48.875 64.0625 45.09375 64.984375 
Q 41.3125 65.921875 37.59375 65.921875 
Q 27.828125 65.921875 22.671875 59.328125 
Q 17.53125 52.734375 16.796875 39.40625 
Q 19.671875 43.65625 24.015625 45.921875 
Q 28.375 48.1875 33.59375 48.1875 
Q 44.578125 48.1875 50.953125 41.515625 
Q 57.328125 34.859375 57.328125 23.390625 
Q 57.328125 12.15625 50.6875 5.359375 
Q 44.046875 -1.421875 33.015625 -1.421875 
Q 20.359375 -1.421875 13.671875 8.265625 
Q 6.984375 17.96875 6.984375 36.375 
Q 6.984375 53.65625 15.1875 63.9375 
Q 23.390625 74.21875 37.203125 74.21875 
Q 40.921875 74.21875 44.703125 73.484375 
Q 48.484375 72.75 52.59375 71.296875 
" id="BitstreamVeraSans-Roman-36"/>
      </defs>
      <g transform="translate(318.969016854 401.918125)scale(0.12 -0.12)">
       <use xlink:href="#BitstreamVeraSans-Roman-36"/>
      </g>
     </g>
    </g>
    <g id="xtick_7">
     <g id="line2d_15">
      <g>
       <use style="stroke:#000000;stroke-width:0.5;" x="372.943820225" xlink:href="#mbc6a6cdd60" y="388.8"/>
      </g>
     </g>
     <g id="line2d_16">
      <g>
       <use style="stroke:#000000;stroke-width:0.5;" x="372.943820225" xlink:href="#m2fb385ffd3" y="43.2"/>
      </g>
     </g>
     <g id="text_7">
      <!-- 7 -->
      <defs>
       <path d="M 8.203125 72.90625 
L 55.078125 72.90625 
L 55.078125 68.703125 
L 28.609375 0 
L 18.3125 0 
L 43.21875 64.59375 
L 8.203125 64.59375 
z
" id="BitstreamVeraSans-Roman-37"/>
      </defs>
      <g transform="translate(369.126320225 401.918125)scale(0.12 -0.12)">
       <use xlink:href="#BitstreamVeraSans-Roman-37"/>
      </g>
     </g>
    </g>
    <g id="xtick_8">
     <g id="line2d_17">
      <g>
       <use style="stroke:#000000;stroke-width:0.5;" x="423.101123596" xlink:href="#mbc6a6cdd60" y="388.8"/>
      </g>
     </g>
     <g id="line2d_18">
      <g>
       <use style="stroke:#000000;stroke-width:0.5;" x="423.101123596" xlink:href="#m2fb385ffd3" y="43.2"/>
      </g>
     </g>
     <g id="text_8">
      <!-- 8 -->
      <defs>
       <path d="M 31.78125 34.625 
Q 24.75 34.625 20.71875 30.859375 
Q 16.703125 27.09375 16.703125 20.515625 
Q 16.703125 13.921875 20.71875 10.15625 
Q 24.75 6.390625 31.78125 6.390625 
Q 38.8125 6.390625 42.859375 10.171875 
Q 46.921875 13.96875 46.921875 20.515625 
Q 46.921875 27.09375 42.890625 30.859375 
Q 38.875 34.625 31.78125 34.625 
M 21.921875 38.8125 
Q 15.578125 40.375 12.03125 44.71875 
Q 8.5 49.078125 8.5 55.328125 
Q 8.5 64.0625 14.71875 69.140625 
Q 20.953125 74.21875 31.78125 74.21875 
Q 42.671875 74.21875 48.875 69.140625 
Q 55.078125 64.0625 55.078125 55.328125 
Q 55.078125 49.078125 51.53125 44.71875 
Q 48 40.375 41.703125 38.8125 
Q 48.828125 37.15625 52.796875 32.3125 
Q 56.78125 27.484375 56.78125 20.515625 
Q 56.78125 9.90625 50.3125 4.234375 
Q 43.84375 -1.421875 31.78125 -1.421875 
Q 19.734375 -1.421875 13.25 4.234375 
Q 6.78125 9.90625 6.78125 20.515625 
Q 6.78125 27.484375 10.78125 32.3125 
Q 14.796875 37.15625 21.921875 38.8125 
M 18.3125 54.390625 
Q 18.3125 48.734375 21.84375 45.5625 
Q 25.390625 42.390625 31.78125 42.390625 
Q 38.140625 42.390625 41.71875 45.5625 
Q 45.3125 48.734375 45.3125 54.390625 
Q 45.3125 60.0625 41.71875 63.234375 
Q 38.140625 66.40625 31.78125 66.40625 
Q 25.390625 66.40625 21.84375 63.234375 
Q 18.3125 60.0625 18.3125 54.390625 
" id="BitstreamVeraSans-Roman-38"/>
      </defs>
      <g transform="translate(419.283623596 401.918125)scale(0.12 -0.12)">
       <use xlink:href="#BitstreamVeraSans-Roman-38"/>
      </g>
     </g>
    </g>
    <g id="xtick_9">
     <g id="line2d_19">
      <g>
       <use style="stroke:#000000;stroke-width:0.5;" x="473.258426966" xlink:href="#mbc6a6cdd60" y="388.8"/>
      </g>
     </g>
     <g id="line2d_20">
      <g>
       <use style="stroke:#000000;stroke-width:0.5;" x="473.258426966" xlink:href="#m2fb385ffd3" y="43.2"/>
      </g>
     </g>
     <g id="text_9">
      <!-- 9 -->
      <defs>
       <path d="M 10.984375 1.515625 
L 10.984375 10.5 
Q 14.703125 8.734375 18.5 7.8125 
Q 22.3125 6.890625 25.984375 6.890625 
Q 35.75 6.890625 40.890625 13.453125 
Q 46.046875 20.015625 46.78125 33.40625 
Q 43.953125 29.203125 39.59375 26.953125 
Q 35.25 24.703125 29.984375 24.703125 
Q 19.046875 24.703125 12.671875 31.3125 
Q 6.296875 37.9375 6.296875 49.421875 
Q 6.296875 60.640625 12.9375 67.421875 
Q 19.578125 74.21875 30.609375 74.21875 
Q 43.265625 74.21875 49.921875 64.515625 
Q 56.59375 54.828125 56.59375 36.375 
Q 56.59375 19.140625 48.40625 8.859375 
Q 40.234375 -1.421875 26.421875 -1.421875 
Q 22.703125 -1.421875 18.890625 -0.6875 
Q 15.09375 0.046875 10.984375 1.515625 
M 30.609375 32.421875 
Q 37.25 32.421875 41.125 36.953125 
Q 45.015625 41.5 45.015625 49.421875 
Q 45.015625 57.28125 41.125 61.84375 
Q 37.25 66.40625 30.609375 66.40625 
Q 23.96875 66.40625 20.09375 61.84375 
Q 16.21875 57.28125 16.21875 49.421875 
Q 16.21875 41.5 20.09375 36.953125 
Q 23.96875 32.421875 30.609375 32.421875 
" id="BitstreamVeraSans-Roman-39"/>
      </defs>
      <g transform="translate(469.440926966 401.918125)scale(0.12 -0.12)">
       <use xlink:href="#BitstreamVeraSans-Roman-39"/>
      </g>
     </g>
    </g>
    <g id="text_10">
     <!-- numbers -->
     <defs>
      <path d="M 54.890625 33.015625 
L 54.890625 0 
L 45.90625 0 
L 45.90625 32.71875 
Q 45.90625 40.484375 42.875 44.328125 
Q 39.84375 48.1875 33.796875 48.1875 
Q 26.515625 48.1875 22.3125 43.546875 
Q 18.109375 38.921875 18.109375 30.90625 
L 18.109375 0 
L 9.078125 0 
L 9.078125 54.6875 
L 18.109375 54.6875 
L 18.109375 46.1875 
Q 21.34375 51.125 25.703125 53.5625 
Q 30.078125 56 35.796875 56 
Q 45.21875 56 50.046875 50.171875 
Q 54.890625 44.34375 54.890625 33.015625 
" id="BitstreamVeraSans-Roman-6e"/>
      <path d="M 52 44.1875 
Q 55.375 50.25 60.0625 53.125 
Q 64.75 56 71.09375 56 
Q 79.640625 56 84.28125 50.015625 
Q 88.921875 44.046875 88.921875 33.015625 
L 88.921875 0 
L 79.890625 0 
L 79.890625 32.71875 
Q 79.890625 40.578125 77.09375 44.375 
Q 74.3125 48.1875 68.609375 48.1875 
Q 61.625 48.1875 57.5625 43.546875 
Q 53.515625 38.921875 53.515625 30.90625 
L 53.515625 0 
L 44.484375 0 
L 44.484375 32.71875 
Q 44.484375 40.625 41.703125 44.40625 
Q 38.921875 48.1875 33.109375 48.1875 
Q 26.21875 48.1875 22.15625 43.53125 
Q 18.109375 38.875 18.109375 30.90625 
L 18.109375 0 
L 9.078125 0 
L 9.078125 54.6875 
L 18.109375 54.6875 
L 18.109375 46.1875 
Q 21.1875 51.21875 25.484375 53.609375 
Q 29.78125 56 35.6875 56 
Q 41.65625 56 45.828125 52.96875 
Q 50 49.953125 52 44.1875 
" id="BitstreamVeraSans-Roman-6d"/>
      <path d="M 56.203125 29.59375 
L 56.203125 25.203125 
L 14.890625 25.203125 
Q 15.484375 15.921875 20.484375 11.0625 
Q 25.484375 6.203125 34.421875 6.203125 
Q 39.59375 6.203125 44.453125 7.46875 
Q 49.3125 8.734375 54.109375 11.28125 
L 54.109375 2.78125 
Q 49.265625 0.734375 44.1875 -0.34375 
Q 39.109375 -1.421875 33.890625 -1.421875 
Q 20.796875 -1.421875 13.15625 6.1875 
Q 5.515625 13.8125 5.515625 26.8125 
Q 5.515625 40.234375 12.765625 48.109375 
Q 20.015625 56 32.328125 56 
Q 43.359375 56 49.78125 48.890625 
Q 56.203125 41.796875 56.203125 29.59375 
M 47.21875 32.234375 
Q 47.125 39.59375 43.09375 43.984375 
Q 39.0625 48.390625 32.421875 48.390625 
Q 24.90625 48.390625 20.390625 44.140625 
Q 15.875 39.890625 15.1875 32.171875 
z
" id="BitstreamVeraSans-Roman-65"/>
      <path d="M 8.5 21.578125 
L 8.5 54.6875 
L 17.484375 54.6875 
L 17.484375 21.921875 
Q 17.484375 14.15625 20.5 10.265625 
Q 23.53125 6.390625 29.59375 6.390625 
Q 36.859375 6.390625 41.078125 11.03125 
Q 45.3125 15.671875 45.3125 23.6875 
L 45.3125 54.6875 
L 54.296875 54.6875 
L 54.296875 0 
L 45.3125 0 
L 45.3125 8.40625 
Q 42.046875 3.421875 37.71875 1 
Q 33.40625 -1.421875 27.6875 -1.421875 
Q 18.265625 -1.421875 13.375 4.4375 
Q 8.5 10.296875 8.5 21.578125 
" id="BitstreamVeraSans-Roman-75"/>
      <path d="M 41.109375 46.296875 
Q 39.59375 47.171875 37.8125 47.578125 
Q 36.03125 48 33.890625 48 
Q 26.265625 48 22.1875 43.046875 
Q 18.109375 38.09375 18.109375 28.8125 
L 18.109375 0 
L 9.078125 0 
L 9.078125 54.6875 
L 18.109375 54.6875 
L 18.109375 46.1875 
Q 20.953125 51.171875 25.484375 53.578125 
Q 30.03125 56 36.53125 56 
Q 37.453125 56 38.578125 55.875 
Q 39.703125 55.765625 41.0625 55.515625 
z
" id="BitstreamVeraSans-Roman-72"/>
      <path d="M 44.28125 53.078125 
L 44.28125 44.578125 
Q 40.484375 46.53125 36.375 47.5 
Q 32.28125 48.484375 27.875 48.484375 
Q 21.1875 48.484375 17.84375 46.4375 
Q 14.5 44.390625 14.5 40.28125 
Q 14.5 37.15625 16.890625 35.375 
Q 19.28125 33.59375 26.515625 31.984375 
L 29.59375 31.296875 
Q 39.15625 29.25 43.1875 25.515625 
Q 47.21875 21.78125 47.21875 15.09375 
Q 47.21875 7.46875 41.1875 3.015625 
Q 35.15625 -1.421875 24.609375 -1.421875 
Q 20.21875 -1.421875 15.453125 -0.5625 
Q 10.6875 0.296875 5.421875 2 
L 5.421875 11.28125 
Q 10.40625 8.6875 15.234375 7.390625 
Q 20.0625 6.109375 24.8125 6.109375 
Q 31.15625 6.109375 34.5625 8.28125 
Q 37.984375 10.453125 37.984375 14.40625 
Q 37.984375 18.0625 35.515625 20.015625 
Q 33.0625 21.96875 24.703125 23.78125 
L 21.578125 24.515625 
Q 13.234375 26.265625 9.515625 29.90625 
Q 5.8125 33.546875 5.8125 39.890625 
Q 5.8125 47.609375 11.28125 51.796875 
Q 16.75 56 26.8125 56 
Q 31.78125 56 36.171875 55.265625 
Q 40.578125 54.546875 44.28125 53.078125 
" id="BitstreamVeraSans-Roman-73"/>
      <path d="M 48.6875 27.296875 
Q 48.6875 37.203125 44.609375 42.84375 
Q 40.53125 48.484375 33.40625 48.484375 
Q 26.265625 48.484375 22.1875 42.84375 
Q 18.109375 37.203125 18.109375 27.296875 
Q 18.109375 17.390625 22.1875 11.75 
Q 26.265625 6.109375 33.40625 6.109375 
Q 40.53125 6.109375 44.609375 11.75 
Q 48.6875 17.390625 48.6875 27.296875 
M 18.109375 46.390625 
Q 20.953125 51.265625 25.265625 53.625 
Q 29.59375 56 35.59375 56 
Q 45.5625 56 51.78125 48.09375 
Q 58.015625 40.1875 58.015625 27.296875 
Q 58.015625 14.40625 51.78125 6.484375 
Q 45.5625 -1.421875 35.59375 -1.421875 
Q 29.59375 -1.421875 25.265625 0.953125 
Q 20.953125 3.328125 18.109375 8.203125 
L 18.109375 0 
L 9.078125 0 
L 9.078125 75.984375 
L 18.109375 75.984375 
z
" id="BitstreamVeraSans-Roman-62"/>
     </defs>
     <g transform="translate(268.6575 418.531875)scale(0.12 -0.12)">
      <use xlink:href="#BitstreamVeraSans-Roman-6e"/>
      <use x="63.37890625" xlink:href="#BitstreamVeraSans-Roman-75"/>
      <use x="126.7578125" xlink:href="#BitstreamVeraSans-Roman-6d"/>
      <use x="224.169921875" xlink:href="#BitstreamVeraSans-Roman-62"/>
      <use x="287.646484375" xlink:href="#BitstreamVeraSans-Roman-65"/>
      <use x="349.169921875" xlink:href="#BitstreamVeraSans-Roman-72"/>
      <use x="390.283203125" xlink:href="#BitstreamVeraSans-Roman-73"/>
     </g>
    </g>
   </g>
   <g id="matplotlib.axis_2">
    <g id="ytick_1">
     <g id="line2d_21">
      <defs>
       <path d="M 0 0 
L 4 0 
" id="mdaa2a5d02b" style="stroke:#000000;stroke-width:0.5;"/>
      </defs>
      <g>
       <use style="stroke:#000000;stroke-width:0.5;" x="72.0" xlink:href="#mdaa2a5d02b" y="333.125778779"/>
      </g>
     </g>
     <g id="line2d_22">
      <defs>
       <path d="M 0 0 
L -4 0 
" id="m37f05ad6b9" style="stroke:#000000;stroke-width:0.5;"/>
      </defs>
      <g>
       <use style="stroke:#000000;stroke-width:0.5;" x="518.4" xlink:href="#m37f05ad6b9" y="333.125778779"/>
      </g>
     </g>
     <g id="text_11">
      <!-- 0.90 -->
      <defs>
       <path d="M 31.78125 66.40625 
Q 24.171875 66.40625 20.328125 58.90625 
Q 16.5 51.421875 16.5 36.375 
Q 16.5 21.390625 20.328125 13.890625 
Q 24.171875 6.390625 31.78125 6.390625 
Q 39.453125 6.390625 43.28125 13.890625 
Q 47.125 21.390625 47.125 36.375 
Q 47.125 51.421875 43.28125 58.90625 
Q 39.453125 66.40625 31.78125 66.40625 
M 31.78125 74.21875 
Q 44.046875 74.21875 50.515625 64.515625 
Q 56.984375 54.828125 56.984375 36.375 
Q 56.984375 17.96875 50.515625 8.265625 
Q 44.046875 -1.421875 31.78125 -1.421875 
Q 19.53125 -1.421875 13.0625 8.265625 
Q 6.59375 17.96875 6.59375 36.375 
Q 6.59375 54.828125 13.0625 64.515625 
Q 19.53125 74.21875 31.78125 74.21875 
" id="BitstreamVeraSans-Roman-30"/>
       <path d="M 10.6875 12.40625 
L 21 12.40625 
L 21 0 
L 10.6875 0 
z
" id="BitstreamVeraSans-Roman-2e"/>
      </defs>
      <g transform="translate(41.28125 336.437028779)scale(0.12 -0.12)">
       <use xlink:href="#BitstreamVeraSans-Roman-30"/>
       <use x="63.623046875" xlink:href="#BitstreamVeraSans-Roman-2e"/>
       <use x="95.41015625" xlink:href="#BitstreamVeraSans-Roman-39"/>
       <use x="159.033203125" xlink:href="#BitstreamVeraSans-Roman-30"/>
      </g>
     </g>
    </g>
    <g id="ytick_2">
     <g id="line2d_23">
      <g>
       <use style="stroke:#000000;stroke-width:0.5;" x="72.0" xlink:href="#mdaa2a5d02b" y="275.140623023"/>
      </g>
     </g>
     <g id="line2d_24">
      <g>
       <use style="stroke:#000000;stroke-width:0.5;" x="518.4" xlink:href="#m37f05ad6b9" y="275.140623023"/>
      </g>
     </g>
     <g id="text_12">
      <!-- 0.92 -->
      <g transform="translate(41.28125 278.451873023)scale(0.12 -0.12)">
       <use xlink:href="#BitstreamVeraSans-Roman-30"/>
       <use x="63.623046875" xlink:href="#BitstreamVeraSans-Roman-2e"/>
       <use x="95.41015625" xlink:href="#BitstreamVeraSans-Roman-39"/>
       <use x="159.033203125" xlink:href="#BitstreamVeraSans-Roman-32"/>
      </g>
     </g>
    </g>
    <g id="ytick_3">
     <g id="line2d_25">
      <g>
       <use style="stroke:#000000;stroke-width:0.5;" x="72.0" xlink:href="#mdaa2a5d02b" y="217.155467267"/>
      </g>
     </g>
     <g id="line2d_26">
      <g>
       <use style="stroke:#000000;stroke-width:0.5;" x="518.4" xlink:href="#m37f05ad6b9" y="217.155467267"/>
      </g>
     </g>
     <g id="text_13">
      <!-- 0.94 -->
      <g transform="translate(41.28125 220.466717267)scale(0.12 -0.12)">
       <use xlink:href="#BitstreamVeraSans-Roman-30"/>
       <use x="63.623046875" xlink:href="#BitstreamVeraSans-Roman-2e"/>
       <use x="95.41015625" xlink:href="#BitstreamVeraSans-Roman-39"/>
       <use x="159.033203125" xlink:href="#BitstreamVeraSans-Roman-34"/>
      </g>
     </g>
    </g>
    <g id="ytick_4">
     <g id="line2d_27">
      <g>
       <use style="stroke:#000000;stroke-width:0.5;" x="72.0" xlink:href="#mdaa2a5d02b" y="159.170311511"/>
      </g>
     </g>
     <g id="line2d_28">
      <g>
       <use style="stroke:#000000;stroke-width:0.5;" x="518.4" xlink:href="#m37f05ad6b9" y="159.170311511"/>
      </g>
     </g>
     <g id="text_14">
      <!-- 0.96 -->
      <g transform="translate(41.28125 162.481561511)scale(0.12 -0.12)">
       <use xlink:href="#BitstreamVeraSans-Roman-30"/>
       <use x="63.623046875" xlink:href="#BitstreamVeraSans-Roman-2e"/>
       <use x="95.41015625" xlink:href="#BitstreamVeraSans-Roman-39"/>
       <use x="159.033203125" xlink:href="#BitstreamVeraSans-Roman-36"/>
      </g>
     </g>
    </g>
    <g id="ytick_5">
     <g id="line2d_29">
      <g>
       <use style="stroke:#000000;stroke-width:0.5;" x="72.0" xlink:href="#mdaa2a5d02b" y="101.185155756"/>
      </g>
     </g>
     <g id="line2d_30">
      <g>
       <use style="stroke:#000000;stroke-width:0.5;" x="518.4" xlink:href="#m37f05ad6b9" y="101.185155756"/>
      </g>
     </g>
     <g id="text_15">
      <!-- 0.98 -->
      <g transform="translate(41.28125 104.496405756)scale(0.12 -0.12)">
       <use xlink:href="#BitstreamVeraSans-Roman-30"/>
       <use x="63.623046875" xlink:href="#BitstreamVeraSans-Roman-2e"/>
       <use x="95.41015625" xlink:href="#BitstreamVeraSans-Roman-39"/>
       <use x="159.033203125" xlink:href="#BitstreamVeraSans-Roman-38"/>
      </g>
     </g>
    </g>
    <g id="ytick_6">
     <g id="text_16">
      <!-- 1.00 -->
      <g transform="translate(41.28125 46.5112499996)scale(0.12 -0.12)">
       <use xlink:href="#BitstreamVeraSans-Roman-31"/>
       <use x="63.623046875" xlink:href="#BitstreamVeraSans-Roman-2e"/>
       <use x="95.41015625" xlink:href="#BitstreamVeraSans-Roman-30"/>
       <use x="159.033203125" xlink:href="#BitstreamVeraSans-Roman-30"/>
      </g>
     </g>
    </g>
    <g id="text_17">
     <!-- functions -->
     <defs>
      <path d="M 18.3125 70.21875 
L 18.3125 54.6875 
L 36.8125 54.6875 
L 36.8125 47.703125 
L 18.3125 47.703125 
L 18.3125 18.015625 
Q 18.3125 11.328125 20.140625 9.421875 
Q 21.96875 7.515625 27.59375 7.515625 
L 36.8125 7.515625 
L 36.8125 0 
L 27.59375 0 
Q 17.1875 0 13.234375 3.875 
Q 9.28125 7.765625 9.28125 18.015625 
L 9.28125 47.703125 
L 2.6875 47.703125 
L 2.6875 54.6875 
L 9.28125 54.6875 
L 9.28125 70.21875 
z
" id="BitstreamVeraSans-Roman-74"/>
      <path d="M 37.109375 75.984375 
L 37.109375 68.5 
L 28.515625 68.5 
Q 23.6875 68.5 21.796875 66.546875 
Q 19.921875 64.59375 19.921875 59.515625 
L 19.921875 54.6875 
L 34.71875 54.6875 
L 34.71875 47.703125 
L 19.921875 47.703125 
L 19.921875 0 
L 10.890625 0 
L 10.890625 47.703125 
L 2.296875 47.703125 
L 2.296875 54.6875 
L 10.890625 54.6875 
L 10.890625 58.5 
Q 10.890625 67.625 15.140625 71.796875 
Q 19.390625 75.984375 28.609375 75.984375 
z
" id="BitstreamVeraSans-Roman-66"/>
      <path d="M 9.421875 54.6875 
L 18.40625 54.6875 
L 18.40625 0 
L 9.421875 0 
z
M 9.421875 75.984375 
L 18.40625 75.984375 
L 18.40625 64.59375 
L 9.421875 64.59375 
z
" id="BitstreamVeraSans-Roman-69"/>
      <path d="M 30.609375 48.390625 
Q 23.390625 48.390625 19.1875 42.75 
Q 14.984375 37.109375 14.984375 27.296875 
Q 14.984375 17.484375 19.15625 11.84375 
Q 23.34375 6.203125 30.609375 6.203125 
Q 37.796875 6.203125 41.984375 11.859375 
Q 46.1875 17.53125 46.1875 27.296875 
Q 46.1875 37.015625 41.984375 42.703125 
Q 37.796875 48.390625 30.609375 48.390625 
M 30.609375 56 
Q 42.328125 56 49.015625 48.375 
Q 55.71875 40.765625 55.71875 27.296875 
Q 55.71875 13.875 49.015625 6.21875 
Q 42.328125 -1.421875 30.609375 -1.421875 
Q 18.84375 -1.421875 12.171875 6.21875 
Q 5.515625 13.875 5.515625 27.296875 
Q 5.515625 40.765625 12.171875 48.375 
Q 18.84375 56 30.609375 56 
" id="BitstreamVeraSans-Roman-6f"/>
      <path d="M 48.78125 52.59375 
L 48.78125 44.1875 
Q 44.96875 46.296875 41.140625 47.34375 
Q 37.3125 48.390625 33.40625 48.390625 
Q 24.65625 48.390625 19.8125 42.84375 
Q 14.984375 37.3125 14.984375 27.296875 
Q 14.984375 17.28125 19.8125 11.734375 
Q 24.65625 6.203125 33.40625 6.203125 
Q 37.3125 6.203125 41.140625 7.25 
Q 44.96875 8.296875 48.78125 10.40625 
L 48.78125 2.09375 
Q 45.015625 0.34375 40.984375 -0.53125 
Q 36.96875 -1.421875 32.421875 -1.421875 
Q 20.0625 -1.421875 12.78125 6.34375 
Q 5.515625 14.109375 5.515625 27.296875 
Q 5.515625 40.671875 12.859375 48.328125 
Q 20.21875 56 33.015625 56 
Q 37.15625 56 41.109375 55.140625 
Q 45.0625 54.296875 48.78125 52.59375 
" id="BitstreamVeraSans-Roman-63"/>
     </defs>
     <g transform="translate(33.785625 243.6346875)rotate(-90.0)scale(0.12 -0.12)">
      <use xlink:href="#BitstreamVeraSans-Roman-66"/>
      <use x="35.205078125" xlink:href="#BitstreamVeraSans-Roman-75"/>
      <use x="98.583984375" xlink:href="#BitstreamVeraSans-Roman-6e"/>
      <use x="161.962890625" xlink:href="#BitstreamVeraSans-Roman-63"/>
      <use x="216.943359375" xlink:href="#BitstreamVeraSans-Roman-74"/>
      <use x="256.15234375" xlink:href="#BitstreamVeraSans-Roman-69"/>
      <use x="283.935546875" xlink:href="#BitstreamVeraSans-Roman-6f"/>
      <use x="345.1171875" xlink:href="#BitstreamVeraSans-Roman-6e"/>
      <use x="408.49609375" xlink:href="#BitstreamVeraSans-Roman-73"/>
     </g>
    </g>
   </g>
   <g id="text_18">
    <!-- Automated plotting from matplotlib: different functions -->
    <defs>
     <path id="BitstreamVeraSans-Roman-20"/>
     <path d="M 9.421875 75.984375 
L 18.40625 75.984375 
L 18.40625 0 
L 9.421875 0 
z
" id="BitstreamVeraSans-Roman-6c"/>
     <path d="M 11.71875 12.40625 
L 22.015625 12.40625 
L 22.015625 0 
L 11.71875 0 
z
M 11.71875 51.703125 
L 22.015625 51.703125 
L 22.015625 39.3125 
L 11.71875 39.3125 
z
" id="BitstreamVeraSans-Roman-3a"/>
     <path d="M 34.1875 63.1875 
L 20.796875 26.90625 
L 47.609375 26.90625 
z
M 28.609375 72.90625 
L 39.796875 72.90625 
L 67.578125 0 
L 57.328125 0 
L 50.6875 18.703125 
L 17.828125 18.703125 
L 11.1875 0 
L 0.78125 0 
z
" id="BitstreamVeraSans-Roman-41"/>
     <path d="M 45.40625 46.390625 
L 45.40625 75.984375 
L 54.390625 75.984375 
L 54.390625 0 
L 45.40625 0 
L 45.40625 8.203125 
Q 42.578125 3.328125 38.25 0.953125 
Q 33.9375 -1.421875 27.875 -1.421875 
Q 17.96875 -1.421875 11.734375 6.484375 
Q 5.515625 14.40625 5.515625 27.296875 
Q 5.515625 40.1875 11.734375 48.09375 
Q 17.96875 56 27.875 56 
Q 33.9375 56 38.25 53.625 
Q 42.578125 51.265625 45.40625 46.390625 
M 14.796875 27.296875 
Q 14.796875 17.390625 18.875 11.75 
Q 22.953125 6.109375 30.078125 6.109375 
Q 37.203125 6.109375 41.296875 11.75 
Q 45.40625 17.390625 45.40625 27.296875 
Q 45.40625 37.203125 41.296875 42.84375 
Q 37.203125 48.484375 30.078125 48.484375 
Q 22.953125 48.484375 18.875 42.84375 
Q 14.796875 37.203125 14.796875 27.296875 
" id="BitstreamVeraSans-Roman-64"/>
     <path d="M 45.40625 27.984375 
Q 45.40625 37.75 41.375 43.109375 
Q 37.359375 48.484375 30.078125 48.484375 
Q 22.859375 48.484375 18.828125 43.109375 
Q 14.796875 37.75 14.796875 27.984375 
Q 14.796875 18.265625 18.828125 12.890625 
Q 22.859375 7.515625 30.078125 7.515625 
Q 37.359375 7.515625 41.375 12.890625 
Q 45.40625 18.265625 45.40625 27.984375 
M 54.390625 6.78125 
Q 54.390625 -7.171875 48.1875 -13.984375 
Q 42 -20.796875 29.203125 -20.796875 
Q 24.46875 -20.796875 20.265625 -20.09375 
Q 16.0625 -19.390625 12.109375 -17.921875 
L 12.109375 -9.1875 
Q 16.0625 -11.328125 19.921875 -12.34375 
Q 23.78125 -13.375 27.78125 -13.375 
Q 36.625 -13.375 41.015625 -8.765625 
Q 45.40625 -4.15625 45.40625 5.171875 
L 45.40625 9.625 
Q 42.625 4.78125 38.28125 2.390625 
Q 33.9375 0 27.875 0 
Q 17.828125 0 11.671875 7.65625 
Q 5.515625 15.328125 5.515625 27.984375 
Q 5.515625 40.671875 11.671875 48.328125 
Q 17.828125 56 27.875 56 
Q 33.9375 56 38.28125 53.609375 
Q 42.625 51.21875 45.40625 46.390625 
L 45.40625 54.6875 
L 54.390625 54.6875 
z
" id="BitstreamVeraSans-Roman-67"/>
     <path d="M 34.28125 27.484375 
Q 23.390625 27.484375 19.1875 25 
Q 14.984375 22.515625 14.984375 16.5 
Q 14.984375 11.71875 18.140625 8.90625 
Q 21.296875 6.109375 26.703125 6.109375 
Q 34.1875 6.109375 38.703125 11.40625 
Q 43.21875 16.703125 43.21875 25.484375 
L 43.21875 27.484375 
z
M 52.203125 31.203125 
L 52.203125 0 
L 43.21875 0 
L 43.21875 8.296875 
Q 40.140625 3.328125 35.546875 0.953125 
Q 30.953125 -1.421875 24.3125 -1.421875 
Q 15.921875 -1.421875 10.953125 3.296875 
Q 6 8.015625 6 15.921875 
Q 6 25.140625 12.171875 29.828125 
Q 18.359375 34.515625 30.609375 34.515625 
L 43.21875 34.515625 
L 43.21875 35.40625 
Q 43.21875 41.609375 39.140625 45 
Q 35.0625 48.390625 27.6875 48.390625 
Q 23 48.390625 18.546875 47.265625 
Q 14.109375 46.140625 10.015625 43.890625 
L 10.015625 52.203125 
Q 14.9375 54.109375 19.578125 55.046875 
Q 24.21875 56 28.609375 56 
Q 40.484375 56 46.34375 49.84375 
Q 52.203125 43.703125 52.203125 31.203125 
" id="BitstreamVeraSans-Roman-61"/>
     <path d="M 18.109375 8.203125 
L 18.109375 -20.796875 
L 9.078125 -20.796875 
L 9.078125 54.6875 
L 18.109375 54.6875 
L 18.109375 46.390625 
Q 20.953125 51.265625 25.265625 53.625 
Q 29.59375 56 35.59375 56 
Q 45.5625 56 51.78125 48.09375 
Q 58.015625 40.1875 58.015625 27.296875 
Q 58.015625 14.40625 51.78125 6.484375 
Q 45.5625 -1.421875 35.59375 -1.421875 
Q 29.59375 -1.421875 25.265625 0.953125 
Q 20.953125 3.328125 18.109375 8.203125 
M 48.6875 27.296875 
Q 48.6875 37.203125 44.609375 42.84375 
Q 40.53125 48.484375 33.40625 48.484375 
Q 26.265625 48.484375 22.1875 42.84375 
Q 18.109375 37.203125 18.109375 27.296875 
Q 18.109375 17.390625 22.1875 11.75 
Q 26.265625 6.109375 33.40625 6.109375 
Q 40.53125 6.109375 44.609375 11.75 
Q 48.6875 17.390625 48.6875 27.296875 
" id="BitstreamVeraSans-Roman-70"/>
    </defs>
    <g transform="translate(96.076125 38.2)scale(0.144 -0.144)">
     <use xlink:href="#BitstreamVeraSans-Roman-41"/>
     <use x="68.408203125" xlink:href="#BitstreamVeraSans-Roman-75"/>
     <use x="131.787109375" xlink:href="#BitstreamVeraSans-Roman-74"/>
     <use x="170.99609375" xlink:href="#BitstreamVeraSans-Roman-6f"/>
     <use x="232.177734375" xlink:href="#BitstreamVeraSans-Roman-6d"/>
     <use x="329.58984375" xlink:href="#BitstreamVeraSans-Roman-61"/>
     <use x="390.869140625" xlink:href="#BitstreamVeraSans-Roman-74"/>
     <use x="430.078125" xlink:href="#BitstreamVeraSans-Roman-65"/>
     <use x="491.6015625" xlink:href="#BitstreamVeraSans-Roman-64"/>
     <use x="555.078125" xlink:href="#BitstreamVeraSans-Roman-20"/>
     <use x="586.865234375" xlink:href="#BitstreamVeraSans-Roman-70"/>
     <use x="650.341796875" xlink:href="#BitstreamVeraSans-Roman-6c"/>
     <use x="678.125" xlink:href="#BitstreamVeraSans-Roman-6f"/>
     <use x="739.306640625" xlink:href="#BitstreamVeraSans-Roman-74"/>
     <use x="778.515625" xlink:href="#BitstreamVeraSans-Roman-74"/>
     <use x="817.724609375" xlink:href="#BitstreamVeraSans-Roman-69"/>
     <use x="845.5078125" xlink:href="#BitstreamVeraSans-Roman-6e"/>
     <use x="908.88671875" xlink:href="#BitstreamVeraSans-Roman-67"/>
     <use x="972.36328125" xlink:href="#BitstreamVeraSans-Roman-20"/>
     <use x="1004.15039062" xlink:href="#BitstreamVeraSans-Roman-66"/>
     <use x="1039.35546875" xlink:href="#BitstreamVeraSans-Roman-72"/>
     <use x="1080.4375" xlink:href="#BitstreamVeraSans-Roman-6f"/>
     <use x="1141.61914062" xlink:href="#BitstreamVeraSans-Roman-6d"/>
     <use x="1239.03125" xlink:href="#BitstreamVeraSans-Roman-20"/>
     <use x="1270.81835938" xlink:href="#BitstreamVeraSans-Roman-6d"/>
     <use x="1368.23046875" xlink:href="#BitstreamVeraSans-Roman-61"/>
     <use x="1429.50976562" xlink:href="#BitstreamVeraSans-Roman-74"/>
     <use x="1468.71875" xlink:href="#BitstreamVeraSans-Roman-70"/>
     <use x="1532.1953125" xlink:href="#BitstreamVeraSans-Roman-6c"/>
     <use x="1559.97851562" xlink:href="#BitstreamVeraSans-Roman-6f"/>
     <use x="1621.16015625" xlink:href="#BitstreamVeraSans-Roman-74"/>
     <use x="1660.36914062" xlink:href="#BitstreamVeraSans-Roman-6c"/>
     <use x="1688.15234375" xlink:href="#BitstreamVeraSans-Roman-69"/>
     <use x="1715.93554688" xlink:href="#BitstreamVeraSans-Roman-62"/>
     <use x="1779.41210938" xlink:href="#BitstreamVeraSans-Roman-3a"/>
     <use x="1813.10351562" xlink:href="#BitstreamVeraSans-Roman-20"/>
     <use x="1844.890625" xlink:href="#BitstreamVeraSans-Roman-64"/>
     <use x="1908.3671875" xlink:href="#BitstreamVeraSans-Roman-69"/>
     <use x="1936.15039062" xlink:href="#BitstreamVeraSans-Roman-66"/>
     <use x="1971.35546875" xlink:href="#BitstreamVeraSans-Roman-66"/>
     <use x="2006.56054688" xlink:href="#BitstreamVeraSans-Roman-65"/>
     <use x="2068.08398438" xlink:href="#BitstreamVeraSans-Roman-72"/>
     <use x="2109.16601562" xlink:href="#BitstreamVeraSans-Roman-65"/>
     <use x="2170.68945312" xlink:href="#BitstreamVeraSans-Roman-6e"/>
     <use x="2234.06835938" xlink:href="#BitstreamVeraSans-Roman-74"/>
     <use x="2273.27734375" xlink:href="#BitstreamVeraSans-Roman-20"/>
     <use x="2305.06445312" xlink:href="#BitstreamVeraSans-Roman-66"/>
     <use x="2340.26953125" xlink:href="#BitstreamVeraSans-Roman-75"/>
     <use x="2403.6484375" xlink:href="#BitstreamVeraSans-Roman-6e"/>
     <use x="2467.02734375" xlink:href="#BitstreamVeraSans-Roman-63"/>
     <use x="2522.0078125" xlink:href="#BitstreamVeraSans-Roman-74"/>
     <use x="2561.21679688" xlink:href="#BitstreamVeraSans-Roman-69"/>
     <use x="2589.0" xlink:href="#BitstreamVeraSans-Roman-6f"/>
     <use x="2650.18164062" xlink:href="#BitstreamVeraSans-Roman-6e"/>
     <use x="2713.56054688" xlink:href="#BitstreamVeraSans-Roman-73"/>
    </g>
   </g>
   <g id="legend_1">
    <g id="patch_7">
     <path d="M 79.2 97.3935 
L 452.55825 97.3935 
L 452.55825 50.4 
L 79.2 50.4 
z
" style="fill:#ffffff;stroke:#000000;stroke-linejoin:miter;"/>
    </g>
    <g id="line2d_31">
     <path d="M 89.28 62.06175 
L 109.44 62.06175 
" style="fill:none;stroke:#da70d6;stroke-dasharray:6.000000,6.000000;stroke-dashoffset:0.0;"/>
    </g>
    <g id="line2d_32">
     <g>
      <use style="fill:none;stroke:#da70d6;stroke-linejoin:miter;stroke-width:0.5;" x="89.28" xlink:href="#m18c224afab" y="62.06175"/>
      <use style="fill:none;stroke:#da70d6;stroke-linejoin:miter;stroke-width:0.5;" x="109.44" xlink:href="#m18c224afab" y="62.06175"/>
     </g>
    </g>
    <g id="text_19">
     <!-- logisticgrowth1-square-orchid -->
     <defs>
      <path d="M 4.203125 54.6875 
L 13.1875 54.6875 
L 24.421875 12.015625 
L 35.59375 54.6875 
L 46.1875 54.6875 
L 57.421875 12.015625 
L 68.609375 54.6875 
L 77.59375 54.6875 
L 63.28125 0 
L 52.6875 0 
L 40.921875 44.828125 
L 29.109375 0 
L 18.5 0 
z
" id="BitstreamVeraSans-Roman-77"/>
      <path d="M 14.796875 27.296875 
Q 14.796875 17.390625 18.875 11.75 
Q 22.953125 6.109375 30.078125 6.109375 
Q 37.203125 6.109375 41.296875 11.75 
Q 45.40625 17.390625 45.40625 27.296875 
Q 45.40625 37.203125 41.296875 42.84375 
Q 37.203125 48.484375 30.078125 48.484375 
Q 22.953125 48.484375 18.875 42.84375 
Q 14.796875 37.203125 14.796875 27.296875 
M 45.40625 8.203125 
Q 42.578125 3.328125 38.25 0.953125 
Q 33.9375 -1.421875 27.875 -1.421875 
Q 17.96875 -1.421875 11.734375 6.484375 
Q 5.515625 14.40625 5.515625 27.296875 
Q 5.515625 40.1875 11.734375 48.09375 
Q 17.96875 56 27.875 56 
Q 33.9375 56 38.25 53.625 
Q 42.578125 51.265625 45.40625 46.390625 
L 45.40625 54.6875 
L 54.390625 54.6875 
L 54.390625 -20.796875 
L 45.40625 -20.796875 
z
" id="BitstreamVeraSans-Roman-71"/>
      <path d="M 54.890625 33.015625 
L 54.890625 0 
L 45.90625 0 
L 45.90625 32.71875 
Q 45.90625 40.484375 42.875 44.328125 
Q 39.84375 48.1875 33.796875 48.1875 
Q 26.515625 48.1875 22.3125 43.546875 
Q 18.109375 38.921875 18.109375 30.90625 
L 18.109375 0 
L 9.078125 0 
L 9.078125 75.984375 
L 18.109375 75.984375 
L 18.109375 46.1875 
Q 21.34375 51.125 25.703125 53.5625 
Q 30.078125 56 35.796875 56 
Q 45.21875 56 50.046875 50.171875 
Q 54.890625 44.34375 54.890625 33.015625 
" id="BitstreamVeraSans-Roman-68"/>
      <path d="M 4.890625 31.390625 
L 31.203125 31.390625 
L 31.203125 23.390625 
L 4.890625 23.390625 
z
" id="BitstreamVeraSans-Roman-2d"/>
     </defs>
     <g transform="translate(125.28 67.10175)scale(0.144 -0.144)">
      <use xlink:href="#BitstreamVeraSans-Roman-6c"/>
      <use x="27.783203125" xlink:href="#BitstreamVeraSans-Roman-6f"/>
      <use x="88.96484375" xlink:href="#BitstreamVeraSans-Roman-67"/>
      <use x="152.44140625" xlink:href="#BitstreamVeraSans-Roman-69"/>
      <use x="180.224609375" xlink:href="#BitstreamVeraSans-Roman-73"/>
      <use x="232.32421875" xlink:href="#BitstreamVeraSans-Roman-74"/>
      <use x="271.533203125" xlink:href="#BitstreamVeraSans-Roman-69"/>
      <use x="299.31640625" xlink:href="#BitstreamVeraSans-Roman-63"/>
      <use x="354.296875" xlink:href="#BitstreamVeraSans-Roman-67"/>
      <use x="417.7734375" xlink:href="#BitstreamVeraSans-Roman-72"/>
      <use x="458.85546875" xlink:href="#BitstreamVeraSans-Roman-6f"/>
      <use x="520.037109375" xlink:href="#BitstreamVeraSans-Roman-77"/>
      <use x="601.82421875" xlink:href="#BitstreamVeraSans-Roman-74"/>
      <use x="641.033203125" xlink:href="#BitstreamVeraSans-Roman-68"/>
      <use x="704.412109375" xlink:href="#BitstreamVeraSans-Roman-31"/>
      <use x="768.03515625" xlink:href="#BitstreamVeraSans-Roman-2d"/>
      <use x="804.119140625" xlink:href="#BitstreamVeraSans-Roman-73"/>
      <use x="856.21875" xlink:href="#BitstreamVeraSans-Roman-71"/>
      <use x="919.6953125" xlink:href="#BitstreamVeraSans-Roman-75"/>
      <use x="983.07421875" xlink:href="#BitstreamVeraSans-Roman-61"/>
      <use x="1044.35351562" xlink:href="#BitstreamVeraSans-Roman-72"/>
      <use x="1085.43554688" xlink:href="#BitstreamVeraSans-Roman-65"/>
      <use x="1146.95898438" xlink:href="#BitstreamVeraSans-Roman-2d"/>
      <use x="1183.05859375" xlink:href="#BitstreamVeraSans-Roman-6f"/>
      <use x="1244.24023438" xlink:href="#BitstreamVeraSans-Roman-72"/>
      <use x="1285.32226562" xlink:href="#BitstreamVeraSans-Roman-63"/>
      <use x="1340.30273438" xlink:href="#BitstreamVeraSans-Roman-68"/>
      <use x="1403.68164062" xlink:href="#BitstreamVeraSans-Roman-69"/>
      <use x="1431.46484375" xlink:href="#BitstreamVeraSans-Roman-64"/>
     </g>
    </g>
    <g id="line2d_33">
     <path d="M 89.28 83.19825 
L 109.44 83.19825 
" style="fill:none;stroke:#afeeee;stroke-dasharray:6.000000,6.000000;stroke-dashoffset:0.0;"/>
    </g>
    <g id="line2d_34">
     <g>
      <use style="fill:none;stroke:#afeeee;stroke-linejoin:miter;stroke-width:0.5;" x="89.28" xlink:href="#m39311ebddd" y="83.19825"/>
      <use style="fill:none;stroke:#afeeee;stroke-linejoin:miter;stroke-width:0.5;" x="109.44" xlink:href="#m39311ebddd" y="83.19825"/>
     </g>
    </g>
    <g id="text_20">
     <!-- logisticgrowth2-triangle_down-paleturquoise -->
     <defs>
      <path d="M 50.984375 -16.609375 
L 50.984375 -23.578125 
L -0.984375 -23.578125 
L -0.984375 -16.609375 
z
" id="BitstreamVeraSans-Roman-5f"/>
     </defs>
     <g transform="translate(125.28 88.23825)scale(0.144 -0.144)">
      <use xlink:href="#BitstreamVeraSans-Roman-6c"/>
      <use x="27.783203125" xlink:href="#BitstreamVeraSans-Roman-6f"/>
      <use x="88.96484375" xlink:href="#BitstreamVeraSans-Roman-67"/>
      <use x="152.44140625" xlink:href="#BitstreamVeraSans-Roman-69"/>
      <use x="180.224609375" xlink:href="#BitstreamVeraSans-Roman-73"/>
      <use x="232.32421875" xlink:href="#BitstreamVeraSans-Roman-74"/>
      <use x="271.533203125" xlink:href="#BitstreamVeraSans-Roman-69"/>
      <use x="299.31640625" xlink:href="#BitstreamVeraSans-Roman-63"/>
      <use x="354.296875" xlink:href="#BitstreamVeraSans-Roman-67"/>
      <use x="417.7734375" xlink:href="#BitstreamVeraSans-Roman-72"/>
      <use x="458.85546875" xlink:href="#BitstreamVeraSans-Roman-6f"/>
      <use x="520.037109375" xlink:href="#BitstreamVeraSans-Roman-77"/>
      <use x="601.82421875" xlink:href="#BitstreamVeraSans-Roman-74"/>
      <use x="641.033203125" xlink:href="#BitstreamVeraSans-Roman-68"/>
      <use x="704.412109375" xlink:href="#BitstreamVeraSans-Roman-32"/>
      <use x="768.03515625" xlink:href="#BitstreamVeraSans-Roman-2d"/>
      <use x="804.119140625" xlink:href="#BitstreamVeraSans-Roman-74"/>
      <use x="843.328125" xlink:href="#BitstreamVeraSans-Roman-72"/>
      <use x="884.44140625" xlink:href="#BitstreamVeraSans-Roman-69"/>
      <use x="912.224609375" xlink:href="#BitstreamVeraSans-Roman-61"/>
      <use x="973.50390625" xlink:href="#BitstreamVeraSans-Roman-6e"/>
      <use x="1036.8828125" xlink:href="#BitstreamVeraSans-Roman-67"/>
      <use x="1100.359375" xlink:href="#BitstreamVeraSans-Roman-6c"/>
      <use x="1128.14257812" xlink:href="#BitstreamVeraSans-Roman-65"/>
      <use x="1189.66601562" xlink:href="#BitstreamVeraSans-Roman-5f"/>
      <use x="1239.66601562" xlink:href="#BitstreamVeraSans-Roman-64"/>
      <use x="1303.14257812" xlink:href="#BitstreamVeraSans-Roman-6f"/>
      <use x="1364.32421875" xlink:href="#BitstreamVeraSans-Roman-77"/>
      <use x="1446.11132812" xlink:href="#BitstreamVeraSans-Roman-6e"/>
      <use x="1509.49023438" xlink:href="#BitstreamVeraSans-Roman-2d"/>
      <use x="1545.57421875" xlink:href="#BitstreamVeraSans-Roman-70"/>
      <use x="1609.05078125" xlink:href="#BitstreamVeraSans-Roman-61"/>
      <use x="1670.33007812" xlink:href="#BitstreamVeraSans-Roman-6c"/>
      <use x="1698.11328125" xlink:href="#BitstreamVeraSans-Roman-65"/>
      <use x="1759.63671875" xlink:href="#BitstreamVeraSans-Roman-74"/>
      <use x="1798.84570312" xlink:href="#BitstreamVeraSans-Roman-75"/>
      <use x="1862.22460938" xlink:href="#BitstreamVeraSans-Roman-72"/>
      <use x="1903.32226562" xlink:href="#BitstreamVeraSans-Roman-71"/>
      <use x="1966.79882812" xlink:href="#BitstreamVeraSans-Roman-75"/>
      <use x="2030.17773438" xlink:href="#BitstreamVeraSans-Roman-6f"/>
      <use x="2091.359375" xlink:href="#BitstreamVeraSans-Roman-69"/>
      <use x="2119.14257812" xlink:href="#BitstreamVeraSans-Roman-73"/>
      <use x="2171.2421875" xlink:href="#BitstreamVeraSans-Roman-65"/>
     </g>
    </g>
   </g>
  </g>
 </g>
 <defs>
  <clipPath id="p3754045360">
   <rect height="345.6" width="446.4" x="72.0" y="43.2"/>
  </clipPath>
 </defs>
</svg>
