<?xml version="1.0" standalone="no"?>

<svg height="345pt" width="460pt" version="1.1" xmlns="http://www.w3.org/2000/svg">

<path d="M 57.6,295.488 L 414.72,295.488" id="noID18" style="fill:none;fill-rule:nonzero;fill-opacity:1;stroke:#b0b0b0;stroke-width:0.8;stroke-linecap:square;stroke-linejoin:miter;stroke-miterlimit:4;stroke-dasharray:none;stroke-dashoffset:0;stroke-opacity:1" transform="matrix(1.0,0.0,0.0,1.0,0.0,0.0)" xmlns="http://www.w3.org/2000/svg" xmlns:svg="http://www.w3.org/2000/svg"/>
<path d="M 57.6,114.048 L 414.72,114.048" id="noID18" style="fill:none;fill-rule:nonzero;fill-opacity:1;stroke:#b0b0b0;stroke-width:0.8;stroke-linecap:square;stroke-linejoin:miter;stroke-miterlimit:4;stroke-dasharray:none;stroke-dashoffset:0;stroke-opacity:1" transform="matrix(1.0,0.0,0.0,1.0,0.0,0.0)" xmlns="http://www.w3.org/2000/svg" xmlns:svg="http://www.w3.org/2000/svg"/>
<path d="M 139.419504,307.584 L 139.419504,41.472" id="noID18" style="fill:none;fill-rule:nonzero;fill-opacity:1;stroke:#b0b0b0;stroke-width:0.8;stroke-linecap:square;stroke-linejoin:miter;stroke-miterlimit:4;stroke-dasharray:none;stroke-dashoffset:0;stroke-opacity:1" transform="matrix(1.0,0.0,0.0,1.0,0.0,0.0)" xmlns="http://www.w3.org/2000/svg" xmlns:svg="http://www.w3.org/2000/svg"/>
<path d="M 336.179835,307.584 L 336.179835,41.472" id="noID18" style="fill:none;fill-rule:nonzero;fill-opacity:1;stroke:#b0b0b0;stroke-width:0.8;stroke-linecap:square;stroke-linejoin:miter;stroke-miterlimit:4;stroke-dasharray:none;stroke-dashoffset:0;stroke-opacity:1" transform="matrix(1.0,0.0,0.0,1.0,0.0,0.0)" xmlns="http://www.w3.org/2000/svg" xmlns:svg="http://www.w3.org/2000/svg"/>
<path d="M 73.832727,174.528 L 77.112066,166.932859" id="noID14" style="fill:none;fill-rule:nonzero;fill-opacity:1;stroke:#1f77b4;stroke-width:1.5;stroke-linecap:square;stroke-linejoin:miter;stroke-miterlimit:4;stroke-dasharray:none;stroke-dashoffset:0;stroke-opacity:1" transform="matrix(1.0,0.0,0.0,1.0,0.0,0.0)" xmlns="http://www.w3.org/2000/svg" xmlns:svg="http://www.w3.org/2000/svg"/>
<path d="M 77.112066,166.932859 L 80.391405,159.367692" id="noID14" style="fill:none;fill-rule:nonzero;fill-opacity:1;stroke:#1f77b4;stroke-width:1.5;stroke-linecap:square;stroke-linejoin:miter;stroke-miterlimit:4;stroke-dasharray:none;stroke-dashoffset:0;stroke-opacity:1" transform="matrix(1.0,0.0,0.0,1.0,0.0,0.0)" xmlns="http://www.w3.org/2000/svg" xmlns:svg="http://www.w3.org/2000/svg"/>
<path d="M 80.391405,159.367692 L 83.670744,151.862356" id="noID14" style="fill:none;fill-rule:nonzero;fill-opacity:1;stroke:#1f77b4;stroke-width:1.5;stroke-linecap:square;stroke-linejoin:miter;stroke-miterlimit:4;stroke-dasharray:none;stroke-dashoffset:0;stroke-opacity:1" transform="matrix(1.0,0.0,0.0,1.0,0.0,0.0)" xmlns="http://www.w3.org/2000/svg" xmlns:svg="http://www.w3.org/2000/svg"/>
<path d="M 83.670744,151.862356 L 86.950083,144.446471" id="noID14" style="fill:none;fill-rule:nonzero;fill-opacity:1;stroke:#1f77b4;stroke-width:1.5;stroke-linecap:square;stroke-linejoin:miter;stroke-miterlimit:4;stroke-dasharray:none;stroke-dashoffset:0;stroke-opacity:1" transform="matrix(1.0,0.0,0.0,1.0,0.0,0.0)" xmlns="http://www.w3.org/2000/svg" xmlns:svg="http://www.w3.org/2000/svg"/>
<path d="M 86.950083,144.446471 L 90.229421,137.149304" id="noID14" style="fill:none;fill-rule:nonzero;fill-opacity:1;stroke:#1f77b4;stroke-width:1.5;stroke-linecap:square;stroke-linejoin:miter;stroke-miterlimit:4;stroke-dasharray:none;stroke-dashoffset:0;stroke-opacity:1" transform="matrix(1.0,0.0,0.0,1.0,0.0,0.0)" xmlns="http://www.w3.org/2000/svg" xmlns:svg="http://www.w3.org/2000/svg"/>
<path d="M 90.229421,137.149304 L 93.50876,129.999654" id="noID14" style="fill:none;fill-rule:nonzero;fill-opacity:1;stroke:#1f77b4;stroke-width:1.5;stroke-linecap:square;stroke-linejoin:miter;stroke-miterlimit:4;stroke-dasharray:none;stroke-dashoffset:0;stroke-opacity:1" transform="matrix(1.0,0.0,0.0,1.0,0.0,0.0)" xmlns="http://www.w3.org/2000/svg" xmlns:svg="http://www.w3.org/2000/svg"/>
<path d="M 93.50876,129.999654 L 96.788099,123.025737" id="noID14" style="fill:none;fill-rule:nonzero;fill-opacity:1;stroke:#1f77b4;stroke-width:1.5;stroke-linecap:square;stroke-linejoin:miter;stroke-miterlimit:4;stroke-dasharray:none;stroke-dashoffset:0;stroke-opacity:1" transform="matrix(1.0,0.0,0.0,1.0,0.0,0.0)" xmlns="http://www.w3.org/2000/svg" xmlns:svg="http://www.w3.org/2000/svg"/>
<path d="M 96.788099,123.025737 L 100.067438,116.255076" id="noID14" style="fill:none;fill-rule:nonzero;fill-opacity:1;stroke:#1f77b4;stroke-width:1.5;stroke-linecap:square;stroke-linejoin:miter;stroke-miterlimit:4;stroke-dasharray:none;stroke-dashoffset:0;stroke-opacity:1" transform="matrix(1.0,0.0,0.0,1.0,0.0,0.0)" xmlns="http://www.w3.org/2000/svg" xmlns:svg="http://www.w3.org/2000/svg"/>
<path d="M 100.067438,116.255076 L 103.346777,109.714391" id="noID14" style="fill:none;fill-rule:nonzero;fill-opacity:1;stroke:#1f77b4;stroke-width:1.5;stroke-linecap:square;stroke-linejoin:miter;stroke-miterlimit:4;stroke-dasharray:none;stroke-dashoffset:0;stroke-opacity:1" transform="matrix(1.0,0.0,0.0,1.0,0.0,0.0)" xmlns="http://www.w3.org/2000/svg" xmlns:svg="http://www.w3.org/2000/svg"/>
<path d="M 103.346777,109.714391 L 106.626116,103.429496" id="noID14" style="fill:none;fill-rule:nonzero;fill-opacity:1;stroke:#1f77b4;stroke-width:1.5;stroke-linecap:square;stroke-linejoin:miter;stroke-miterlimit:4;stroke-dasharray:none;stroke-dashoffset:0;stroke-opacity:1" transform="matrix(1.0,0.0,0.0,1.0,0.0,0.0)" xmlns="http://www.w3.org/2000/svg" xmlns:svg="http://www.w3.org/2000/svg"/>
<path d="M 106.626116,103.429496 L 109.905455,97.425194" id="noID14" style="fill:none;fill-rule:nonzero;fill-opacity:1;stroke:#1f77b4;stroke-width:1.5;stroke-linecap:square;stroke-linejoin:miter;stroke-miterlimit:4;stroke-dasharray:none;stroke-dashoffset:0;stroke-opacity:1" transform="matrix(1.0,0.0,0.0,1.0,0.0,0.0)" xmlns="http://www.w3.org/2000/svg" xmlns:svg="http://www.w3.org/2000/svg"/>
<path d="M 109.905455,97.425194 L 113.184793,91.725182" id="noID14" style="fill:none;fill-rule:nonzero;fill-opacity:1;stroke:#1f77b4;stroke-width:1.5;stroke-linecap:square;stroke-linejoin:miter;stroke-miterlimit:4;stroke-dasharray:none;stroke-dashoffset:0;stroke-opacity:1" transform="matrix(1.0,0.0,0.0,1.0,0.0,0.0)" xmlns="http://www.w3.org/2000/svg" xmlns:svg="http://www.w3.org/2000/svg"/>
<path d="M 113.184793,91.725182 L 116.464132,86.351955" id="noID14" style="fill:none;fill-rule:nonzero;fill-opacity:1;stroke:#1f77b4;stroke-width:1.5;stroke-linecap:square;stroke-linejoin:miter;stroke-miterlimit:4;stroke-dasharray:none;stroke-dashoffset:0;stroke-opacity:1" transform="matrix(1.0,0.0,0.0,1.0,0.0,0.0)" xmlns="http://www.w3.org/2000/svg" xmlns:svg="http://www.w3.org/2000/svg"/>
<path d="M 116.464132,86.351955 L 119.743471,81.326718" id="noID14" style="fill:none;fill-rule:nonzero;fill-opacity:1;stroke:#1f77b4;stroke-width:1.5;stroke-linecap:square;stroke-linejoin:miter;stroke-miterlimit:4;stroke-dasharray:none;stroke-dashoffset:0;stroke-opacity:1" transform="matrix(1.0,0.0,0.0,1.0,0.0,0.0)" xmlns="http://www.w3.org/2000/svg" xmlns:svg="http://www.w3.org/2000/svg"/>
<path d="M 119.743471,81.326718 L 123.02281,76.669304" id="noID14" style="fill:none;fill-rule:nonzero;fill-opacity:1;stroke:#1f77b4;stroke-width:1.5;stroke-linecap:square;stroke-linejoin:miter;stroke-miterlimit:4;stroke-dasharray:none;stroke-dashoffset:0;stroke-opacity:1" transform="matrix(1.0,0.0,0.0,1.0,0.0,0.0)" xmlns="http://www.w3.org/2000/svg" xmlns:svg="http://www.w3.org/2000/svg"/>
<path d="M 123.02281,76.669304 L 126.302149,72.398094" id="noID14" style="fill:none;fill-rule:nonzero;fill-opacity:1;stroke:#1f77b4;stroke-width:1.5;stroke-linecap:square;stroke-linejoin:miter;stroke-miterlimit:4;stroke-dasharray:none;stroke-dashoffset:0;stroke-opacity:1" transform="matrix(1.0,0.0,0.0,1.0,0.0,0.0)" xmlns="http://www.w3.org/2000/svg" xmlns:svg="http://www.w3.org/2000/svg"/>
<path d="M 126.302149,72.398094 L 129.581488,68.529944" id="noID14" style="fill:none;fill-rule:nonzero;fill-opacity:1;stroke:#1f77b4;stroke-width:1.5;stroke-linecap:square;stroke-linejoin:miter;stroke-miterlimit:4;stroke-dasharray:none;stroke-dashoffset:0;stroke-opacity:1" transform="matrix(1.0,0.0,0.0,1.0,0.0,0.0)" xmlns="http://www.w3.org/2000/svg" xmlns:svg="http://www.w3.org/2000/svg"/>
<path d="M 129.581488,68.529944 L 132.860826,65.08012" id="noID14" style="fill:none;fill-rule:nonzero;fill-opacity:1;stroke:#1f77b4;stroke-width:1.5;stroke-linecap:square;stroke-linejoin:miter;stroke-miterlimit:4;stroke-dasharray:none;stroke-dashoffset:0;stroke-opacity:1" transform="matrix(1.0,0.0,0.0,1.0,0.0,0.0)" xmlns="http://www.w3.org/2000/svg" xmlns:svg="http://www.w3.org/2000/svg"/>
<path d="M 132.860826,65.08012 L 136.140165,62.062236" id="noID14" style="fill:none;fill-rule:nonzero;fill-opacity:1;stroke:#1f77b4;stroke-width:1.5;stroke-linecap:square;stroke-linejoin:miter;stroke-miterlimit:4;stroke-dasharray:none;stroke-dashoffset:0;stroke-opacity:1" transform="matrix(1.0,0.0,0.0,1.0,0.0,0.0)" xmlns="http://www.w3.org/2000/svg" xmlns:svg="http://www.w3.org/2000/svg"/>
<path d="M 136.140165,62.062236 L 139.419504,59.488204" id="noID14" style="fill:none;fill-rule:nonzero;fill-opacity:1;stroke:#1f77b4;stroke-width:1.5;stroke-linecap:square;stroke-linejoin:miter;stroke-miterlimit:4;stroke-dasharray:none;stroke-dashoffset:0;stroke-opacity:1" transform="matrix(1.0,0.0,0.0,1.0,0.0,0.0)" xmlns="http://www.w3.org/2000/svg" xmlns:svg="http://www.w3.org/2000/svg"/>
<path d="M 139.419504,59.488204 L 142.698843,57.368181" id="noID14" style="fill:none;fill-rule:nonzero;fill-opacity:1;stroke:#1f77b4;stroke-width:1.5;stroke-linecap:square;stroke-linejoin:miter;stroke-miterlimit:4;stroke-dasharray:none;stroke-dashoffset:0;stroke-opacity:1" transform="matrix(1.0,0.0,0.0,1.0,0.0,0.0)" xmlns="http://www.w3.org/2000/svg" xmlns:svg="http://www.w3.org/2000/svg"/>
<path d="M 142.698843,57.368181 L 145.978182,55.710534" id="noID14" style="fill:none;fill-rule:nonzero;fill-opacity:1;stroke:#1f77b4;stroke-width:1.5;stroke-linecap:square;stroke-linejoin:miter;stroke-miterlimit:4;stroke-dasharray:none;stroke-dashoffset:0;stroke-opacity:1" transform="matrix(1.0,0.0,0.0,1.0,0.0,0.0)" xmlns="http://www.w3.org/2000/svg" xmlns:svg="http://www.w3.org/2000/svg"/>
<path d="M 145.978182,55.710534 L 149.257521,54.521806" id="noID14" style="fill:none;fill-rule:nonzero;fill-opacity:1;stroke:#1f77b4;stroke-width:1.5;stroke-linecap:square;stroke-linejoin:miter;stroke-miterlimit:4;stroke-dasharray:none;stroke-dashoffset:0;stroke-opacity:1" transform="matrix(1.0,0.0,0.0,1.0,0.0,0.0)" xmlns="http://www.w3.org/2000/svg" xmlns:svg="http://www.w3.org/2000/svg"/>
<path d="M 149.257521,54.521806 L 152.53686,53.806687" id="noID14" style="fill:none;fill-rule:nonzero;fill-opacity:1;stroke:#1f77b4;stroke-width:1.5;stroke-linecap:square;stroke-linejoin:miter;stroke-miterlimit:4;stroke-dasharray:none;stroke-dashoffset:0;stroke-opacity:1" transform="matrix(1.0,0.0,0.0,1.0,0.0,0.0)" xmlns="http://www.w3.org/2000/svg" xmlns:svg="http://www.w3.org/2000/svg"/>
<path d="M 152.53686,53.806687 L 155.816198,53.568" id="noID14" style="fill:none;fill-rule:nonzero;fill-opacity:1;stroke:#1f77b4;stroke-width:1.5;stroke-linecap:square;stroke-linejoin:miter;stroke-miterlimit:4;stroke-dasharray:none;stroke-dashoffset:0;stroke-opacity:1" transform="matrix(1.0,0.0,0.0,1.0,0.0,0.0)" xmlns="http://www.w3.org/2000/svg" xmlns:svg="http://www.w3.org/2000/svg"/>
<path d="M 155.816198,53.568 L 159.095537,53.806687" id="noID14" style="fill:none;fill-rule:nonzero;fill-opacity:1;stroke:#1f77b4;stroke-width:1.5;stroke-linecap:square;stroke-linejoin:miter;stroke-miterlimit:4;stroke-dasharray:none;stroke-dashoffset:0;stroke-opacity:1" transform="matrix(1.0,0.0,0.0,1.0,0.0,0.0)" xmlns="http://www.w3.org/2000/svg" xmlns:svg="http://www.w3.org/2000/svg"/>
<path d="M 159.095537,53.806687 L 162.374876,54.521806" id="noID14" style="fill:none;fill-rule:nonzero;fill-opacity:1;stroke:#1f77b4;stroke-width:1.5;stroke-linecap:square;stroke-linejoin:miter;stroke-miterlimit:4;stroke-dasharray:none;stroke-dashoffset:0;stroke-opacity:1" transform="matrix(1.0,0.0,0.0,1.0,0.0,0.0)" xmlns="http://www.w3.org/2000/svg" xmlns:svg="http://www.w3.org/2000/svg"/>
<path d="M 162.374876,54.521806 L 165.654215,55.710534" id="noID14" style="fill:none;fill-rule:nonzero;fill-opacity:1;stroke:#1f77b4;stroke-width:1.5;stroke-linecap:square;stroke-linejoin:miter;stroke-miterlimit:4;stroke-dasharray:none;stroke-dashoffset:0;stroke-opacity:1" transform="matrix(1.0,0.0,0.0,1.0,0.0,0.0)" xmlns="http://www.w3.org/2000/svg" xmlns:svg="http://www.w3.org/2000/svg"/>
<path d="M 165.654215,55.710534 L 168.933554,57.368181" id="noID14" style="fill:none;fill-rule:nonzero;fill-opacity:1;stroke:#1f77b4;stroke-width:1.5;stroke-linecap:square;stroke-linejoin:miter;stroke-miterlimit:4;stroke-dasharray:none;stroke-dashoffset:0;stroke-opacity:1" transform="matrix(1.0,0.0,0.0,1.0,0.0,0.0)" xmlns="http://www.w3.org/2000/svg" xmlns:svg="http://www.w3.org/2000/svg"/>
<path d="M 168.933554,57.368181 L 172.212893,59.488204" id="noID14" style="fill:none;fill-rule:nonzero;fill-opacity:1;stroke:#1f77b4;stroke-width:1.5;stroke-linecap:square;stroke-linejoin:miter;stroke-miterlimit:4;stroke-dasharray:none;stroke-dashoffset:0;stroke-opacity:1" transform="matrix(1.0,0.0,0.0,1.0,0.0,0.0)" xmlns="http://www.w3.org/2000/svg" xmlns:svg="http://www.w3.org/2000/svg"/>
<path d="M 172.212893,59.488204 L 175.492231,62.062236" id="noID14" style="fill:none;fill-rule:nonzero;fill-opacity:1;stroke:#1f77b4;stroke-width:1.5;stroke-linecap:square;stroke-linejoin:miter;stroke-miterlimit:4;stroke-dasharray:none;stroke-dashoffset:0;stroke-opacity:1" transform="matrix(1.0,0.0,0.0,1.0,0.0,0.0)" xmlns="http://www.w3.org/2000/svg" xmlns:svg="http://www.w3.org/2000/svg"/>
<path d="M 175.492231,62.062236 L 178.77157,65.08012" id="noID14" style="fill:none;fill-rule:nonzero;fill-opacity:1;stroke:#1f77b4;stroke-width:1.5;stroke-linecap:square;stroke-linejoin:miter;stroke-miterlimit:4;stroke-dasharray:none;stroke-dashoffset:0;stroke-opacity:1" transform="matrix(1.0,0.0,0.0,1.0,0.0,0.0)" xmlns="http://www.w3.org/2000/svg" xmlns:svg="http://www.w3.org/2000/svg"/>
<path d="M 178.77157,65.08012 L 182.050909,68.529944" id="noID14" style="fill:none;fill-rule:nonzero;fill-opacity:1;stroke:#1f77b4;stroke-width:1.5;stroke-linecap:square;stroke-linejoin:miter;stroke-miterlimit:4;stroke-dasharray:none;stroke-dashoffset:0;stroke-opacity:1" transform="matrix(1.0,0.0,0.0,1.0,0.0,0.0)" xmlns="http://www.w3.org/2000/svg" xmlns:svg="http://www.w3.org/2000/svg"/>
<path d="M 182.050909,68.529944 L 185.330248,72.398094" id="noID14" style="fill:none;fill-rule:nonzero;fill-opacity:1;stroke:#1f77b4;stroke-width:1.5;stroke-linecap:square;stroke-linejoin:miter;stroke-miterlimit:4;stroke-dasharray:none;stroke-dashoffset:0;stroke-opacity:1" transform="matrix(1.0,0.0,0.0,1.0,0.0,0.0)" xmlns="http://www.w3.org/2000/svg" xmlns:svg="http://www.w3.org/2000/svg"/>
<path d="M 185.330248,72.398094 L 188.609587,76.669304" id="noID14" style="fill:none;fill-rule:nonzero;fill-opacity:1;stroke:#1f77b4;stroke-width:1.5;stroke-linecap:square;stroke-linejoin:miter;stroke-miterlimit:4;stroke-dasharray:none;stroke-dashoffset:0;stroke-opacity:1" transform="matrix(1.0,0.0,0.0,1.0,0.0,0.0)" xmlns="http://www.w3.org/2000/svg" xmlns:svg="http://www.w3.org/2000/svg"/>
<path d="M 188.609587,76.669304 L 191.888926,81.326718" id="noID14" style="fill:none;fill-rule:nonzero;fill-opacity:1;stroke:#1f77b4;stroke-width:1.5;stroke-linecap:square;stroke-linejoin:miter;stroke-miterlimit:4;stroke-dasharray:none;stroke-dashoffset:0;stroke-opacity:1" transform="matrix(1.0,0.0,0.0,1.0,0.0,0.0)" xmlns="http://www.w3.org/2000/svg" xmlns:svg="http://www.w3.org/2000/svg"/>
<path d="M 191.888926,81.326718 L 195.168264,86.351955" id="noID14" style="fill:none;fill-rule:nonzero;fill-opacity:1;stroke:#1f77b4;stroke-width:1.5;stroke-linecap:square;stroke-linejoin:miter;stroke-miterlimit:4;stroke-dasharray:none;stroke-dashoffset:0;stroke-opacity:1" transform="matrix(1.0,0.0,0.0,1.0,0.0,0.0)" xmlns="http://www.w3.org/2000/svg" xmlns:svg="http://www.w3.org/2000/svg"/>
<path d="M 195.168264,86.351955 L 198.447603,91.725182" id="noID14" style="fill:none;fill-rule:nonzero;fill-opacity:1;stroke:#1f77b4;stroke-width:1.5;stroke-linecap:square;stroke-linejoin:miter;stroke-miterlimit:4;stroke-dasharray:none;stroke-dashoffset:0;stroke-opacity:1" transform="matrix(1.0,0.0,0.0,1.0,0.0,0.0)" xmlns="http://www.w3.org/2000/svg" xmlns:svg="http://www.w3.org/2000/svg"/>
<path d="M 198.447603,91.725182 L 201.726942,97.425194" id="noID14" style="fill:none;fill-rule:nonzero;fill-opacity:1;stroke:#1f77b4;stroke-width:1.5;stroke-linecap:square;stroke-linejoin:miter;stroke-miterlimit:4;stroke-dasharray:none;stroke-dashoffset:0;stroke-opacity:1" transform="matrix(1.0,0.0,0.0,1.0,0.0,0.0)" xmlns="http://www.w3.org/2000/svg" xmlns:svg="http://www.w3.org/2000/svg"/>
<path d="M 201.726942,97.425194 L 205.006281,103.429496" id="noID14" style="fill:none;fill-rule:nonzero;fill-opacity:1;stroke:#1f77b4;stroke-width:1.5;stroke-linecap:square;stroke-linejoin:miter;stroke-miterlimit:4;stroke-dasharray:none;stroke-dashoffset:0;stroke-opacity:1" transform="matrix(1.0,0.0,0.0,1.0,0.0,0.0)" xmlns="http://www.w3.org/2000/svg" xmlns:svg="http://www.w3.org/2000/svg"/>
<path d="M 205.006281,103.429496 L 208.28562,109.714391" id="noID14" style="fill:none;fill-rule:nonzero;fill-opacity:1;stroke:#1f77b4;stroke-width:1.5;stroke-linecap:square;stroke-linejoin:miter;stroke-miterlimit:4;stroke-dasharray:none;stroke-dashoffset:0;stroke-opacity:1" transform="matrix(1.0,0.0,0.0,1.0,0.0,0.0)" xmlns="http://www.w3.org/2000/svg" xmlns:svg="http://www.w3.org/2000/svg"/>
<path d="M 208.28562,109.714391 L 211.564959,116.255076" id="noID14" style="fill:none;fill-rule:nonzero;fill-opacity:1;stroke:#1f77b4;stroke-width:1.5;stroke-linecap:square;stroke-linejoin:miter;stroke-miterlimit:4;stroke-dasharray:none;stroke-dashoffset:0;stroke-opacity:1" transform="matrix(1.0,0.0,0.0,1.0,0.0,0.0)" xmlns="http://www.w3.org/2000/svg" xmlns:svg="http://www.w3.org/2000/svg"/>
<path d="M 211.564959,116.255076 L 214.844298,123.025737" id="noID14" style="fill:none;fill-rule:nonzero;fill-opacity:1;stroke:#1f77b4;stroke-width:1.5;stroke-linecap:square;stroke-linejoin:miter;stroke-miterlimit:4;stroke-dasharray:none;stroke-dashoffset:0;stroke-opacity:1" transform="matrix(1.0,0.0,0.0,1.0,0.0,0.0)" xmlns="http://www.w3.org/2000/svg" xmlns:svg="http://www.w3.org/2000/svg"/>
<path d="M 214.844298,123.025737 L 218.123636,129.999654" id="noID14" style="fill:none;fill-rule:nonzero;fill-opacity:1;stroke:#1f77b4;stroke-width:1.5;stroke-linecap:square;stroke-linejoin:miter;stroke-miterlimit:4;stroke-dasharray:none;stroke-dashoffset:0;stroke-opacity:1" transform="matrix(1.0,0.0,0.0,1.0,0.0,0.0)" xmlns="http://www.w3.org/2000/svg" xmlns:svg="http://www.w3.org/2000/svg"/>
<path d="M 218.123636,129.999654 L 221.402975,137.149304" id="noID14" style="fill:none;fill-rule:nonzero;fill-opacity:1;stroke:#1f77b4;stroke-width:1.5;stroke-linecap:square;stroke-linejoin:miter;stroke-miterlimit:4;stroke-dasharray:none;stroke-dashoffset:0;stroke-opacity:1" transform="matrix(1.0,0.0,0.0,1.0,0.0,0.0)" xmlns="http://www.w3.org/2000/svg" xmlns:svg="http://www.w3.org/2000/svg"/>
<path d="M 221.402975,137.149304 L 224.682314,144.446471" id="noID14" style="fill:none;fill-rule:nonzero;fill-opacity:1;stroke:#1f77b4;stroke-width:1.5;stroke-linecap:square;stroke-linejoin:miter;stroke-miterlimit:4;stroke-dasharray:none;stroke-dashoffset:0;stroke-opacity:1" transform="matrix(1.0,0.0,0.0,1.0,0.0,0.0)" xmlns="http://www.w3.org/2000/svg" xmlns:svg="http://www.w3.org/2000/svg"/>
<path d="M 224.682314,144.446471 L 227.961653,151.862356" id="noID14" style="fill:none;fill-rule:nonzero;fill-opacity:1;stroke:#1f77b4;stroke-width:1.5;stroke-linecap:square;stroke-linejoin:miter;stroke-miterlimit:4;stroke-dasharray:none;stroke-dashoffset:0;stroke-opacity:1" transform="matrix(1.0,0.0,0.0,1.0,0.0,0.0)" xmlns="http://www.w3.org/2000/svg" xmlns:svg="http://www.w3.org/2000/svg"/>
<path d="M 227.961653,151.862356 L 231.240992,159.367692" id="noID14" style="fill:none;fill-rule:nonzero;fill-opacity:1;stroke:#1f77b4;stroke-width:1.5;stroke-linecap:square;stroke-linejoin:miter;stroke-miterlimit:4;stroke-dasharray:none;stroke-dashoffset:0;stroke-opacity:1" transform="matrix(1.0,0.0,0.0,1.0,0.0,0.0)" xmlns="http://www.w3.org/2000/svg" xmlns:svg="http://www.w3.org/2000/svg"/>
<path d="M 231.240992,159.367692 L 234.520331,166.932859" id="noID14" style="fill:none;fill-rule:nonzero;fill-opacity:1;stroke:#1f77b4;stroke-width:1.5;stroke-linecap:square;stroke-linejoin:miter;stroke-miterlimit:4;stroke-dasharray:none;stroke-dashoffset:0;stroke-opacity:1" transform="matrix(1.0,0.0,0.0,1.0,0.0,0.0)" xmlns="http://www.w3.org/2000/svg" xmlns:svg="http://www.w3.org/2000/svg"/>
<path d="M 234.520331,166.932859 L 237.799669,174.528" id="noID14" style="fill:none;fill-rule:nonzero;fill-opacity:1;stroke:#1f77b4;stroke-width:1.5;stroke-linecap:square;stroke-linejoin:miter;stroke-miterlimit:4;stroke-dasharray:none;stroke-dashoffset:0;stroke-opacity:1" transform="matrix(1.0,0.0,0.0,1.0,0.0,0.0)" xmlns="http://www.w3.org/2000/svg" xmlns:svg="http://www.w3.org/2000/svg"/>
<path d="M 237.799669,174.528 L 241.079008,182.123141" id="noID14" style="fill:none;fill-rule:nonzero;fill-opacity:1;stroke:#1f77b4;stroke-width:1.5;stroke-linecap:square;stroke-linejoin:miter;stroke-miterlimit:4;stroke-dasharray:none;stroke-dashoffset:0;stroke-opacity:1" transform="matrix(1.0,0.0,0.0,1.0,0.0,0.0)" xmlns="http://www.w3.org/2000/svg" xmlns:svg="http://www.w3.org/2000/svg"/>
<path d="M 241.079008,182.123141 L 244.358347,189.688308" id="noID14" style="fill:none;fill-rule:nonzero;fill-opacity:1;stroke:#1f77b4;stroke-width:1.5;stroke-linecap:square;stroke-linejoin:miter;stroke-miterlimit:4;stroke-dasharray:none;stroke-dashoffset:0;stroke-opacity:1" transform="matrix(1.0,0.0,0.0,1.0,0.0,0.0)" xmlns="http://www.w3.org/2000/svg" xmlns:svg="http://www.w3.org/2000/svg"/>
<path d="M 244.358347,189.688308 L 247.637686,197.193644" id="noID14" style="fill:none;fill-rule:nonzero;fill-opacity:1;stroke:#1f77b4;stroke-width:1.5;stroke-linecap:square;stroke-linejoin:miter;stroke-miterlimit:4;stroke-dasharray:none;stroke-dashoffset:0;stroke-opacity:1" transform="matrix(1.0,0.0,0.0,1.0,0.0,0.0)" xmlns="http://www.w3.org/2000/svg" xmlns:svg="http://www.w3.org/2000/svg"/>
<path d="M 247.637686,197.193644 L 250.917025,204.609529" id="noID14" style="fill:none;fill-rule:nonzero;fill-opacity:1;stroke:#1f77b4;stroke-width:1.5;stroke-linecap:square;stroke-linejoin:miter;stroke-miterlimit:4;stroke-dasharray:none;stroke-dashoffset:0;stroke-opacity:1" transform="matrix(1.0,0.0,0.0,1.0,0.0,0.0)" xmlns="http://www.w3.org/2000/svg" xmlns:svg="http://www.w3.org/2000/svg"/>
<path d="M 250.917025,204.609529 L 254.196364,211.906696" id="noID14" style="fill:none;fill-rule:nonzero;fill-opacity:1;stroke:#1f77b4;stroke-width:1.5;stroke-linecap:square;stroke-linejoin:miter;stroke-miterlimit:4;stroke-dasharray:none;stroke-dashoffset:0;stroke-opacity:1" transform="matrix(1.0,0.0,0.0,1.0,0.0,0.0)" xmlns="http://www.w3.org/2000/svg" xmlns:svg="http://www.w3.org/2000/svg"/>
<path d="M 254.196364,211.906696 L 257.475702,219.056346" id="noID14" style="fill:none;fill-rule:nonzero;fill-opacity:1;stroke:#1f77b4;stroke-width:1.5;stroke-linecap:square;stroke-linejoin:miter;stroke-miterlimit:4;stroke-dasharray:none;stroke-dashoffset:0;stroke-opacity:1" transform="matrix(1.0,0.0,0.0,1.0,0.0,0.0)" xmlns="http://www.w3.org/2000/svg" xmlns:svg="http://www.w3.org/2000/svg"/>
<path d="M 257.475702,219.056346 L 260.755041,226.030263" id="noID14" style="fill:none;fill-rule:nonzero;fill-opacity:1;stroke:#1f77b4;stroke-width:1.5;stroke-linecap:square;stroke-linejoin:miter;stroke-miterlimit:4;stroke-dasharray:none;stroke-dashoffset:0;stroke-opacity:1" transform="matrix(1.0,0.0,0.0,1.0,0.0,0.0)" xmlns="http://www.w3.org/2000/svg" xmlns:svg="http://www.w3.org/2000/svg"/>
<path d="M 260.755041,226.030263 L 264.03438,232.800924" id="noID14" style="fill:none;fill-rule:nonzero;fill-opacity:1;stroke:#1f77b4;stroke-width:1.5;stroke-linecap:square;stroke-linejoin:miter;stroke-miterlimit:4;stroke-dasharray:none;stroke-dashoffset:0;stroke-opacity:1" transform="matrix(1.0,0.0,0.0,1.0,0.0,0.0)" xmlns="http://www.w3.org/2000/svg" xmlns:svg="http://www.w3.org/2000/svg"/>
<path d="M 264.03438,232.800924 L 267.313719,239.341609" id="noID14" style="fill:none;fill-rule:nonzero;fill-opacity:1;stroke:#1f77b4;stroke-width:1.5;stroke-linecap:square;stroke-linejoin:miter;stroke-miterlimit:4;stroke-dasharray:none;stroke-dashoffset:0;stroke-opacity:1" transform="matrix(1.0,0.0,0.0,1.0,0.0,0.0)" xmlns="http://www.w3.org/2000/svg" xmlns:svg="http://www.w3.org/2000/svg"/>
<path d="M 267.313719,239.341609 L 270.593058,245.626504" id="noID14" style="fill:none;fill-rule:nonzero;fill-opacity:1;stroke:#1f77b4;stroke-width:1.5;stroke-linecap:square;stroke-linejoin:miter;stroke-miterlimit:4;stroke-dasharray:none;stroke-dashoffset:0;stroke-opacity:1" transform="matrix(1.0,0.0,0.0,1.0,0.0,0.0)" xmlns="http://www.w3.org/2000/svg" xmlns:svg="http://www.w3.org/2000/svg"/>
<path d="M 270.593058,245.626504 L 273.872397,251.630806" id="noID14" style="fill:none;fill-rule:nonzero;fill-opacity:1;stroke:#1f77b4;stroke-width:1.5;stroke-linecap:square;stroke-linejoin:miter;stroke-miterlimit:4;stroke-dasharray:none;stroke-dashoffset:0;stroke-opacity:1" transform="matrix(1.0,0.0,0.0,1.0,0.0,0.0)" xmlns="http://www.w3.org/2000/svg" xmlns:svg="http://www.w3.org/2000/svg"/>
<path d="M 273.872397,251.630806 L 277.151736,257.330818" id="noID14" style="fill:none;fill-rule:nonzero;fill-opacity:1;stroke:#1f77b4;stroke-width:1.5;stroke-linecap:square;stroke-linejoin:miter;stroke-miterlimit:4;stroke-dasharray:none;stroke-dashoffset:0;stroke-opacity:1" transform="matrix(1.0,0.0,0.0,1.0,0.0,0.0)" xmlns="http://www.w3.org/2000/svg" xmlns:svg="http://www.w3.org/2000/svg"/>
<path d="M 277.151736,257.330818 L 280.431074,262.704045" id="noID14" style="fill:none;fill-rule:nonzero;fill-opacity:1;stroke:#1f77b4;stroke-width:1.5;stroke-linecap:square;stroke-linejoin:miter;stroke-miterlimit:4;stroke-dasharray:none;stroke-dashoffset:0;stroke-opacity:1" transform="matrix(1.0,0.0,0.0,1.0,0.0,0.0)" xmlns="http://www.w3.org/2000/svg" xmlns:svg="http://www.w3.org/2000/svg"/>
<path d="M 280.431074,262.704045 L 283.710413,267.729282" id="noID14" style="fill:none;fill-rule:nonzero;fill-opacity:1;stroke:#1f77b4;stroke-width:1.5;stroke-linecap:square;stroke-linejoin:miter;stroke-miterlimit:4;stroke-dasharray:none;stroke-dashoffset:0;stroke-opacity:1" transform="matrix(1.0,0.0,0.0,1.0,0.0,0.0)" xmlns="http://www.w3.org/2000/svg" xmlns:svg="http://www.w3.org/2000/svg"/>
<path d="M 283.710413,267.729282 L 286.989752,272.386696" id="noID14" style="fill:none;fill-rule:nonzero;fill-opacity:1;stroke:#1f77b4;stroke-width:1.5;stroke-linecap:square;stroke-linejoin:miter;stroke-miterlimit:4;stroke-dasharray:none;stroke-dashoffset:0;stroke-opacity:1" transform="matrix(1.0,0.0,0.0,1.0,0.0,0.0)" xmlns="http://www.w3.org/2000/svg" xmlns:svg="http://www.w3.org/2000/svg"/>
<path d="M 286.989752,272.386696 L 290.269091,276.657906" id="noID14" style="fill:none;fill-rule:nonzero;fill-opacity:1;stroke:#1f77b4;stroke-width:1.5;stroke-linecap:square;stroke-linejoin:miter;stroke-miterlimit:4;stroke-dasharray:none;stroke-dashoffset:0;stroke-opacity:1" transform="matrix(1.0,0.0,0.0,1.0,0.0,0.0)" xmlns="http://www.w3.org/2000/svg" xmlns:svg="http://www.w3.org/2000/svg"/>
<path d="M 290.269091,276.657906 L 293.54843,280.526056" id="noID14" style="fill:none;fill-rule:nonzero;fill-opacity:1;stroke:#1f77b4;stroke-width:1.5;stroke-linecap:square;stroke-linejoin:miter;stroke-miterlimit:4;stroke-dasharray:none;stroke-dashoffset:0;stroke-opacity:1" transform="matrix(1.0,0.0,0.0,1.0,0.0,0.0)" xmlns="http://www.w3.org/2000/svg" xmlns:svg="http://www.w3.org/2000/svg"/>
<path d="M 293.54843,280.526056 L 296.827769,283.97588" id="noID14" style="fill:none;fill-rule:nonzero;fill-opacity:1;stroke:#1f77b4;stroke-width:1.5;stroke-linecap:square;stroke-linejoin:miter;stroke-miterlimit:4;stroke-dasharray:none;stroke-dashoffset:0;stroke-opacity:1" transform="matrix(1.0,0.0,0.0,1.0,0.0,0.0)" xmlns="http://www.w3.org/2000/svg" xmlns:svg="http://www.w3.org/2000/svg"/>
<path d="M 296.827769,283.97588 L 300.107107,286.993764" id="noID14" style="fill:none;fill-rule:nonzero;fill-opacity:1;stroke:#1f77b4;stroke-width:1.5;stroke-linecap:square;stroke-linejoin:miter;stroke-miterlimit:4;stroke-dasharray:none;stroke-dashoffset:0;stroke-opacity:1" transform="matrix(1.0,0.0,0.0,1.0,0.0,0.0)" xmlns="http://www.w3.org/2000/svg" xmlns:svg="http://www.w3.org/2000/svg"/>
<path d="M 300.107107,286.993764 L 303.386446,289.567796" id="noID14" style="fill:none;fill-rule:nonzero;fill-opacity:1;stroke:#1f77b4;stroke-width:1.5;stroke-linecap:square;stroke-linejoin:miter;stroke-miterlimit:4;stroke-dasharray:none;stroke-dashoffset:0;stroke-opacity:1" transform="matrix(1.0,0.0,0.0,1.0,0.0,0.0)" xmlns="http://www.w3.org/2000/svg" xmlns:svg="http://www.w3.org/2000/svg"/>
<path d="M 303.386446,289.567796 L 306.665785,291.687819" id="noID14" style="fill:none;fill-rule:nonzero;fill-opacity:1;stroke:#1f77b4;stroke-width:1.5;stroke-linecap:square;stroke-linejoin:miter;stroke-miterlimit:4;stroke-dasharray:none;stroke-dashoffset:0;stroke-opacity:1" transform="matrix(1.0,0.0,0.0,1.0,0.0,0.0)" xmlns="http://www.w3.org/2000/svg" xmlns:svg="http://www.w3.org/2000/svg"/>
<path d="M 306.665785,291.687819 L 309.945124,293.345466" id="noID14" style="fill:none;fill-rule:nonzero;fill-opacity:1;stroke:#1f77b4;stroke-width:1.5;stroke-linecap:square;stroke-linejoin:miter;stroke-miterlimit:4;stroke-dasharray:none;stroke-dashoffset:0;stroke-opacity:1" transform="matrix(1.0,0.0,0.0,1.0,0.0,0.0)" xmlns="http://www.w3.org/2000/svg" xmlns:svg="http://www.w3.org/2000/svg"/>
<path d="M 309.945124,293.345466 L 313.224463,294.534194" id="noID14" style="fill:none;fill-rule:nonzero;fill-opacity:1;stroke:#1f77b4;stroke-width:1.5;stroke-linecap:square;stroke-linejoin:miter;stroke-miterlimit:4;stroke-dasharray:none;stroke-dashoffset:0;stroke-opacity:1" transform="matrix(1.0,0.0,0.0,1.0,0.0,0.0)" xmlns="http://www.w3.org/2000/svg" xmlns:svg="http://www.w3.org/2000/svg"/>
<path d="M 313.224463,294.534194 L 316.503802,295.249313" id="noID14" style="fill:none;fill-rule:nonzero;fill-opacity:1;stroke:#1f77b4;stroke-width:1.5;stroke-linecap:square;stroke-linejoin:miter;stroke-miterlimit:4;stroke-dasharray:none;stroke-dashoffset:0;stroke-opacity:1" transform="matrix(1.0,0.0,0.0,1.0,0.0,0.0)" xmlns="http://www.w3.org/2000/svg" xmlns:svg="http://www.w3.org/2000/svg"/>
<path d="M 316.503802,295.249313 L 319.78314,295.488" id="noID14" style="fill:none;fill-rule:nonzero;fill-opacity:1;stroke:#1f77b4;stroke-width:1.5;stroke-linecap:square;stroke-linejoin:miter;stroke-miterlimit:4;stroke-dasharray:none;stroke-dashoffset:0;stroke-opacity:1" transform="matrix(1.0,0.0,0.0,1.0,0.0,0.0)" xmlns="http://www.w3.org/2000/svg" xmlns:svg="http://www.w3.org/2000/svg"/>
<path d="M 319.78314,295.488 L 323.062479,295.249313" id="noID14" style="fill:none;fill-rule:nonzero;fill-opacity:1;stroke:#1f77b4;stroke-width:1.5;stroke-linecap:square;stroke-linejoin:miter;stroke-miterlimit:4;stroke-dasharray:none;stroke-dashoffset:0;stroke-opacity:1" transform="matrix(1.0,0.0,0.0,1.0,0.0,0.0)" xmlns="http://www.w3.org/2000/svg" xmlns:svg="http://www.w3.org/2000/svg"/>
<path d="M 323.062479,295.249313 L 326.341818,294.534194" id="noID14" style="fill:none;fill-rule:nonzero;fill-opacity:1;stroke:#1f77b4;stroke-width:1.5;stroke-linecap:square;stroke-linejoin:miter;stroke-miterlimit:4;stroke-dasharray:none;stroke-dashoffset:0;stroke-opacity:1" transform="matrix(1.0,0.0,0.0,1.0,0.0,0.0)" xmlns="http://www.w3.org/2000/svg" xmlns:svg="http://www.w3.org/2000/svg"/>
<path d="M 326.341818,294.534194 L 329.621157,293.345466" id="noID14" style="fill:none;fill-rule:nonzero;fill-opacity:1;stroke:#1f77b4;stroke-width:1.5;stroke-linecap:square;stroke-linejoin:miter;stroke-miterlimit:4;stroke-dasharray:none;stroke-dashoffset:0;stroke-opacity:1" transform="matrix(1.0,0.0,0.0,1.0,0.0,0.0)" xmlns="http://www.w3.org/2000/svg" xmlns:svg="http://www.w3.org/2000/svg"/>
<path d="M 329.621157,293.345466 L 332.900496,291.687819" id="noID14" style="fill:none;fill-rule:nonzero;fill-opacity:1;stroke:#1f77b4;stroke-width:1.5;stroke-linecap:square;stroke-linejoin:miter;stroke-miterlimit:4;stroke-dasharray:none;stroke-dashoffset:0;stroke-opacity:1" transform="matrix(1.0,0.0,0.0,1.0,0.0,0.0)" xmlns="http://www.w3.org/2000/svg" xmlns:svg="http://www.w3.org/2000/svg"/>
<path d="M 332.900496,291.687819 L 336.179835,289.567796" id="noID14" style="fill:none;fill-rule:nonzero;fill-opacity:1;stroke:#1f77b4;stroke-width:1.5;stroke-linecap:square;stroke-linejoin:miter;stroke-miterlimit:4;stroke-dasharray:none;stroke-dashoffset:0;stroke-opacity:1" transform="matrix(1.0,0.0,0.0,1.0,0.0,0.0)" xmlns="http://www.w3.org/2000/svg" xmlns:svg="http://www.w3.org/2000/svg"/>
<path d="M 336.179835,289.567796 L 339.459174,286.993764" id="noID14" style="fill:none;fill-rule:nonzero;fill-opacity:1;stroke:#1f77b4;stroke-width:1.5;stroke-linecap:square;stroke-linejoin:miter;stroke-miterlimit:4;stroke-dasharray:none;stroke-dashoffset:0;stroke-opacity:1" transform="matrix(1.0,0.0,0.0,1.0,0.0,0.0)" xmlns="http://www.w3.org/2000/svg" xmlns:svg="http://www.w3.org/2000/svg"/>
<path d="M 339.459174,286.993764 L 342.738512,283.97588" id="noID14" style="fill:none;fill-rule:nonzero;fill-opacity:1;stroke:#1f77b4;stroke-width:1.5;stroke-linecap:square;stroke-linejoin:miter;stroke-miterlimit:4;stroke-dasharray:none;stroke-dashoffset:0;stroke-opacity:1" transform="matrix(1.0,0.0,0.0,1.0,0.0,0.0)" xmlns="http://www.w3.org/2000/svg" xmlns:svg="http://www.w3.org/2000/svg"/>
<path d="M 342.738512,283.97588 L 346.017851,280.526056" id="noID14" style="fill:none;fill-rule:nonzero;fill-opacity:1;stroke:#1f77b4;stroke-width:1.5;stroke-linecap:square;stroke-linejoin:miter;stroke-miterlimit:4;stroke-dasharray:none;stroke-dashoffset:0;stroke-opacity:1" transform="matrix(1.0,0.0,0.0,1.0,0.0,0.0)" xmlns="http://www.w3.org/2000/svg" xmlns:svg="http://www.w3.org/2000/svg"/>
<path d="M 346.017851,280.526056 L 349.29719,276.657906" id="noID14" style="fill:none;fill-rule:nonzero;fill-opacity:1;stroke:#1f77b4;stroke-width:1.5;stroke-linecap:square;stroke-linejoin:miter;stroke-miterlimit:4;stroke-dasharray:none;stroke-dashoffset:0;stroke-opacity:1" transform="matrix(1.0,0.0,0.0,1.0,0.0,0.0)" xmlns="http://www.w3.org/2000/svg" xmlns:svg="http://www.w3.org/2000/svg"/>
<path d="M 349.29719,276.657906 L 352.576529,272.386696" id="noID14" style="fill:none;fill-rule:nonzero;fill-opacity:1;stroke:#1f77b4;stroke-width:1.5;stroke-linecap:square;stroke-linejoin:miter;stroke-miterlimit:4;stroke-dasharray:none;stroke-dashoffset:0;stroke-opacity:1" transform="matrix(1.0,0.0,0.0,1.0,0.0,0.0)" xmlns="http://www.w3.org/2000/svg" xmlns:svg="http://www.w3.org/2000/svg"/>
<path d="M 352.576529,272.386696 L 355.855868,267.729282" id="noID14" style="fill:none;fill-rule:nonzero;fill-opacity:1;stroke:#1f77b4;stroke-width:1.5;stroke-linecap:square;stroke-linejoin:miter;stroke-miterlimit:4;stroke-dasharray:none;stroke-dashoffset:0;stroke-opacity:1" transform="matrix(1.0,0.0,0.0,1.0,0.0,0.0)" xmlns="http://www.w3.org/2000/svg" xmlns:svg="http://www.w3.org/2000/svg"/>
<path d="M 355.855868,267.729282 L 359.135207,262.704045" id="noID14" style="fill:none;fill-rule:nonzero;fill-opacity:1;stroke:#1f77b4;stroke-width:1.5;stroke-linecap:square;stroke-linejoin:miter;stroke-miterlimit:4;stroke-dasharray:none;stroke-dashoffset:0;stroke-opacity:1" transform="matrix(1.0,0.0,0.0,1.0,0.0,0.0)" xmlns="http://www.w3.org/2000/svg" xmlns:svg="http://www.w3.org/2000/svg"/>
<path d="M 359.135207,262.704045 L 362.414545,257.330818" id="noID14" style="fill:none;fill-rule:nonzero;fill-opacity:1;stroke:#1f77b4;stroke-width:1.5;stroke-linecap:square;stroke-linejoin:miter;stroke-miterlimit:4;stroke-dasharray:none;stroke-dashoffset:0;stroke-opacity:1" transform="matrix(1.0,0.0,0.0,1.0,0.0,0.0)" xmlns="http://www.w3.org/2000/svg" xmlns:svg="http://www.w3.org/2000/svg"/>
<path d="M 362.414545,257.330818 L 365.693884,251.630806" id="noID14" style="fill:none;fill-rule:nonzero;fill-opacity:1;stroke:#1f77b4;stroke-width:1.5;stroke-linecap:square;stroke-linejoin:miter;stroke-miterlimit:4;stroke-dasharray:none;stroke-dashoffset:0;stroke-opacity:1" transform="matrix(1.0,0.0,0.0,1.0,0.0,0.0)" xmlns="http://www.w3.org/2000/svg" xmlns:svg="http://www.w3.org/2000/svg"/>
<path d="M 365.693884,251.630806 L 368.973223,245.626504" id="noID14" style="fill:none;fill-rule:nonzero;fill-opacity:1;stroke:#1f77b4;stroke-width:1.5;stroke-linecap:square;stroke-linejoin:miter;stroke-miterlimit:4;stroke-dasharray:none;stroke-dashoffset:0;stroke-opacity:1" transform="matrix(1.0,0.0,0.0,1.0,0.0,0.0)" xmlns="http://www.w3.org/2000/svg" xmlns:svg="http://www.w3.org/2000/svg"/>
<path d="M 368.973223,245.626504 L 372.252562,239.341609" id="noID14" style="fill:none;fill-rule:nonzero;fill-opacity:1;stroke:#1f77b4;stroke-width:1.5;stroke-linecap:square;stroke-linejoin:miter;stroke-miterlimit:4;stroke-dasharray:none;stroke-dashoffset:0;stroke-opacity:1" transform="matrix(1.0,0.0,0.0,1.0,0.0,0.0)" xmlns="http://www.w3.org/2000/svg" xmlns:svg="http://www.w3.org/2000/svg"/>
<path d="M 372.252562,239.341609 L 375.531901,232.800924" id="noID14" style="fill:none;fill-rule:nonzero;fill-opacity:1;stroke:#1f77b4;stroke-width:1.5;stroke-linecap:square;stroke-linejoin:miter;stroke-miterlimit:4;stroke-dasharray:none;stroke-dashoffset:0;stroke-opacity:1" transform="matrix(1.0,0.0,0.0,1.0,0.0,0.0)" xmlns="http://www.w3.org/2000/svg" xmlns:svg="http://www.w3.org/2000/svg"/>
<path d="M 375.531901,232.800924 L 378.81124,226.030263" id="noID14" style="fill:none;fill-rule:nonzero;fill-opacity:1;stroke:#1f77b4;stroke-width:1.5;stroke-linecap:square;stroke-linejoin:miter;stroke-miterlimit:4;stroke-dasharray:none;stroke-dashoffset:0;stroke-opacity:1" transform="matrix(1.0,0.0,0.0,1.0,0.0,0.0)" xmlns="http://www.w3.org/2000/svg" xmlns:svg="http://www.w3.org/2000/svg"/>
<path d="M 378.81124,226.030263 L 382.090579,219.056346" id="noID14" style="fill:none;fill-rule:nonzero;fill-opacity:1;stroke:#1f77b4;stroke-width:1.5;stroke-linecap:square;stroke-linejoin:miter;stroke-miterlimit:4;stroke-dasharray:none;stroke-dashoffset:0;stroke-opacity:1" transform="matrix(1.0,0.0,0.0,1.0,0.0,0.0)" xmlns="http://www.w3.org/2000/svg" xmlns:svg="http://www.w3.org/2000/svg"/>
<path d="M 382.090579,219.056346 L 385.369917,211.906696" id="noID14" style="fill:none;fill-rule:nonzero;fill-opacity:1;stroke:#1f77b4;stroke-width:1.5;stroke-linecap:square;stroke-linejoin:miter;stroke-miterlimit:4;stroke-dasharray:none;stroke-dashoffset:0;stroke-opacity:1" transform="matrix(1.0,0.0,0.0,1.0,0.0,0.0)" xmlns="http://www.w3.org/2000/svg" xmlns:svg="http://www.w3.org/2000/svg"/>
<path d="M 385.369917,211.906696 L 388.649256,204.609529" id="noID14" style="fill:none;fill-rule:nonzero;fill-opacity:1;stroke:#1f77b4;stroke-width:1.5;stroke-linecap:square;stroke-linejoin:miter;stroke-miterlimit:4;stroke-dasharray:none;stroke-dashoffset:0;stroke-opacity:1" transform="matrix(1.0,0.0,0.0,1.0,0.0,0.0)" xmlns="http://www.w3.org/2000/svg" xmlns:svg="http://www.w3.org/2000/svg"/>
<path d="M 388.649256,204.609529 L 391.928595,197.193644" id="noID14" style="fill:none;fill-rule:nonzero;fill-opacity:1;stroke:#1f77b4;stroke-width:1.5;stroke-linecap:square;stroke-linejoin:miter;stroke-miterlimit:4;stroke-dasharray:none;stroke-dashoffset:0;stroke-opacity:1" transform="matrix(1.0,0.0,0.0,1.0,0.0,0.0)" xmlns="http://www.w3.org/2000/svg" xmlns:svg="http://www.w3.org/2000/svg"/>
<path d="M 391.928595,197.193644 L 395.207934,189.688308" id="noID14" style="fill:none;fill-rule:nonzero;fill-opacity:1;stroke:#1f77b4;stroke-width:1.5;stroke-linecap:square;stroke-linejoin:miter;stroke-miterlimit:4;stroke-dasharray:none;stroke-dashoffset:0;stroke-opacity:1" transform="matrix(1.0,0.0,0.0,1.0,0.0,0.0)" xmlns="http://www.w3.org/2000/svg" xmlns:svg="http://www.w3.org/2000/svg"/>
<path d="M 395.207934,189.688308 L 398.487273,182.123141" id="noID14" style="fill:none;fill-rule:nonzero;fill-opacity:1;stroke:#1f77b4;stroke-width:1.5;stroke-linecap:square;stroke-linejoin:miter;stroke-miterlimit:4;stroke-dasharray:none;stroke-dashoffset:0;stroke-opacity:1" transform="matrix(1.0,0.0,0.0,1.0,0.0,0.0)" xmlns="http://www.w3.org/2000/svg" xmlns:svg="http://www.w3.org/2000/svg"/>
<path d="M 401.766612,307.584 L 401.766612,41.472" id="noID18" style="fill:none;fill-rule:nonzero;fill-opacity:1;stroke:#b0b0b0;stroke-width:0.8;stroke-linecap:square;stroke-linejoin:miter;stroke-miterlimit:4;stroke-dasharray:none;stroke-dashoffset:0;stroke-opacity:1" transform="matrix(1.0,0.0,0.0,1.0,0.0,0.0)" xmlns="http://www.w3.org/2000/svg" xmlns:svg="http://www.w3.org/2000/svg"/>
<path d="M 57.6,174.528 L 414.72,174.528" id="noID18" style="fill:none;fill-rule:nonzero;fill-opacity:1;stroke:#b0b0b0;stroke-width:0.8;stroke-linecap:square;stroke-linejoin:miter;stroke-miterlimit:4;stroke-dasharray:none;stroke-dashoffset:0;stroke-opacity:1" transform="matrix(1.0,0.0,0.0,1.0,0.0,0.0)" xmlns="http://www.w3.org/2000/svg" xmlns:svg="http://www.w3.org/2000/svg"/>
<path d="M 270.593058,307.584 L 270.593058,41.472" id="noID18" style="fill:none;fill-rule:nonzero;fill-opacity:1;stroke:#b0b0b0;stroke-width:0.8;stroke-linecap:square;stroke-linejoin:miter;stroke-miterlimit:4;stroke-dasharray:none;stroke-dashoffset:0;stroke-opacity:1" transform="matrix(1.0,0.0,0.0,1.0,0.0,0.0)" xmlns="http://www.w3.org/2000/svg" xmlns:svg="http://www.w3.org/2000/svg"/>
<path d="M 205.006281,307.584 L 205.006281,41.472" id="noID18" style="fill:none;fill-rule:nonzero;fill-opacity:1;stroke:#b0b0b0;stroke-width:0.8;stroke-linecap:square;stroke-linejoin:miter;stroke-miterlimit:4;stroke-dasharray:none;stroke-dashoffset:0;stroke-opacity:1" transform="matrix(1.0,0.0,0.0,1.0,0.0,0.0)" xmlns="http://www.w3.org/2000/svg" xmlns:svg="http://www.w3.org/2000/svg"/>
<path d="M 57.6,53.568 L 414.72,53.568" id="noID18" style="fill:none;fill-rule:nonzero;fill-opacity:1;stroke:#b0b0b0;stroke-width:0.8;stroke-linecap:square;stroke-linejoin:miter;stroke-miterlimit:4;stroke-dasharray:none;stroke-dashoffset:0;stroke-opacity:1" transform="matrix(1.0,0.0,0.0,1.0,0.0,0.0)" xmlns="http://www.w3.org/2000/svg" xmlns:svg="http://www.w3.org/2000/svg"/>
<path d="M 73.832727,307.584 L 73.832727,41.472" id="noID18" style="fill:none;fill-rule:nonzero;fill-opacity:1;stroke:#b0b0b0;stroke-width:0.8;stroke-linecap:square;stroke-linejoin:miter;stroke-miterlimit:4;stroke-dasharray:none;stroke-dashoffset:0;stroke-opacity:1" transform="matrix(1.0,0.0,0.0,1.0,0.0,0.0)" xmlns="http://www.w3.org/2000/svg" xmlns:svg="http://www.w3.org/2000/svg"/>
<path d="M 0.0,0.0 L -3.5,0.0" id="mfe1154c075" style="fill:none;fill-rule:nonzero;fill-opacity:1;stroke:#000000;stroke-width:0.8;stroke-linecap:butt;stroke-linejoin:miter;stroke-miterlimit:4;stroke-dasharray:none;stroke-dashoffset:0;stroke-opacity:1" transform="matrix(1.0,0.0,0.0,1.0,0.0,0.0)" xmlns="http://www.w3.org/2000/svg" xmlns:svg="http://www.w3.org/2000/svg"/>
<path d="M 57.6,235.008 L 414.72,235.008" id="noID18" style="fill:none;fill-rule:nonzero;fill-opacity:1;stroke:#b0b0b0;stroke-width:0.8;stroke-linecap:square;stroke-linejoin:miter;stroke-miterlimit:4;stroke-dasharray:none;stroke-dashoffset:0;stroke-opacity:1" transform="matrix(1.0,0.0,0.0,1.0,0.0,0.0)" xmlns="http://www.w3.org/2000/svg" xmlns:svg="http://www.w3.org/2000/svg"/>
<path d="M 0.0,0.0 L 0.0,3.5" id="mc2784a5d8f" style="fill:none;fill-rule:nonzero;fill-opacity:1;stroke:#000000;stroke-width:0.8;stroke-linecap:butt;stroke-linejoin:miter;stroke-miterlimit:4;stroke-dasharray:none;stroke-dashoffset:0;stroke-opacity:1" transform="matrix(1.0,0.0,0.0,1.0,0.0,0.0)" xmlns="http://www.w3.org/2000/svg" xmlns:svg="http://www.w3.org/2000/svg"/>
</svg>